<?xml version="1.0" standalone="no"?>
<!DOCTYPE svg PUBLIC "-//W3C//DTD SVG 1.1//EN" "http://www.w3.org/Graphics/SVG/1.1/DTD/svg11.dtd" >
<svg xmlns="http://www.w3.org/2000/svg" xmlns:xlink="http://www.w3.org/1999/xlink" version="1.1">
<metadata>
Created by FontForge 20170731 at Mon Mar 19 12:19:15 2018
 By Aleksey,,,
Copyright (c) 2008 - 2011 Linotype GmbH, www.linotype.com. All rights reserved. This font software may not be reproduced, modified, disclosed or transferred without the express written approval of Linotype GmbH. Trade Gothic is a trademark of Linotype GmbH registered in the U.S. Patent and Trademark Office and certain other jurisdictions. This typeface is original artwork of Linotype Design Studio. The design may be protected in certain jurisdictions.
</metadata>
<defs>
<font id="TradeGothicNextLTPro-BdCn" horiz-adv-x="326" >
  <font-face 
    font-family="Trade Gothic Next LT Pro BdCn"
    font-weight="700"
    font-stretch="condensed"
    units-per-em="1000"
    panose-1="2 11 8 6 4 3 3 2 0 4"
    ascent="800"
    descent="-200"
    x-height="520"
    cap-height="718"
    bbox="-148 -197 896 1046"
    underline-thickness="50"
    underline-position="-175"
    unicode-range="U+000D-FB04"
  />
<missing-glyph horiz-adv-x="544" 
d="M494 0h-444v718h444v-718zM434 59v600h-323v-600h323zM288 293h-54v26q0 38 32.5 85.5t32.5 75.5q0 35 -29 35q-27 0 -37 -40l-61 11q17 89 102 89q49 0 72.5 -25t23.5 -67q0 -32 -20.5 -65t-41 -60.5t-20.5 -47.5v-17zM298 152h-76v83h76v-83z" />
    <glyph glyph-name="IJ" unicode="IJ" horiz-adv-x="640" 
d="M182 0h-119v718h119v-718zM577 199q0 -208 -174 -208q-58 0 -96.5 25t-67.5 81l90 55q25 -53 69 -53q32 0 46 22t14 68v529h119v-519z" />
    <glyph glyph-name="ij" unicode="ij" horiz-adv-x="425" 
d="M161 605h-110v118h110v-118zM159 0h-106v520h106v-520zM377 -34q0 -75 -32 -111t-101 -36q-33 0 -58 4v94q19 -4 35 -4q49 0 49 51v556h107v-554zM379 605h-111v118h111v-118z" />
    <glyph glyph-name="napostrophe" unicode="&#x22;n" horiz-adv-x="638" 
d="M116 439h-68l56 144h-44v135h122v-129zM589 0h-105v349q0 42 -13 61t-41 19q-42 0 -87 -52v-377h-106v520h103v-62q64 72 137 72q65 0 92 -47q20 -34 20 -122v-361z" />
    <glyph glyph-name="f_f" unicode="ff" horiz-adv-x="530" 
d="M439 0h-106v431h-144v-431h-105v431h-71v89h71v59q0 76 32.5 112t102.5 36q33 0 60 -5v-90q-26 4 -37 4q-53 0 -53 -52v-64h144v59q0 76 32.5 112t103.5 36q33 0 59 -5v-90q-24 4 -36 4q-53 0 -53 -52v-64h88v-89h-88v-431z" />
    <glyph glyph-name="fi" unicode="fi" horiz-adv-x="491" 
d="M441 605h-110v118h110v-118zM439 0h-106v520h106v-520zM189 0h-105v431h-71v89h71v59q0 76 32.5 112t103.5 36q32 0 59 -5v-90q-26 4 -37 4q-53 0 -53 -52v-64h88v-89h-88v-431z" />
    <glyph glyph-name="fl" unicode="fl" horiz-adv-x="491" 
d="M439 0h-106v718h106v-718zM189 0h-105v431h-71v89h71v59q0 76 32.5 112t103.5 36q32 0 59 -5v-90q-26 4 -37 4q-53 0 -53 -52v-64h88v-89h-88v-431z" />
    <glyph glyph-name="f_f_i" unicode="ffi" horiz-adv-x="740" 
d="M688 605h-110v118h110v-118zM686 0h-106v520h106v-520zM439 0h-106v431h-144v-431h-105v431h-71v89h71v59q0 76 32.5 112t102.5 36q33 0 60 -5v-90q-26 4 -37 4q-53 0 -53 -52v-64h144v59q0 76 32.5 112t103.5 36q33 0 59 -5v-90q-24 4 -36 4q-53 0 -53 -52v-64h88v-89
h-88v-431z" />
    <glyph glyph-name="f_f_l" unicode="ffl" horiz-adv-x="740" 
d="M439 0h-106v431h-144v-431h-105v431h-71v89h71v59q0 76 32.5 112t102.5 36q33 0 60 -5v-90q-26 4 -37 4q-53 0 -53 -52v-64h144v59q0 76 32.5 112t103.5 36q33 0 59 -5v-90q-24 4 -36 4q-53 0 -53 -52v-64h88v-89h-88v-431zM686 0h-106v718h106v-718z" />
    <glyph glyph-name=".notdef" horiz-adv-x="544" 
d="M494 0h-444v718h444v-718zM434 59v600h-323v-600h323zM288 293h-54v26q0 38 32.5 85.5t32.5 75.5q0 35 -29 35q-27 0 -37 -40l-61 11q17 89 102 89q49 0 72.5 -25t23.5 -67q0 -32 -20.5 -65t-41 -60.5t-20.5 -47.5v-17zM298 152h-76v83h76v-83z" />
    <glyph glyph-name=".null" horiz-adv-x="0" 
 />
    <glyph glyph-name="nonmarkingreturn" horiz-adv-x="333" 
 />
    <glyph glyph-name="CR" unicode="&#xd;" horiz-adv-x="187" 
 />
    <glyph glyph-name="space" unicode=" " horiz-adv-x="187" 
 />
    <glyph glyph-name="exclam" unicode="!" horiz-adv-x="232" 
d="M149 242h-80l-28 476h135zM169 0h-120v135h120v-135z" />
    <glyph glyph-name="quotedbl" unicode="&#x22;" horiz-adv-x="398" 
d="M148 439h-70l-22 279h114zM313 439h-69l-23 279h115z" />
    <glyph glyph-name="numbersign" unicode="#" horiz-adv-x="476" 
d="M143 0h-65l28 204h-90v85h101l20 145h-90v85h102l27 199h66l-28 -199h92l27 199h65l-27 -199h89v-85h-101l-20 -145h90v-85h-101l-28 -204h-65l28 204h-92zM202 434l-20 -145h92l20 145h-92z" />
    <glyph glyph-name="dollar" unicode="$" horiz-adv-x="476" 
d="M271 -120h-61v125q-72 5 -117.5 45t-69.5 121l96 30q15 -48 36 -71.5t55 -29.5v224q-40 22 -62.5 37t-51.5 41t-42.5 60t-13.5 76q0 76 46 122.5t124 52.5v74h61v-76q120 -16 158 -140l-86 -34q-26 63 -72 77v-201q31 -17 50 -28.5t45.5 -32.5t41.5 -41.5t26 -51.5
t11 -66q0 -82 -47 -130t-127 -57v-126zM343 184q0 59 -72 106v-190q72 15 72 84zM140 544q0 -53 70 -97v171q-70 -11 -70 -74z" />
    <glyph glyph-name="percent" unicode="%" horiz-adv-x="638" 
d="M162 501q36 0 56 22.5t20 58.5q0 35 -20 58t-56 23t-56.5 -23t-20.5 -58q0 -36 20 -58.5t57 -22.5zM162 436q-64 0 -104 42.5t-40 103.5q0 63 40 104t104 41t103.5 -41.5t39.5 -103.5q0 -61 -40 -103.5t-103 -42.5zM161 -23h-69l381 762h69zM476 55q36 0 56 22t20 58
t-20 59t-56 23t-56.5 -23t-20.5 -59t20.5 -58t56.5 -22zM476 -9q-65 0 -104.5 41.5t-39.5 102.5q0 63 39.5 105t104.5 42q63 0 103 -42t40 -105q0 -61 -40 -102.5t-103 -41.5z" />
    <glyph glyph-name="ampersand" unicode="&#x26;" horiz-adv-x="581" 
d="M565 82l-42 -93q-73 33 -119 70q-76 -68 -182 -68q-92 0 -143.5 51t-51.5 139q0 63 32 111.5t90 97.5q-46 95 -46 177q0 73 42 116.5t119 43.5q74 0 112.5 -38t38.5 -102q0 -33 -10.5 -61t-34 -55.5t-41.5 -43.5t-52 -45q27 -45 60 -89q23 -33 61 -77q26 58 43 143
l100 -16q-23 -120 -70 -200q46 -37 94 -61zM237 85q55 0 97 39q-45 49 -84 103q-37 52 -55 81q-54 -61 -54 -125q0 -44 25.5 -71t70.5 -27zM211 568q0 -49 25 -108q73 63 73 120q0 53 -45 53q-25 0 -39 -17.5t-14 -47.5z" />
    <glyph glyph-name="quotesingle" unicode="'" horiz-adv-x="232" 
d="M148 439h-70l-22 279h114z" />
    <glyph glyph-name="parenleft" unicode="(" horiz-adv-x="288" 
d="M249 -53h-86q-114 180 -114 390q0 212 114 390h86q-118 -192 -118 -390q0 -205 118 -390z" />
    <glyph glyph-name="parenright" unicode=")" horiz-adv-x="288" 
d="M125 -53h-85q117 186 117 390q0 197 -117 390h85q114 -178 114 -390q0 -210 -114 -390z" />
    <glyph glyph-name="asterisk" unicode="*" horiz-adv-x="382" 
d="M314 457l-57 -41l-66 110l-65 -111l-57 42l84 97l-126 28l22 68l119 -50l-12 127h70l-11 -127l119 51l20 -69l-124 -28z" />
    <glyph glyph-name="plus" unicode="+" horiz-adv-x="476" 
d="M447 228h-178v-178h-61v178h-179v58h179v168h61v-168h178v-58z" />
    <glyph glyph-name="comma" unicode="," horiz-adv-x="232" 
d="M102 -144h-69l56 144h-42v135h121v-129z" />
    <glyph glyph-name="hyphen" unicode="-" horiz-adv-x="293" 
d="M263 213h-233v99h233v-99z" />
    <glyph glyph-name="period" unicode="." horiz-adv-x="232" 
d="M168 0h-121v135h121v-135z" />
    <glyph glyph-name="slash" unicode="/" horiz-adv-x="253" 
d="M55 -53h-64l205 780h66z" />
    <glyph glyph-name="zero" unicode="0" horiz-adv-x="476" 
d="M238 -9q-106 0 -156.5 88.5t-50.5 276.5q0 189 50 280t157 91t157 -91t50 -280q0 -188 -50.5 -276.5t-156.5 -88.5zM238 85q48 0 69.5 63t21.5 208t-21.5 210.5t-69.5 65.5t-70 -65.5t-22 -210.5t21.5 -208t70.5 -63z" />
    <glyph glyph-name="one" unicode="1" horiz-adv-x="476" 
d="M405 0h-311v96h100v508l-117 -19v83l146 50h84v-622h98v-96z" />
    <glyph glyph-name="two" unicode="2" horiz-adv-x="476" 
d="M431 0h-398v55q0 86 95 196q19 22 62 66t64.5 69t41.5 64.5t20 77.5q0 101 -82 101q-79 0 -92 -120l-103 10q18 208 200 208q95 0 143 -51t48 -143q0 -50 -25 -102t-53 -84.5t-74 -80t-63 -68.5q-51 -58 -54 -97h270v-101z" />
    <glyph glyph-name="three" unicode="3" horiz-adv-x="476" 
d="M439 202q0 -99 -59.5 -155t-157.5 -56q-87 0 -137.5 41.5t-72.5 132.5l102 28q16 -55 41 -79.5t66 -24.5q48 0 75.5 32t27.5 89q0 125 -135 125h-39v97h37q124 0 124 104q0 44 -22.5 68.5t-63.5 24.5q-70 0 -98 -75l-95 30q51 143 201 143q92 0 142.5 -48.5t50.5 -131.5
q0 -118 -110 -160v-2q123 -44 123 -183z" />
    <glyph glyph-name="four" unicode="4" horiz-adv-x="476" 
d="M372 0h-109v165h-252v103l221 452h140v-457h86v-98h-86v-165zM263 263v316h-2l-155 -316h157z" />
    <glyph glyph-name="five" unicode="5" horiz-adv-x="476" 
d="M443 246q0 -121 -56 -188t-159 -67q-79 0 -129 37.5t-73 129.5l100 28q14 -53 38 -76t61 -23q51 0 76.5 42t25.5 116q0 144 -98 144q-58 0 -87 -62l-94 12l27 379h327v-102h-243l-14 -175h2q48 42 113 42q87 0 135 -61.5t48 -175.5z" />
    <glyph glyph-name="six" unicode="6" horiz-adv-x="476" 
d="M438 606l-83 -47q-37 70 -93 70q-115 0 -120 -239h2q54 64 136 64t126.5 -57.5t44.5 -164.5q0 -113 -56.5 -177t-150.5 -64q-216 0 -216 331q0 405 234 405q65 0 107.5 -28.5t68.5 -92.5zM143 278q2 -192 101 -192q45 0 69 36.5t24 104.5q0 128 -93 128q-32 0 -60 -21.5
t-41 -55.5z" />
    <glyph glyph-name="seven" unicode="7" horiz-adv-x="476" 
d="M209 0h-123l234 610h-285v108h404v-86z" />
    <glyph glyph-name="eight" unicode="8" horiz-adv-x="476" 
d="M457 190q0 -92 -58 -145.5t-163 -53.5q-104 0 -160.5 53.5t-56.5 144.5q0 111 125 185v2q-50 34 -77 73.5t-27 98.5q0 81 51.5 130t146.5 49q97 0 148.5 -46.5t51.5 -128.5q0 -105 -108 -167v-2q69 -42 98 -87.5t29 -105.5zM346 186q0 25 -9 45t-29 37.5t-36.5 28.5
t-47.5 28q-94 -57 -94 -138q0 -49 28 -77t78 -28q52 0 81 28t29 76zM330 550q0 39 -24.5 63.5t-67.5 24.5t-66.5 -24.5t-23.5 -62.5q0 -41 27.5 -68t80.5 -55q36 24 55 51.5t19 70.5z" />
    <glyph glyph-name="nine" unicode="9" horiz-adv-x="476" 
d="M331 328h-2q-54 -64 -135 -64q-83 0 -127.5 58t-44.5 164q0 113 56.5 177t150.5 64q216 0 216 -331q0 -405 -234 -405q-129 0 -175 121l82 47q37 -70 93 -70q115 0 120 239zM330 440q0 192 -101 192q-45 0 -69.5 -37t-24.5 -104q0 -128 94 -128q32 0 60 21.5t41 55.5z
" />
    <glyph glyph-name="colon" unicode=":" horiz-adv-x="232" 
d="M168 0h-121v135h121v-135zM168 307h-121v135h121v-135z" />
    <glyph glyph-name="semicolon" unicode=";" horiz-adv-x="232" 
d="M102 -144h-69l56 144h-42v135h121v-129zM168 307h-121v135h121v-135z" />
    <glyph glyph-name="less" unicode="&#x3c;" horiz-adv-x="476" 
d="M404 76l-347 144v74l347 144v-66l-282 -115l282 -115v-66z" />
    <glyph glyph-name="equal" unicode="=" horiz-adv-x="476" 
d="M447 317h-418v59h418v-59zM447 138h-418v59h418v-59z" />
    <glyph glyph-name="greater" unicode="&#x3e;" horiz-adv-x="476" 
d="M420 220l-349 -144v66l283 115l-283 115v66l349 -144v-74z" />
    <glyph glyph-name="question" unicode="?" horiz-adv-x="374" 
d="M200 242h-82v45q0 41 17.5 81t38.5 66t38.5 62.5t17.5 72.5q0 30 -14.5 46.5t-40.5 16.5q-48 0 -68 -71l-99 18q28 148 175 148q81 0 121 -41.5t40 -111.5q0 -44 -22.5 -89.5t-49.5 -76.5t-49.5 -68t-22.5 -67v-31zM219 0h-121v135h121v-135z" />
    <glyph glyph-name="at" unicode="@" horiz-adv-x="632" 
d="M276 116q31 0 55.5 36.5t35.5 82.5t11 88q0 71 -50 71q-32 0 -55 -33.5t-32.5 -76.5t-9.5 -87q0 -81 45 -81zM495 -11l29 -58q-78 -52 -205 -52q-140 0 -212.5 87.5t-72.5 253.5q0 180 75 287.5t224 107.5q126 0 195.5 -75.5t69.5 -219.5q0 -116 -48 -191.5t-123 -75.5
q-59 0 -71 52h-2q-36 -52 -92 -52q-50 0 -73 42.5t-23 107.5q0 96 43.5 174.5t114.5 78.5q62 0 84 -57l15 40h51l-58 -257q-14 -68 20 -68q43 0 70.5 59.5t27.5 146.5q0 234 -201 234q-236 0 -236 -334q0 -135 57 -207.5t165 -72.5q107 0 176 49z" />
    <glyph glyph-name="A" unicode="A" horiz-adv-x="515" 
d="M502 0h-122l-38 184h-172l-37 -184h-120l163 718h159zM254 602l-63 -313h130l-64 313h-3z" />
    <glyph glyph-name="B" unicode="B" horiz-adv-x="536" 
d="M250 0h-187v718h178q124 0 181.5 -44t57.5 -143q0 -110 -93 -152v-2q110 -39 110 -171q0 -116 -65 -161t-182 -45zM179 420h66q115 0 115 101q0 91 -115 91h-66v-192zM179 106h78q63 0 91 24.5t28 82.5t-29 84t-89 26h-79v-217z" />
    <glyph glyph-name="C" unicode="C" horiz-adv-x="511" 
d="M372 245l111 -11q-17 -122 -70 -182.5t-150 -60.5q-124 0 -176 94t-52 277q0 81 12.5 145t38.5 114.5t71.5 78t107.5 27.5q99 0 148 -58.5t63 -173.5l-110 -10q-22 136 -99 136q-111 0 -111 -259q0 -147 25.5 -206.5t84.5 -59.5q83 0 106 149z" />
    <glyph glyph-name="D" unicode="D" horiz-adv-x="551" 
d="M226 0h-163v718h165q150 0 219.5 -82.5t69.5 -268.5q0 -183 -68.5 -275t-222.5 -92zM184 110h51q84 0 122.5 61.5t38.5 194.5t-38 187.5t-120 54.5h-54v-498z" />
    <glyph glyph-name="E" unicode="E" horiz-adv-x="466" 
d="M443 0h-380v718h367v-108h-248v-187h185v-104h-185v-211h261v-108z" />
    <glyph glyph-name="F" unicode="F" horiz-adv-x="449" 
d="M182 0h-119v718h373v-108h-254v-187h189v-104h-189v-319z" />
    <glyph glyph-name="G" unicode="G" horiz-adv-x="537" 
d="M486 0h-96v58h-2q-52 -67 -143 -67q-106 0 -158 87.5t-52 281.5q0 111 22.5 190.5t76.5 128t137 48.5q100 0 149 -59.5t64 -170.5l-110 -10q-23 133 -103 133q-58 0 -86.5 -61.5t-28.5 -198.5q0 -143 26.5 -204.5t90.5 -61.5q50 0 77 36t27 95q0 24 -1 36h-105v96h215
v-357z" />
    <glyph glyph-name="H" unicode="H" horiz-adv-x="567" 
d="M503 0h-117v318h-204v-318h-119v718h119v-293h204v293h117v-718z" />
    <glyph glyph-name="I" unicode="I" horiz-adv-x="245" 
d="M182 0h-119v718h119v-718z" />
    <glyph glyph-name="J" unicode="J" horiz-adv-x="395" 
d="M332 199q0 -208 -174 -208q-58 0 -96.5 25t-67.5 81l90 55q25 -53 69 -53q32 0 46 22t14 68v529h119v-519z" />
    <glyph glyph-name="K" unicode="K" horiz-adv-x="509" 
d="M515 0h-126l-136 338l-73 -112v-226h-117v718h117v-312h2l188 312h125l-161 -262z" />
    <glyph glyph-name="L" unicode="L" horiz-adv-x="430" 
d="M422 0h-359v718h119v-610h240v-108z" />
    <glyph glyph-name="M" unicode="M" horiz-adv-x="685" 
d="M622 0h-106v528h-2l-129 -528h-84l-132 528h-2v-528h-104v718h161l117 -482h2l122 482h157v-718z" />
    <glyph glyph-name="N" unicode="N" horiz-adv-x="569" 
d="M507 0h-107l-229 496h-2v-496h-106v718h137l197 -436h2v436h108v-718z" />
    <glyph glyph-name="O" unicode="O" horiz-adv-x="544" 
d="M272 -9q-237 0 -237 368q0 183 57 275.5t180 92.5t180.5 -92.5t57.5 -275.5q0 -368 -238 -368zM272 93q59 0 88 62t29 204q0 138 -29 201.5t-88 63.5t-87.5 -63.5t-28.5 -201.5q0 -141 29 -203.5t87 -62.5z" />
    <glyph glyph-name="P" unicode="P" horiz-adv-x="510" 
d="M182 0h-119v718h184q120 0 179.5 -52t59.5 -162q0 -108 -61 -163.5t-178 -55.5h-65v-285zM182 390h70q49 0 80.5 26.5t31.5 87.5q0 106 -110 106h-72v-220z" />
    <glyph glyph-name="Q" unicode="Q" horiz-adv-x="544" 
d="M272 -9q-237 0 -237 368q0 183 57 275.5t180 92.5t180.5 -92.5t57.5 -275.5q0 -182 -59 -275q27 -41 75 -47v-109q-96 3 -145 88q-48 -25 -109 -25zM272 92q41 0 66 28q-27 55 -61 59v109q63 -6 102 -66q10 51 10 137q0 138 -29 201.5t-88 63.5t-87.5 -63.5t-28.5 -201.5
q0 -142 29 -204.5t87 -62.5z" />
    <glyph glyph-name="R" unicode="R" horiz-adv-x="526" 
d="M505 0h-129l-103 296h-91v-296h-119v718h190q117 0 172.5 -47.5t55.5 -151.5q0 -129 -101 -175zM182 397h68q110 0 110 111q0 36 -9 59t-27 32.5t-34 12.5t-41 3h-67v-218z" />
    <glyph glyph-name="S" unicode="S" horiz-adv-x="473" 
d="M430 548l-103 -20q-12 49 -34.5 74t-62.5 25q-38 0 -59.5 -20t-21.5 -54q0 -27 12.5 -49.5t33.5 -38t47 -32.5t54 -31.5t54 -35.5t47 -44.5t33.5 -58.5t12.5 -77q0 -93 -56.5 -144t-153.5 -51q-94 0 -143.5 46t-67.5 145l110 19q11 -57 35 -83.5t70 -26.5q41 0 66 22.5
t25 63.5q0 43 -30 76t-72.5 57t-85.5 51.5t-73 74t-30 110.5q0 83 51.5 132t140.5 49q168 0 201 -179z" />
    <glyph glyph-name="T" unicode="T" horiz-adv-x="444" 
d="M281 0h-118v610h-148v108h414v-108h-148v-610z" />
    <glyph glyph-name="U" unicode="U" horiz-adv-x="557" 
d="M381 213v505h117v-489q0 -118 -54 -177.5t-169 -59.5q-113 0 -164.5 59t-51.5 178v489h119v-505q0 -62 24 -90.5t75 -28.5q104 0 104 119z" />
    <glyph glyph-name="V" unicode="V" horiz-adv-x="485" 
d="M310 0h-133l-173 718h126l111 -526h2l116 526h126z" />
    <glyph glyph-name="W" unicode="W" horiz-adv-x="703" 
d="M554 0h-119l-82 489h-2l-78 -489h-120l-144 718h119l84 -492h2l82 492h117l81 -491h2l84 491h117z" />
    <glyph glyph-name="X" unicode="X" horiz-adv-x="480" 
d="M480 0h-129l-111 258h-2l-112 -258h-126l167 371l-155 347h130l98 -232h2l103 232h126l-158 -346z" />
    <glyph glyph-name="Y" unicode="Y" horiz-adv-x="467" 
d="M293 0h-119v290l-177 428h126l109 -292h2l115 292h124l-180 -428v-290z" />
    <glyph glyph-name="Z" unicode="Z" horiz-adv-x="466" 
d="M437 0h-414v108l271 502h-251v108h392v-106l-277 -504h279v-108z" />
    <glyph glyph-name="bracketleft" unicode="[" horiz-adv-x="288" 
d="M244 -44h-183v762h183v-55h-104v-652h104v-55z" />
    <glyph glyph-name="backslash" unicode="\" horiz-adv-x="257" 
d="M262 -53h-65l-206 780h65z" />
    <glyph glyph-name="bracketright" unicode="]" horiz-adv-x="288" 
d="M227 -44h-183v55h104v652h-104v55h183v-762z" />
    <glyph glyph-name="asciicircum" unicode="^" horiz-adv-x="461" 
d="M413 378h-68l-115 273l-114 -273h-68l145 340h76z" />
    <glyph glyph-name="underscore" unicode="_" horiz-adv-x="469" 
d="M474 -128h-479v55h479v-55z" />
    <glyph glyph-name="grave" unicode="`" horiz-adv-x="365" 
d="M280 576h-79l-118 142h120z" />
    <glyph glyph-name="a" unicode="a" horiz-adv-x="429" 
d="M388 0h-101l-6 55q-62 -64 -141 -64q-55 0 -86 36t-31 101q0 89 66 137q45 35 187 77q5 52 -9 76.5t-53 24.5q-61 0 -84 -72l-86 21q38 138 176 138q84 0 122 -40t38 -124v-268zM273 130v137q-82 -23 -112 -48q-29 -23 -29 -75q0 -64 51 -64q53 0 90 50z" />
    <glyph glyph-name="b" unicode="b" horiz-adv-x="463" 
d="M136 0h-83v718h106v-249q49 57 114 57q160 0 160 -269q0 -266 -156 -266q-70 0 -126 68zM159 385v-247q12 -21 34.5 -34.5t45.5 -13.5q84 0 84 169q0 170 -87 170q-46 0 -77 -44z" />
    <glyph glyph-name="c" unicode="c" horiz-adv-x="422" 
d="M306 178l93 -20q-20 -87 -62.5 -127t-119.5 -40q-97 0 -142 67.5t-45 200.5q0 125 45.5 198t145.5 73q77 0 118.5 -40t55.5 -123l-95 -15q-11 45 -28.5 66.5t-48.5 21.5q-42 0 -63.5 -48t-21.5 -133q0 -97 20.5 -137.5t63.5 -40.5q33 0 52.5 22.5t31.5 74.5z" />
    <glyph glyph-name="d" unicode="d" horiz-adv-x="463" 
d="M410 0h-84l-14 59q-58 -68 -127 -68q-155 0 -155 265q0 270 162 270q64 0 112 -55v247h106v-718zM304 138v248q-30 43 -76 43q-88 0 -88 -174q0 -165 85 -165q48 0 79 48z" />
    <glyph glyph-name="e" unicode="e" horiz-adv-x="430" 
d="M399 148q-40 -157 -183 -157q-95 0 -140.5 65.5t-45.5 206.5q0 127 48.5 197t139.5 70q95 0 138.5 -65.5t43.5 -174.5q0 -32 -1 -51h-267q3 -84 23.5 -122t65.5 -38q65 0 89 87zM218 445q-74 0 -85 -129h165q0 129 -80 129z" />
    <glyph glyph-name="f" unicode="f" horiz-adv-x="281" 
d="M189 0h-105v431h-71v89h71v59q0 76 32.5 112t103.5 36q32 0 59 -5v-90q-26 4 -37 4q-53 0 -53 -52v-64h88v-89h-88v-431z" />
    <glyph glyph-name="g" unicode="g" horiz-adv-x="430" 
d="M376 344q0 -90 -43.5 -138.5t-128.5 -48.5q-34 0 -64 8q-22 -17 -22 -33q0 -18 31.5 -25t76 -10.5t89 -12t76 -39t31.5 -82.5q0 -70 -58.5 -107t-159.5 -37q-87 0 -140 25.5t-53 80.5q0 65 74 95v2q-56 13 -56 69q0 54 59 102q-55 48 -55 151q0 86 43.5 136t127.5 50
q79 0 123 -46q37 54 96 54v-99q-39 -2 -60 -14q13 -35 13 -81zM275 342q0 106 -71 106q-72 0 -72 -106q0 -57 17.5 -81.5t54.5 -24.5q36 0 53.5 24.5t17.5 81.5zM319 -52q0 21 -19.5 33.5t-48 17.5t-75.5 7q-70 -17 -70 -60q0 -26 28 -39.5t76 -13.5q49 0 79 14t30 41z" />
    <glyph glyph-name="h" unicode="h" horiz-adv-x="455" 
d="M406 0h-106v342q0 46 -11 66.5t-43 20.5q-43 0 -87 -50v-379h-106v718h106v-255q63 67 133 67q65 0 93 -47q21 -34 21 -129v-354z" />
    <glyph glyph-name="i" unicode="i" horiz-adv-x="213" 
d="M161 605h-110v118h110v-118zM159 0h-106v520h106v-520z" />
    <glyph glyph-name="j" unicode="j" horiz-adv-x="213" 
d="M164 -34q0 -75 -32 -111t-101 -36q-33 0 -58 4v94q19 -4 35 -4q49 0 49 51v556h107v-554zM166 605h-111v118h111v-118z" />
    <glyph glyph-name="k" unicode="k" horiz-adv-x="433" 
d="M433 0h-113l-103 247l-60 -80v-167h-104v718h104v-406h2l139 208h115l-123 -174z" />
    <glyph glyph-name="l" unicode="l" horiz-adv-x="213" 
d="M159 0h-106v718h106v-718z" />
    <glyph glyph-name="m" unicode="m" horiz-adv-x="678" 
d="M628 0h-105v353q0 76 -49 76q-40 0 -80 -49v-380h-106v349q0 42 -10.5 61t-36.5 19q-41 0 -82 -53v-376h-106v520h103v-61q62 71 131 71q74 0 96 -71q63 71 134 71q111 0 111 -160v-370z" />
    <glyph glyph-name="n" unicode="n" horiz-adv-x="454" 
d="M405 0h-105v349q0 42 -13 61t-41 19q-42 0 -87 -52v-377h-106v520h103v-62q64 72 136 72q67 0 92 -47q21 -33 21 -122v-361z" />
    <glyph glyph-name="o" unicode="o" horiz-adv-x="443" 
d="M222 -9q-192 0 -192 267q0 272 192 272q190 0 190 -272q0 -267 -190 -267zM222 78q43 0 61.5 43t18.5 137q0 93 -19 138.5t-61 45.5q-44 0 -63 -45.5t-19 -138.5q0 -94 19 -137t63 -43z" />
    <glyph glyph-name="p" unicode="p" horiz-adv-x="463" 
d="M159 -172h-106v692h103v-61q52 71 123 71q154 0 154 -266q0 -269 -162 -269q-65 0 -112 54v-221zM159 378v-244q32 -43 77 -43q87 0 87 174q0 165 -84 165q-48 0 -80 -52z" />
    <glyph glyph-name="q" unicode="q" horiz-adv-x="462" 
d="M410 -172h-106v223q-48 -56 -115 -56q-159 0 -159 268q0 267 155 267q70 0 127 -73l15 63h83v-692zM304 135v243q-31 52 -79 52q-85 0 -85 -168q0 -171 88 -171q45 0 76 44z" />
    <glyph glyph-name="r" unicode="r" horiz-adv-x="301" 
d="M159 0h-106v520h103v-86q27 49 55.5 72.5t67.5 23.5q3 0 17 -2v-109q-16 2 -21 2q-73 0 -116 -89v-332z" />
    <glyph glyph-name="s" unicode="s" horiz-adv-x="381" 
d="M345 405l-84 -23q-23 64 -76 64q-26 0 -41 -14t-15 -37q0 -26 23.5 -45.5t57.5 -35t67.5 -35t57 -55t23.5 -85.5q0 -71 -44.5 -109.5t-123.5 -38.5q-73 0 -113 32t-59 103l87 24q14 -40 33.5 -58t52.5 -18q30 0 47.5 15t17.5 41q0 30 -23.5 52t-56.5 38.5t-66 35
t-56.5 53t-23.5 81.5q0 63 41.5 101.5t112.5 38.5q68 0 106 -31t55 -94z" />
    <glyph glyph-name="t" unicode="t" horiz-adv-x="297" 
d="M278 99v-96q-42 -8 -82 -8q-65 0 -91.5 28.5t-26.5 102.5v305h-69v89h69v169h105v-169h95v-89h-95v-287q0 -52 45 -52q26 0 50 7z" />
    <glyph glyph-name="u" unicode="u" horiz-adv-x="454" 
d="M401 0h-103v62q-65 -71 -137 -71q-65 0 -91 46q-22 35 -22 122v361h108v-349q0 -43 12 -61.5t41 -18.5q41 0 85 52v377h107v-520z" />
    <glyph glyph-name="v" unicode="v" horiz-adv-x="391" 
d="M249 0h-111l-138 520h114l80 -361h2l82 361h114z" />
    <glyph glyph-name="w" unicode="w" horiz-adv-x="584" 
d="M459 0h-97l-68 326h-2l-71 -326h-97l-125 520h109l68 -332h2l66 332h99l66 -332h2l68 332h106z" />
    <glyph glyph-name="x" unicode="x" horiz-adv-x="393" 
d="M397 0h-115l-85 179h-2l-86 -179h-114l139 275l-130 245h116l76 -157h2l75 157h114l-127 -245z" />
    <glyph glyph-name="y" unicode="y" horiz-adv-x="395" 
d="M254 -2q-29 -104 -68 -141.5t-114 -37.5q-36 0 -59 4v92q19 -2 43 -2q38 0 58 18t33 64l5 19l-154 506h120l85 -351h2l80 351h112z" />
    <glyph glyph-name="z" unicode="z" horiz-adv-x="373" 
d="M352 0h-336v80l204 351h-185v89h311v-81l-204 -350h210v-89z" />
    <glyph glyph-name="braceleft" unicode="{" horiz-adv-x="288" 
d="M248 -44h-43q-60 0 -82.5 31.5t-22.5 106.5v155q0 43 -11.5 62t-36.5 19h-26v54h26q25 0 36.5 19t11.5 62v115q0 75 22.5 106.5t82.5 31.5h43v-55h-21q-25 0 -36 -18.5t-11 -61.5v-115q0 -86 -51 -110v-2q51 -25 51 -110v-155q0 -43 11 -61.5t36 -18.5h21v-55z" />
    <glyph glyph-name="bar" unicode="|" horiz-adv-x="209" 
d="M135 -53h-61v780h61v-780z" />
    <glyph glyph-name="braceright" unicode="}" horiz-adv-x="288" 
d="M184 94q0 -75 -22.5 -106.5t-82.5 -31.5h-42v55h21q26 0 36.5 18.5t10.5 61.5v155q0 86 51 110v2q-51 23 -51 110v115q0 43 -10.5 61.5t-36.5 18.5h-21v55h42q60 0 82.5 -31.5t22.5 -106.5v-115q0 -81 49 -81h25v-54h-25q-49 0 -49 -81v-155z" />
    <glyph glyph-name="asciitilde" unicode="~" horiz-adv-x="476" 
d="M377 327h64q-7 -65 -36 -101t-80 -36q-39 0 -94 30.5t-80 30.5q-43 0 -52 -66h-64q15 137 117 137q38 0 93 -29.5t80 -29.5q45 0 52 64z" />
    <glyph glyph-name="uni00A0" unicode="&#xa0;" horiz-adv-x="187" 
 />
    <glyph glyph-name="exclamdown" unicode="&#xa1;" horiz-adv-x="232" 
d="M191 -188h-134l27 475h79zM183 396h-120v134h120v-134z" />
    <glyph glyph-name="cent" unicode="&#xa2;" horiz-adv-x="476" 
d="M257 -124h-62v117q-161 16 -161 266q0 245 161 269v107h62v-107q119 -13 144 -161l-95 -15q-11 45 -28.5 66.5t-47.5 21.5q-42 0 -64 -48t-22 -133q0 -97 20 -137.5t63 -40.5q34 0 53.5 22.5t32.5 74.5l93 -20q-17 -77 -53 -117.5t-96 -48.5v-116z" />
    <glyph glyph-name="sterling" unicode="&#xa3;" horiz-adv-x="476" 
d="M27 -10v110q90 32 90 147q0 27 -9 81h-81v71h66q-20 102 -20 143q0 86 47.5 135.5t131.5 49.5t131.5 -46.5t59.5 -151.5l-99 -12q-9 55 -29.5 82.5t-58.5 27.5q-33 0 -52 -21.5t-19 -62.5q0 -51 19 -144h117v-71h-104q8 -45 8 -85q0 -58 -21 -108q39 -37 78 -37
q63 0 78 99l100 -12q-14 -105 -53.5 -149.5t-112.5 -44.5q-80 0 -147 64q-47 -44 -120 -65z" />
    <glyph glyph-name="currency" unicode="&#xa4;" horiz-adv-x="476" 
d="M238 176q36 0 56.5 22t20.5 58t-20.5 59t-56.5 23t-56.5 -23t-20.5 -59t20.5 -58t56.5 -22zM368 82l-52 51q-33 -22 -78 -22q-44 0 -79 22l-50 -51l-45 45l51 52q-21 33 -21 77q0 42 21 78l-51 53l45 45l50 -51q37 22 79 22t78 -22l52 51l44 -45l-51 -53q21 -36 21 -78
q0 -41 -21 -77l51 -52z" />
    <glyph glyph-name="yen" unicode="&#xa5;" horiz-adv-x="476" 
d="M432 299h-135l-3 -9v-60h138v-71h-138v-159h-114v159h-141v71h141v61l-4 8h-137v70h109l-142 349h117l113 -311h2l117 311h117l-146 -349h106v-70z" />
    <glyph glyph-name="brokenbar" unicode="&#xa6;" horiz-adv-x="209" 
d="M135 427h-61v300h61v-300zM135 -53h-61v320h61v-320z" />
    <glyph glyph-name="section" unicode="&#xa7;" horiz-adv-x="395" 
d="M377 262q0 -45 -23 -74t-61 -36q46 -63 46 -111q0 -55 -35 -88.5t-97 -33.5q-119 0 -161 117l82 30q29 -62 75 -62q19 0 31 10.5t12 28.5q0 20 -23 50.5t-56 64.5t-66 70.5t-56 78.5t-23 77q0 45 23 73.5t61 34.5q-47 62 -47 113q0 55 34.5 88.5t95.5 33.5
q114 0 155 -117l-82 -30q-26 62 -70 62q-18 0 -29 -10.5t-11 -28.5q0 -20 23 -50.5t56 -64.5t66.5 -70.5t56.5 -78.5t23 -77zM112 388q0 -8 3 -17t6.5 -17t12 -19t14.5 -19t18 -21.5t18.5 -20.5t21.5 -22.5t21 -22.5q13 -7 26 -7q15 0 25.5 10t10.5 26q0 7 -2 14.5
t-6.5 15.5t-8.5 15.5t-12.5 17.5t-14.5 17.5t-16.5 19t-17 18.5t-19 20t-19.5 20q-13 7 -25 7q-15 0 -25.5 -10t-10.5 -25z" />
    <glyph glyph-name="dieresis" unicode="&#xa8;" horiz-adv-x="365" 
d="M156 586h-101v106h101v-106zM309 586h-100v106h100v-106z" />
    <glyph glyph-name="copyright" unicode="&#xa9;" horiz-adv-x="649" 
d="M326 48q110 0 170 86t60 225q0 136 -60 223.5t-170 87.5q-111 0 -172 -87.5t-61 -223.5q0 -139 60.5 -225t172.5 -86zM326 -9q-139 0 -215 104t-76 264q0 162 75.5 265t215.5 103q139 0 214 -103t75 -265q0 -160 -75.5 -264t-213.5 -104zM384 298l70 -7
q-20 -143 -130 -143q-73 0 -104 55t-31 161q0 97 32.5 154.5t103.5 57.5q59 0 88 -34t38 -101l-70 -7q-10 75 -54 75q-63 0 -63 -145q0 -85 14.5 -117.5t47.5 -32.5q46 0 58 84z" />
    <glyph glyph-name="ordfeminine" unicode="&#xaa;" horiz-adv-x="290" 
d="M266 380h-80l-5 36q-41 -41 -92 -41q-36 0 -56.5 23t-20.5 65q0 62 43 92q28 19 124 48q6 57 -37 57q-36 0 -50 -41l-67 16q27 90 124 90q56 0 83.5 -26t27.5 -84v-163zM177 466v82q-41 -10 -63 -24q-18 -14 -18 -45q0 -38 31 -38q29 0 50 25zM264 248h-247v55h247v-55z
" />
    <glyph glyph-name="guillemotleft" unicode="&#xab;" horiz-adv-x="473" 
d="M236 100h-101l-95 163l95 160h101l-96 -161zM423 100h-101l-95 163l94 160h102l-96 -161z" />
    <glyph glyph-name="logicalnot" unicode="&#xac;" horiz-adv-x="476" 
d="M448 112h-61v182h-358v58h419v-240z" />
    <glyph glyph-name="uni00AD" unicode="&#xad;" horiz-adv-x="293" 
d="M263 213h-233v99h233v-99z" />
    <glyph glyph-name="registered" unicode="&#xae;" horiz-adv-x="431" 
d="M216 293q70 0 108.5 54t38.5 141q0 84 -38.5 139t-108.5 55q-71 0 -109 -55t-38 -139q0 -87 38 -141t109 -54zM216 248q-91 0 -142.5 68.5t-51.5 171.5q0 105 51 172t143 67t142.5 -67t50.5 -172q0 -104 -51 -172t-142 -68zM313 357h-57l-36 106h-30v-106h-51v272h75
q90 0 90 -78q0 -47 -37 -68zM190 507h23q38 0 38 40q0 17 -6 26t-13.5 10.5t-19.5 1.5h-22v-78z" />
    <glyph glyph-name="macron" unicode="&#xaf;" horiz-adv-x="365" 
d="M321 605h-279v70h279v-70z" />
    <glyph glyph-name="degree" unicode="&#xb0;" horiz-adv-x="331" 
d="M165 501q37 0 57 22.5t20 58.5q0 35 -20.5 58t-56.5 23t-56.5 -23t-20.5 -58q0 -36 20 -58.5t57 -22.5zM165 436q-64 0 -104 42.5t-40 103.5q0 63 40 104t104 41t104 -41.5t40 -103.5q0 -61 -40.5 -103.5t-103.5 -42.5z" />
    <glyph glyph-name="plusminus" unicode="&#xb1;" horiz-adv-x="476" 
d="M447 265h-178v-142h-61v142h-179v58h179v131h61v-131h178v-58zM447 15h-418v59h418v-59z" />
    <glyph glyph-name="twosuperior" unicode="&#xb2;" 
d="M298 410h-276v44q0 55 66 129q13 14 39.5 40t41 41.5t27 39.5t12.5 48q0 55 -48 55q-45 0 -56 -70l-79 8q12 138 141 138q64 0 97.5 -33.5t33.5 -93.5q0 -34 -16 -67.5t-33 -52.5t-47 -48.5t-40 -40.5q-31 -39 -33 -58h170v-79z" />
    <glyph glyph-name="threesuperior" unicode="&#xb3;" 
d="M301 544q0 -65 -41 -102.5t-107 -37.5q-59 0 -95 27t-51 88l80 22q17 -62 64 -62q28 0 44.5 18.5t16.5 53.5q0 71 -82 71h-28v74h28q73 0 73 58q0 55 -51 55q-42 0 -59 -45l-73 23q37 96 140 96q64 0 98.5 -32t34.5 -86q0 -78 -74 -103v-2q82 -22 82 -116z" />
    <glyph glyph-name="acute" unicode="&#xb4;" horiz-adv-x="365" 
d="M163 576h-80l78 142h119z" />
    <glyph glyph-name="mu" unicode="&#xb5;" horiz-adv-x="478" 
d="M453 96v-93q-24 -8 -55 -8q-40 0 -60.5 16.5t-26.5 54.5q-54 -75 -120 -75q-21 0 -35 9v-172h-105v692h107v-350q0 -44 12.5 -62.5t40.5 -18.5q42 0 86 52v379h107v-395q0 -33 25 -33q8 0 24 4z" />
    <glyph glyph-name="paragraph" unicode="&#xb6;" horiz-adv-x="441" 
d="M366 -53h-60v714h-58v-714h-60v405q-71 0 -117.5 47t-46.5 139q0 180 190 180h199v-57h-47v-714z" />
    <glyph glyph-name="periodcentered" unicode="&#xb7;" horiz-adv-x="232" 
d="M177 196h-122v134h122v-134z" />
    <glyph glyph-name="cedilla" unicode="&#xb8;" horiz-adv-x="365" 
d="M98 -174v51q27 -7 51 -7q55 0 55 26q0 21 -35 21q-15 0 -30 -5l-10 24l10 80l47 -5l-8 -53q9 2 25 2q69 0 69 -62q0 -40 -32 -59t-84 -19q-32 0 -58 6z" />
    <glyph glyph-name="onesuperior" unicode="&#xb9;" 
d="M283 410h-224v75h67v307l-79 -13v65l103 33h66v-392h67v-75z" />
    <glyph glyph-name="ordmasculine" unicode="&#xba;" horiz-adv-x="302" 
d="M151 374q-133 0 -133 174q0 177 133 177q132 0 132 -177q0 -174 -132 -174zM151 441q25 0 35.5 25.5t10.5 81.5q0 110 -46 110q-47 0 -47 -110q0 -107 47 -107zM273 248h-245v55h245v-55z" />
    <glyph glyph-name="guillemotright" unicode="&#xbb;" horiz-adv-x="473" 
d="M337 100h-101l97 162l-97 161h102l94 -160zM151 100h-101l96 162l-96 161h102l94 -160z" />
    <glyph glyph-name="onequarter" unicode="&#xbc;" horiz-adv-x="773" 
d="M246 -23h-68l380 762h69zM706 0h-86v107h-165v78l142 282h109v-286h55v-74h-55v-107zM620 181v171h-1l-89 -171h90zM283 251h-224v75h67v307l-79 -13v65l103 33h66v-392h67v-75z" />
    <glyph glyph-name="onehalf" unicode="&#xbd;" horiz-adv-x="803" 
d="M775 0h-276v44q0 55 66 129q13 14 39.5 40t41 41.5t27 39.5t12.5 48q0 55 -48 55q-45 0 -56 -70l-79 8q12 138 141 138q63 0 97 -33.5t34 -93.5q0 -34 -16 -67.5t-33 -52.5t-47 -48.5t-40 -40.5q-31 -39 -33 -58h170v-79zM246 -23h-68l380 762h69zM283 251h-224v75h67
v307l-79 -13v65l103 33h66v-392h67v-75z" />
    <glyph glyph-name="threequarters" unicode="&#xbe;" horiz-adv-x="773" 
d="M301 385q0 -65 -41 -102.5t-107 -37.5q-59 0 -95 27t-51 88l80 22q17 -62 64 -62q28 0 44.5 18.5t16.5 53.5q0 71 -82 71h-28v74h28q73 0 73 58q0 55 -51 55q-42 0 -59 -45l-73 23q37 96 140 96q64 0 98.5 -32t34.5 -86q0 -78 -74 -103v-2q82 -22 82 -116zM246 -23h-68
l380 762h69zM706 0h-86v107h-165v78l142 282h109v-286h55v-74h-55v-107zM620 181v171h-1l-89 -171h90z" />
    <glyph glyph-name="questiondown" unicode="&#xbf;" horiz-adv-x="374" 
d="M268 -27l99 -18q-30 -149 -175 -149q-81 0 -120.5 42t-39.5 112q0 43 22.5 88t49 75.5t49 67.5t22.5 66v30h84v-44q0 -41 -18 -80t-39 -65t-39 -62t-18 -72q0 -30 14.5 -46.5t40.5 -16.5t41.5 17t26.5 55zM279 396h-122v134h122v-134z" />
    <glyph glyph-name="Agrave" unicode="&#xc0;" horiz-adv-x="515" 
d="M502 0h-122l-38 184h-172l-37 -184h-120l163 718h159zM254 602l-63 -313h130l-64 313h-3zM296 769h-79l-118 142h120z" />
    <glyph glyph-name="Aacute" unicode="&#xc1;" horiz-adv-x="515" 
d="M502 0h-122l-38 184h-172l-37 -184h-120l163 718h159zM254 602l-63 -313h130l-64 313h-3zM294 769h-80l78 142h119z" />
    <glyph glyph-name="Acircumflex" unicode="&#xc2;" horiz-adv-x="515" 
d="M502 0h-122l-38 184h-172l-37 -184h-120l163 718h159zM254 602l-63 -313h130l-64 313h-3zM398 769h-78l-65 91l-65 -91h-78l80 142h127z" />
    <glyph glyph-name="Atilde" unicode="&#xc3;" horiz-adv-x="515" 
d="M502 0h-122l-38 184h-172l-37 -184h-120l163 718h159zM254 602l-63 -313h130l-64 313h-3zM352 891h64q-15 -114 -96 -114q-30 0 -68 18.5t-55 18.5q-27 0 -34 -40h-64q13 113 96 113q29 0 66.5 -18t56.5 -18q27 0 34 40z" />
    <glyph glyph-name="Adieresis" unicode="&#xc4;" horiz-adv-x="515" 
d="M502 0h-122l-38 184h-172l-37 -184h-120l163 718h159zM254 602l-63 -313h130l-64 313h-3zM230 779h-101v106h101v-106zM383 779h-100v106h100v-106z" />
    <glyph glyph-name="Aring" unicode="&#xc5;" horiz-adv-x="515" 
d="M502 0h-122l-38 184h-172l-37 -184h-120l163 718h159zM254 602l-63 -313h130l-64 313h-3zM308 860q0 21 -14.5 36.5t-37.5 15.5q-22 0 -37 -15t-15 -36t15 -36.5t37 -15.5q23 0 37.5 15t14.5 36zM355 860q0 -42 -28 -70.5t-71 -28.5t-71 28.5t-28 70.5t28 71t71 29
t71 -29t28 -71z" />
    <glyph glyph-name="AE" unicode="&#xc6;" horiz-adv-x="746" 
d="M724 0h-370v184h-170l-68 -184h-121l278 718h439v-108h-239v-187h175v-104h-175v-211h251v-108zM342 613l-120 -324h132v324h-12z" />
    <glyph glyph-name="Ccedilla" unicode="&#xc7;" horiz-adv-x="511" 
d="M187 -174v51q27 -7 51 -7q55 0 55 26q0 21 -35 21q-15 0 -30 -5l-10 24l7 58q-103 14 -146.5 106.5t-43.5 261.5q0 81 12.5 145t38.5 114.5t71.5 78t107.5 27.5q99 0 148 -58.5t63 -173.5l-110 -10q-22 136 -99 136q-111 0 -111 -259q0 -147 25.5 -206.5t84.5 -59.5
q83 0 106 149l111 -11q-17 -119 -68 -179.5t-143 -63.5l-5 -33q9 2 25 2q69 0 69 -62q0 -40 -32 -59t-84 -19q-33 0 -58 6z" />
    <glyph glyph-name="Egrave" unicode="&#xc8;" horiz-adv-x="466" 
d="M296 769h-79l-118 142h120zM443 0h-380v718h367v-108h-248v-187h185v-104h-185v-211h261v-108z" />
    <glyph glyph-name="Eacute" unicode="&#xc9;" horiz-adv-x="466" 
d="M280 769h-80l78 142h119zM443 0h-380v718h367v-108h-248v-187h185v-104h-185v-211h261v-108z" />
    <glyph glyph-name="Ecircumflex" unicode="&#xca;" horiz-adv-x="466" 
d="M443 0h-380v718h367v-108h-248v-187h185v-104h-185v-211h261v-108zM392 769h-78l-65 91l-65 -91h-78l80 142h127z" />
    <glyph glyph-name="Edieresis" unicode="&#xcb;" horiz-adv-x="466" 
d="M223 779h-101v106h101v-106zM376 779h-100v106h100v-106zM443 0h-380v718h367v-108h-248v-187h185v-104h-185v-211h261v-108z" />
    <glyph glyph-name="Igrave" unicode="&#xcc;" horiz-adv-x="245" 
d="M182 0h-119v718h119v-718zM166 769h-79l-118 142h120z" />
    <glyph glyph-name="Iacute" unicode="&#xcd;" horiz-adv-x="245" 
d="M182 0h-119v718h119v-718zM163 769h-80l78 142h119z" />
    <glyph glyph-name="Icircumflex" unicode="&#xce;" horiz-adv-x="245" 
d="M182 0h-119v718h119v-718zM265 769h-78l-65 91l-65 -91h-78l80 142h127z" />
    <glyph glyph-name="Idieresis" unicode="&#xcf;" horiz-adv-x="245" 
d="M182 0h-119v718h119v-718zM96 779h-101v106h101v-106zM249 779h-100v106h100v-106z" />
    <glyph glyph-name="Eth" unicode="&#xd0;" horiz-adv-x="551" 
d="M517 367q0 -183 -68 -275t-220 -92h-166v332h-51v80h51v306h168q147 0 216.5 -82.5t69.5 -268.5zM280 332h-96v-222h47q88 0 126.5 61t38.5 195q0 133 -38 187.5t-120 54.5h-54v-196h96v-80z" />
    <glyph glyph-name="Ntilde" unicode="&#xd1;" horiz-adv-x="569" 
d="M388 891h64q-15 -114 -96 -114q-30 0 -67.5 18.5t-55.5 18.5q-27 0 -34 -40h-64q13 113 96 113q29 0 66.5 -18t56.5 -18q27 0 34 40zM507 0h-107l-229 496h-2v-496h-106v718h137l197 -436h2v436h108v-718z" />
    <glyph glyph-name="Ograve" unicode="&#xd2;" horiz-adv-x="544" 
d="M315 769h-79l-118 142h120zM272 -9q-237 0 -237 368q0 183 57 275.5t180 92.5t180.5 -92.5t57.5 -275.5q0 -368 -238 -368zM272 93q59 0 88 62t29 204q0 138 -29 201.5t-88 63.5t-87.5 -63.5t-28.5 -201.5q0 -141 29 -203.5t87 -62.5z" />
    <glyph glyph-name="Oacute" unicode="&#xd3;" horiz-adv-x="544" 
d="M312 769h-80l78 142h119zM272 -9q-237 0 -237 368q0 183 57 275.5t180 92.5t180.5 -92.5t57.5 -275.5q0 -368 -238 -368zM272 93q59 0 88 62t29 204q0 138 -29 201.5t-88 63.5t-87.5 -63.5t-28.5 -201.5q0 -141 29 -203.5t87 -62.5z" />
    <glyph glyph-name="Ocircumflex" unicode="&#xd4;" horiz-adv-x="544" 
d="M272 -9q-237 0 -237 368q0 183 57 275.5t180 92.5t180.5 -92.5t57.5 -275.5q0 -368 -238 -368zM272 93q59 0 88 62t29 204q0 138 -29 201.5t-88 63.5t-87.5 -63.5t-28.5 -201.5q0 -141 29 -203.5t87 -62.5zM415 769h-78l-65 91l-65 -91h-78l80 142h127z" />
    <glyph glyph-name="Otilde" unicode="&#xd5;" horiz-adv-x="544" 
d="M373 891h64q-15 -114 -96 -114q-29 0 -67 18.5t-56 18.5q-27 0 -34 -40h-64q13 113 96 113q29 0 66.5 -18t56.5 -18q27 0 34 40zM272 -9q-237 0 -237 368q0 183 57 275.5t180 92.5t180.5 -92.5t57.5 -275.5q0 -368 -238 -368zM272 93q59 0 88 62t29 204q0 138 -29 201.5
t-88 63.5t-87.5 -63.5t-28.5 -201.5q0 -141 29 -203.5t87 -62.5z" />
    <glyph glyph-name="Odieresis" unicode="&#xd6;" horiz-adv-x="544" 
d="M246 779h-101v106h101v-106zM399 779h-100v106h100v-106zM272 -9q-237 0 -237 368q0 183 57 275.5t180 92.5t180.5 -92.5t57.5 -275.5q0 -368 -238 -368zM272 93q59 0 88 62t29 204q0 138 -29 201.5t-88 63.5t-87.5 -63.5t-28.5 -201.5q0 -141 29 -203.5t87 -62.5z" />
    <glyph glyph-name="multiply" unicode="&#xd7;" horiz-adv-x="476" 
d="M370 82l-132 133l-132 -133l-42 43l132 131l-132 133l42 42l132 -132l132 132l42 -42l-131 -133l131 -131z" />
    <glyph glyph-name="Oslash" unicode="&#xd8;" horiz-adv-x="544" 
d="M146 -67h-86l51 129q-76 91 -76 297q0 368 237 368q52 0 96 -19l31 77h87l-51 -128q75 -91 75 -298q0 -179 -59.5 -273.5t-178.5 -94.5q-52 0 -95 19zM147 359q0 -98 16 -162h2l164 412q-25 17 -57 17q-125 0 -125 -267zM272 92q62 0 93.5 63t31.5 204q0 94 -16 158h-2
l-163 -409q23 -16 56 -16z" />
    <glyph glyph-name="Ugrave" unicode="&#xd9;" horiz-adv-x="557" 
d="M322 769h-79l-118 142h120zM381 213v505h117v-489q0 -118 -54 -177.5t-169 -59.5q-113 0 -164.5 59t-51.5 178v489h119v-505q0 -62 24 -90.5t75 -28.5q104 0 104 119z" />
    <glyph glyph-name="Uacute" unicode="&#xda;" horiz-adv-x="557" 
d="M317 769h-80l78 142h119zM381 213v505h117v-489q0 -118 -54 -177.5t-169 -59.5q-113 0 -164.5 59t-51.5 178v489h119v-505q0 -62 24 -90.5t75 -28.5q104 0 104 119z" />
    <glyph glyph-name="Ucircumflex" unicode="&#xdb;" horiz-adv-x="557" 
d="M381 213v505h117v-489q0 -118 -54 -177.5t-169 -59.5q-113 0 -164.5 59t-51.5 178v489h119v-505q0 -62 24 -90.5t75 -28.5q104 0 104 119zM423 769h-78l-65 91l-65 -91h-78l80 142h127z" />
    <glyph glyph-name="Udieresis" unicode="&#xdc;" horiz-adv-x="557" 
d="M253 779h-101v106h101v-106zM406 779h-100v106h100v-106zM381 213v505h117v-489q0 -118 -54 -177.5t-169 -59.5q-113 0 -164.5 59t-51.5 178v489h119v-505q0 -62 24 -90.5t75 -28.5q104 0 104 119z" />
    <glyph glyph-name="Yacute" unicode="&#xdd;" horiz-adv-x="467" 
d="M293 0h-119v290l-177 428h126l109 -292h2l115 292h124l-180 -428v-290zM275 769h-80l78 142h119z" />
    <glyph glyph-name="Thorn" unicode="&#xde;" horiz-adv-x="510" 
d="M182 0h-119v718h119v-100h65q120 0 179.5 -52t59.5 -161q0 -108 -61 -164t-178 -56h-65v-185zM182 289h70q49 0 80.5 26.5t31.5 88.5q0 57 -27.5 81.5t-82.5 24.5h-72v-221z" />
    <glyph glyph-name="germandbls" unicode="&#xdf;" horiz-adv-x="471" 
d="M218 0v94q22 -3 37 -3q76 0 76 117q0 133 -113 136v91q86 7 86 105q0 45 -20 70t-55 25q-72 0 -72 -98v-537h-105v530q0 95 46.5 146t133.5 51q86 0 133 -46t47 -128q0 -116 -86 -158v-2q113 -41 113 -195q0 -98 -40 -150.5t-119 -52.5q-34 0 -62 5z" />
    <glyph glyph-name="agrave" unicode="&#xe0;" horiz-adv-x="429" 
d="M388 0h-101l-6 55q-62 -64 -141 -64q-55 0 -86 36t-31 101q0 89 66 137q45 35 187 77q5 52 -9 76.5t-53 24.5q-61 0 -84 -72l-86 21q38 138 176 138q84 0 122 -40t38 -124v-268zM273 130v137q-82 -23 -112 -48q-29 -23 -29 -75q0 -64 51 -64q53 0 90 50zM264 576h-79
l-118 142h120z" />
    <glyph glyph-name="aacute" unicode="&#xe1;" horiz-adv-x="429" 
d="M388 0h-101l-6 55q-62 -64 -141 -64q-55 0 -86 36t-31 101q0 89 66 137q45 35 187 77q5 52 -9 76.5t-53 24.5q-61 0 -84 -72l-86 21q38 138 176 138q84 0 122 -40t38 -124v-268zM273 130v137q-82 -23 -112 -48q-29 -23 -29 -75q0 -64 51 -64q53 0 90 50zM254 576h-80
l78 142h119z" />
    <glyph glyph-name="acircumflex" unicode="&#xe2;" horiz-adv-x="429" 
d="M388 0h-101l-6 55q-62 -64 -141 -64q-55 0 -86 36t-31 101q0 89 66 137q45 35 187 77q5 52 -9 76.5t-53 24.5q-61 0 -84 -72l-86 21q38 138 176 138q84 0 122 -40t38 -124v-268zM273 130v137q-82 -23 -112 -48q-29 -23 -29 -75q0 -64 51 -64q53 0 90 50zM361 576h-78
l-65 91l-65 -91h-78l80 142h127z" />
    <glyph glyph-name="atilde" unicode="&#xe3;" horiz-adv-x="429" 
d="M388 0h-101l-6 55q-62 -64 -141 -64q-55 0 -86 36t-31 101q0 89 66 137q45 35 187 77q5 52 -9 76.5t-53 24.5q-61 0 -84 -72l-86 21q38 138 176 138q84 0 122 -40t38 -124v-268zM273 130v137q-82 -23 -112 -48q-29 -23 -29 -75q0 -64 51 -64q53 0 90 50zM315 698h64
q-15 -114 -96 -114q-29 0 -67 18.5t-56 18.5q-27 0 -34 -40h-64q13 113 96 113q29 0 66.5 -18t56.5 -18q27 0 34 40z" />
    <glyph glyph-name="adieresis" unicode="&#xe4;" horiz-adv-x="429" 
d="M388 0h-101l-6 55q-62 -64 -141 -64q-55 0 -86 36t-31 101q0 89 66 137q45 35 187 77q5 52 -9 76.5t-53 24.5q-61 0 -84 -72l-86 21q38 138 176 138q84 0 122 -40t38 -124v-268zM273 130v137q-82 -23 -112 -48q-29 -23 -29 -75q0 -64 51 -64q53 0 90 50zM194 586h-101
v106h101v-106zM347 586h-100v106h100v-106z" />
    <glyph glyph-name="aring" unicode="&#xe5;" horiz-adv-x="429" 
d="M388 0h-101l-6 55q-62 -64 -141 -64q-55 0 -86 36t-31 101q0 89 66 137q45 35 187 77q5 52 -9 76.5t-53 24.5q-61 0 -84 -72l-86 21q38 138 176 138q84 0 122 -40t38 -124v-268zM273 130v137q-82 -23 -112 -48q-29 -23 -29 -75q0 -64 51 -64q53 0 90 50zM272 667
q0 21 -14.5 36.5t-37.5 15.5q-22 0 -37 -15t-15 -36t15 -36.5t37 -15.5q23 0 37.5 15t14.5 36zM319 667q0 -42 -28 -70.5t-71 -28.5t-71 28.5t-28 70.5t28 71t71 29t71 -29t28 -71z" />
    <glyph glyph-name="ae" unicode="&#xe6;" horiz-adv-x="657" 
d="M627 148q-40 -157 -178 -157q-104 0 -144 85q-71 -85 -162 -85q-58 0 -89 36t-31 101q0 89 66 137q51 40 179 77q5 53 -8.5 77t-52.5 24q-54 0 -77 -72l-86 21q38 138 166 138q87 0 120 -56q45 56 123 56q91 0 133 -66t42 -174q0 -13 -2 -51h-257q2 -84 21 -122t64 -38
q33 0 52 21.5t32 65.5zM265 130v137q-70 -19 -104 -46q-29 -26 -29 -77q0 -64 52 -64q44 0 81 50zM370 316h155q0 129 -73 129q-74 0 -82 -129z" />
    <glyph glyph-name="ccedilla" unicode="&#xe7;" horiz-adv-x="422" 
d="M143 -174v51q27 -7 51 -7q55 0 55 26q0 21 -35 21q-15 0 -30 -5l-10 24l7 58q-151 21 -151 265q0 125 45.5 198t145.5 73q77 0 118.5 -40t55.5 -123l-95 -15q-11 45 -28.5 66.5t-48.5 21.5q-42 0 -63.5 -48t-21.5 -133q0 -97 20.5 -137.5t63.5 -40.5q33 0 52.5 22.5
t31.5 74.5l93 -20q-19 -84 -59.5 -124t-111.5 -43l-5 -33q9 2 25 2q69 0 69 -62q0 -40 -32 -59t-84 -19q-33 0 -58 6z" />
    <glyph glyph-name="egrave" unicode="&#xe8;" horiz-adv-x="430" 
d="M399 148q-40 -157 -183 -157q-95 0 -140.5 65.5t-45.5 206.5q0 127 48.5 197t139.5 70q95 0 138.5 -65.5t43.5 -174.5q0 -32 -1 -51h-267q3 -84 23.5 -122t65.5 -38q65 0 89 87zM218 445q-74 0 -85 -129h165q0 129 -80 129zM265 576h-79l-118 142h120z" />
    <glyph glyph-name="eacute" unicode="&#xe9;" horiz-adv-x="430" 
d="M257 576h-80l78 142h119zM399 148q-40 -157 -183 -157q-95 0 -140.5 65.5t-45.5 206.5q0 127 48.5 197t139.5 70q95 0 138.5 -65.5t43.5 -174.5q0 -32 -1 -51h-267q3 -84 23.5 -122t65.5 -38q65 0 89 87zM218 445q-74 0 -85 -129h165q0 129 -80 129z" />
    <glyph glyph-name="ecircumflex" unicode="&#xea;" horiz-adv-x="430" 
d="M366 576h-78l-65 91l-65 -91h-78l80 142h127zM399 148q-40 -157 -183 -157q-95 0 -140.5 65.5t-45.5 206.5q0 127 48.5 197t139.5 70q95 0 138.5 -65.5t43.5 -174.5q0 -32 -1 -51h-267q3 -84 23.5 -122t65.5 -38q65 0 89 87zM218 445q-74 0 -85 -129h165q0 129 -80 129z
" />
    <glyph glyph-name="edieresis" unicode="&#xeb;" horiz-adv-x="430" 
d="M194 586h-101v106h101v-106zM347 586h-100v106h100v-106zM399 148q-40 -157 -183 -157q-95 0 -140.5 65.5t-45.5 206.5q0 127 48.5 197t139.5 70q95 0 138.5 -65.5t43.5 -174.5q0 -32 -1 -51h-267q3 -84 23.5 -122t65.5 -38q65 0 89 87zM218 445q-74 0 -85 -129h165
q0 129 -80 129z" />
    <glyph glyph-name="igrave" unicode="&#xec;" horiz-adv-x="213" 
d="M159 0h-106v520h106v-520zM148 576h-79l-118 142h120z" />
    <glyph glyph-name="iacute" unicode="&#xed;" horiz-adv-x="213" 
d="M147 576h-80l78 142h119zM159 0h-106v520h106v-520z" />
    <glyph glyph-name="icircumflex" unicode="&#xee;" horiz-adv-x="213" 
d="M249 576h-78l-65 91l-65 -91h-78l80 142h127zM159 0h-106v520h106v-520z" />
    <glyph glyph-name="idieresis" unicode="&#xef;" horiz-adv-x="213" 
d="M80 586h-101v106h101v-106zM233 586h-100v106h100v-106zM159 0h-106v520h106v-520z" />
    <glyph glyph-name="eth" unicode="&#xf0;" horiz-adv-x="464" 
d="M299 479l2 1q-13 45 -39 95l-96 -38l-25 66l84 33l-27 38l80 59q26 -33 43 -59l74 29l23 -66l-60 -24q74 -141 74 -313q0 -309 -212 -309q-91 0 -140 63.5t-49 190.5q0 126 48.5 193.5t128.5 67.5q54 0 91 -27zM321 365q-35 55 -87 55q-93 0 -93 -173q0 -169 82 -169
q101 0 101 218q0 38 -3 69z" />
    <glyph glyph-name="ntilde" unicode="&#xf1;" horiz-adv-x="454" 
d="M405 0h-105v349q0 42 -13 61t-41 19q-42 0 -87 -52v-377h-106v520h103v-62q64 72 136 72q67 0 92 -47q21 -33 21 -122v-361zM326 698h64q-15 -114 -96 -114q-30 0 -68 18.5t-55 18.5q-27 0 -34 -40h-64q13 113 96 113q29 0 66.5 -18t56.5 -18q27 0 34 40z" />
    <glyph glyph-name="ograve" unicode="&#xf2;" horiz-adv-x="443" 
d="M222 -9q-192 0 -192 267q0 272 192 272q190 0 190 -272q0 -267 -190 -267zM222 78q43 0 61.5 43t18.5 137q0 93 -19 138.5t-61 45.5q-44 0 -63 -45.5t-19 -138.5q0 -94 19 -137t63 -43zM263 576h-79l-118 142h120z" />
    <glyph glyph-name="oacute" unicode="&#xf3;" horiz-adv-x="443" 
d="M262 576h-80l78 142h119zM222 -9q-192 0 -192 267q0 272 192 272q190 0 190 -272q0 -267 -190 -267zM222 78q43 0 61.5 43t18.5 137q0 93 -19 138.5t-61 45.5q-44 0 -63 -45.5t-19 -138.5q0 -94 19 -137t63 -43z" />
    <glyph glyph-name="ocircumflex" unicode="&#xf4;" horiz-adv-x="443" 
d="M364 576h-78l-65 91l-65 -91h-78l80 142h127zM222 -9q-192 0 -192 267q0 272 192 272q190 0 190 -272q0 -267 -190 -267zM222 78q43 0 61.5 43t18.5 137q0 93 -19 138.5t-61 45.5q-44 0 -63 -45.5t-19 -138.5q0 -94 19 -137t63 -43z" />
    <glyph glyph-name="otilde" unicode="&#xf5;" horiz-adv-x="443" 
d="M222 -9q-192 0 -192 267q0 272 192 272q190 0 190 -272q0 -267 -190 -267zM222 78q43 0 61.5 43t18.5 137q0 93 -19 138.5t-61 45.5q-44 0 -63 -45.5t-19 -138.5q0 -94 19 -137t63 -43zM319 698h64q-15 -114 -96 -114q-29 0 -67 18.5t-56 18.5q-27 0 -34 -40h-64
q13 113 96 113q29 0 66.5 -18t56.5 -18q27 0 34 40z" />
    <glyph glyph-name="odieresis" unicode="&#xf6;" horiz-adv-x="443" 
d="M195 586h-101v106h101v-106zM348 586h-100v106h100v-106zM222 -9q-192 0 -192 267q0 272 192 272q190 0 190 -272q0 -267 -190 -267zM222 78q43 0 61.5 43t18.5 137q0 93 -19 138.5t-61 45.5q-44 0 -63 -45.5t-19 -138.5q0 -94 19 -137t63 -43z" />
    <glyph glyph-name="divide" unicode="&#xf7;" horiz-adv-x="476" 
d="M447 228h-418v58h418v-58zM280 65h-84v92h84v-92zM280 358h-84v91h84v-91z" />
    <glyph glyph-name="oslash" unicode="&#xf8;" horiz-adv-x="443" 
d="M126 -67h-74l42 105q-64 66 -64 220q0 272 192 272q37 0 68 -11l28 69h73l-43 -107q64 -67 64 -223q0 -267 -190 -267q-34 0 -69 10zM222 76q46 0 67.5 44.5t21.5 137.5q0 63 -10 104h-2l-112 -278q13 -8 35 -8zM132 258q0 -66 9 -101h2l113 279q-16 8 -34 8
q-90 0 -90 -186z" />
    <glyph glyph-name="ugrave" unicode="&#xf9;" horiz-adv-x="454" 
d="M401 0h-103v62q-65 -71 -137 -71q-65 0 -91 46q-22 35 -22 122v361h108v-349q0 -43 12 -61.5t41 -18.5q41 0 85 52v377h107v-520zM268 576h-79l-118 142h120z" />
    <glyph glyph-name="uacute" unicode="&#xfa;" horiz-adv-x="454" 
d="M265 576h-80l78 142h119zM401 0h-103v62q-65 -71 -137 -71q-65 0 -91 46q-22 35 -22 122v361h108v-349q0 -43 12 -61.5t41 -18.5q41 0 85 52v377h107v-520z" />
    <glyph glyph-name="ucircumflex" unicode="&#xfb;" horiz-adv-x="454" 
d="M375 576h-78l-65 91l-65 -91h-78l80 142h127zM401 0h-103v62q-65 -71 -137 -71q-65 0 -91 46q-22 35 -22 122v361h108v-349q0 -43 12 -61.5t41 -18.5q41 0 85 52v377h107v-520z" />
    <glyph glyph-name="udieresis" unicode="&#xfc;" horiz-adv-x="454" 
d="M207 586h-101v106h101v-106zM360 586h-100v106h100v-106zM401 0h-103v62q-65 -71 -137 -71q-65 0 -91 46q-22 35 -22 122v361h108v-349q0 -43 12 -61.5t41 -18.5q41 0 85 52v377h107v-520z" />
    <glyph glyph-name="yacute" unicode="&#xfd;" horiz-adv-x="395" 
d="M254 -2q-29 -104 -68 -141.5t-114 -37.5q-36 0 -59 4v92q19 -2 43 -2q38 0 58 18t33 64l5 19l-154 506h120l85 -351h2l80 351h112zM239 576h-80l78 142h119z" />
    <glyph glyph-name="thorn" unicode="&#xfe;" horiz-adv-x="463" 
d="M159 -172h-106v890h106v-256q26 34 53.5 51t66.5 17q154 0 154 -266q0 -269 -162 -269q-65 0 -112 54v-221zM159 378v-244q32 -43 77 -43q87 0 87 174q0 165 -84 165q-48 0 -80 -52z" />
    <glyph glyph-name="ydieresis" unicode="&#xff;" horiz-adv-x="395" 
d="M254 -2q-29 -104 -68 -141.5t-114 -37.5q-36 0 -59 4v92q19 -2 43 -2q38 0 58 18t33 64l5 19l-154 506h120l85 -351h2l80 351h112zM180 586h-101v106h101v-106zM333 586h-100v106h100v-106z" />
    <glyph glyph-name="Amacron" unicode="&#x100;" horiz-adv-x="515" 
d="M502 0h-122l-38 184h-172l-37 -184h-120l163 718h159zM254 602l-63 -313h130l-64 313h-3zM395 798h-279v70h279v-70z" />
    <glyph glyph-name="amacron" unicode="&#x101;" horiz-adv-x="429" 
d="M388 0h-101l-6 55q-62 -64 -141 -64q-55 0 -86 36t-31 101q0 89 66 137q45 35 187 77q5 52 -9 76.5t-53 24.5q-61 0 -84 -72l-86 21q38 138 176 138q84 0 122 -40t38 -124v-268zM273 130v137q-82 -23 -112 -48q-29 -23 -29 -75q0 -64 51 -64q53 0 90 50zM359 605h-279v70
h279v-70z" />
    <glyph glyph-name="Abreve" unicode="&#x102;" horiz-adv-x="515" 
d="M502 0h-122l-38 184h-172l-37 -184h-120l163 718h159zM254 602l-63 -313h130l-64 313h-3zM343 902h62q-5 -63 -44.5 -97.5t-106.5 -34.5q-66 0 -103 34.5t-42 97.5h62q12 -62 85 -62q76 0 87 62z" />
    <glyph glyph-name="abreve" unicode="&#x103;" horiz-adv-x="429" 
d="M388 0h-101l-6 55q-62 -64 -141 -64q-55 0 -86 36t-31 101q0 89 66 137q45 35 187 77q5 52 -9 76.5t-53 24.5q-61 0 -84 -72l-86 21q38 138 176 138q84 0 122 -40t38 -124v-268zM273 130v137q-82 -23 -112 -48q-29 -23 -29 -75q0 -64 51 -64q53 0 90 50zM306 709h62
q-5 -63 -44.5 -97.5t-106.5 -34.5q-66 0 -103 34.5t-42 97.5h62q12 -62 85 -62q76 0 87 62z" />
    <glyph glyph-name="Aogonek" unicode="&#x104;" horiz-adv-x="515" 
d="M441 -121v-53q-18 -6 -53 -6q-94 0 -94 77q0 35 19.5 63t61.5 60l-33 164h-172l-37 -184h-120l163 718h159l167 -718h-74q-60 -46 -60 -88q0 -36 38 -36q22 0 35 3zM254 602l-63 -313h130l-64 313h-3z" />
    <glyph glyph-name="aogonek" unicode="&#x105;" horiz-adv-x="429" 
d="M364 -121v-53q-18 -6 -53 -6q-94 0 -94 77q0 57 69 113l-5 45q-62 -64 -141 -64q-55 0 -86 36t-31 101q0 89 66 137q45 35 187 77q5 52 -9 76.5t-53 24.5q-61 0 -84 -72l-86 21q38 138 176 138q84 0 122 -40t38 -124v-268l8 -98h-37q-60 -46 -60 -88q0 -36 38 -36
q22 0 35 3zM273 130v137q-82 -23 -112 -48q-29 -23 -29 -75q0 -64 51 -64q53 0 90 50z" />
    <glyph glyph-name="Cacute" unicode="&#x106;" horiz-adv-x="511" 
d="M372 245l111 -11q-17 -122 -70 -182.5t-150 -60.5q-124 0 -176 94t-52 277q0 81 12.5 145t38.5 114.5t71.5 78t107.5 27.5q99 0 148 -58.5t63 -173.5l-110 -10q-22 136 -99 136q-111 0 -111 -259q0 -147 25.5 -206.5t84.5 -59.5q83 0 106 149zM305 769h-80l78 142h119z
" />
    <glyph glyph-name="cacute" unicode="&#x107;" horiz-adv-x="422" 
d="M260 576h-80l78 142h119zM306 178l93 -20q-20 -87 -62.5 -127t-119.5 -40q-97 0 -142 67.5t-45 200.5q0 125 45.5 198t145.5 73q77 0 118.5 -40t55.5 -123l-95 -15q-11 45 -28.5 66.5t-48.5 21.5q-42 0 -63.5 -48t-21.5 -133q0 -97 20.5 -137.5t63.5 -40.5
q33 0 52.5 22.5t31.5 74.5z" />
    <glyph glyph-name="Ccircumflex" unicode="&#x108;" horiz-adv-x="511" 
d="M372 245l111 -11q-17 -122 -70 -182.5t-150 -60.5q-124 0 -176 94t-52 277q0 81 12.5 145t38.5 114.5t71.5 78t107.5 27.5q99 0 148 -58.5t63 -173.5l-110 -10q-22 136 -99 136q-111 0 -111 -259q0 -147 25.5 -206.5t84.5 -59.5q83 0 106 149zM412 769h-78l-65 91
l-65 -91h-78l80 142h127z" />
    <glyph glyph-name="ccircumflex" unicode="&#x109;" horiz-adv-x="422" 
d="M369 576h-78l-65 91l-65 -91h-78l80 142h127zM306 178l93 -20q-20 -87 -62.5 -127t-119.5 -40q-97 0 -142 67.5t-45 200.5q0 125 45.5 198t145.5 73q77 0 118.5 -40t55.5 -123l-95 -15q-11 45 -28.5 66.5t-48.5 21.5q-42 0 -63.5 -48t-21.5 -133q0 -97 20.5 -137.5
t63.5 -40.5q33 0 52.5 22.5t31.5 74.5z" />
    <glyph glyph-name="Cdotaccent" unicode="&#x10a;" horiz-adv-x="511" 
d="M316 779h-99v106h99v-106zM372 245l111 -11q-17 -122 -70 -182.5t-150 -60.5q-124 0 -176 94t-52 277q0 81 12.5 145t38.5 114.5t71.5 78t107.5 27.5q99 0 148 -58.5t63 -173.5l-110 -10q-22 136 -99 136q-111 0 -111 -259q0 -147 25.5 -206.5t84.5 -59.5q83 0 106 149z
" />
    <glyph glyph-name="cdotaccent" unicode="&#x10b;" horiz-adv-x="422" 
d="M306 178l93 -20q-20 -87 -62.5 -127t-119.5 -40q-97 0 -142 67.5t-45 200.5q0 125 45.5 198t145.5 73q77 0 118.5 -40t55.5 -123l-95 -15q-11 45 -28.5 66.5t-48.5 21.5q-42 0 -63.5 -48t-21.5 -133q0 -97 20.5 -137.5t63.5 -40.5q33 0 52.5 22.5t31.5 74.5zM273 586h-99
v106h99v-106z" />
    <glyph glyph-name="Ccaron" unicode="&#x10c;" horiz-adv-x="511" 
d="M372 245l111 -11q-17 -122 -70 -182.5t-150 -60.5q-124 0 -176 94t-52 277q0 81 12.5 145t38.5 114.5t71.5 78t107.5 27.5q99 0 148 -58.5t63 -173.5l-110 -10q-22 136 -99 136q-111 0 -111 -259q0 -147 25.5 -206.5t84.5 -59.5q83 0 106 149zM329 769h-127l-79 142h79
l64 -91l65 91h78z" />
    <glyph glyph-name="ccaron" unicode="&#x10d;" horiz-adv-x="422" 
d="M287 576h-127l-79 142h79l64 -91l65 91h78zM306 178l93 -20q-20 -87 -62.5 -127t-119.5 -40q-97 0 -142 67.5t-45 200.5q0 125 45.5 198t145.5 73q77 0 118.5 -40t55.5 -123l-95 -15q-11 45 -28.5 66.5t-48.5 21.5q-42 0 -63.5 -48t-21.5 -133q0 -97 20.5 -137.5
t63.5 -40.5q33 0 52.5 22.5t31.5 74.5z" />
    <glyph glyph-name="Dcaron" unicode="&#x10e;" horiz-adv-x="551" 
d="M311 769h-127l-79 142h79l64 -91l65 91h78zM226 0h-163v718h165q150 0 219.5 -82.5t69.5 -268.5q0 -183 -68.5 -275t-222.5 -92zM184 110h51q84 0 122.5 61.5t38.5 194.5t-38 187.5t-120 54.5h-54v-498z" />
    <glyph glyph-name="dcaron" unicode="&#x10f;" horiz-adv-x="463" 
d="M524 572h-69l33 146h110zM410 0h-84l-14 59q-58 -68 -127 -68q-155 0 -155 265q0 270 162 270q64 0 112 -55v247h106v-718zM304 138v248q-30 43 -76 43q-88 0 -88 -174q0 -165 85 -165q48 0 79 48z" />
    <glyph glyph-name="Dcroat" unicode="&#x110;" horiz-adv-x="551" 
d="M517 367q0 -183 -68 -275t-220 -92h-166v332h-51v80h51v306h168q147 0 216.5 -82.5t69.5 -268.5zM280 332h-96v-222h47q88 0 126.5 61t38.5 195q0 133 -38 187.5t-120 54.5h-54v-196h96v-80z" />
    <glyph glyph-name="dcroat" unicode="&#x111;" horiz-adv-x="463" 
d="M410 0h-84l-12 60q-60 -69 -129 -69q-155 0 -155 265q0 270 162 270q64 0 112 -55v113h-138v71h138v63h106v-63h46v-71h-46v-584zM304 138v248q-30 43 -76 43q-88 0 -88 -174q0 -165 85 -165q48 0 79 48z" />
    <glyph glyph-name="Emacron" unicode="&#x112;" horiz-adv-x="466" 
d="M386 798h-279v70h279v-70zM443 0h-380v718h367v-108h-248v-187h185v-104h-185v-211h261v-108z" />
    <glyph glyph-name="emacron" unicode="&#x113;" horiz-adv-x="430" 
d="M399 148q-40 -157 -183 -157q-95 0 -140.5 65.5t-45.5 206.5q0 127 48.5 197t139.5 70q95 0 138.5 -65.5t43.5 -174.5q0 -32 -1 -51h-267q3 -84 23.5 -122t65.5 -38q65 0 89 87zM218 445q-74 0 -85 -129h165q0 129 -80 129zM361 605h-279v70h279v-70z" />
    <glyph glyph-name="Ebreve" unicode="&#x114;" horiz-adv-x="466" 
d="M333 902h62q-5 -63 -44.5 -97.5t-106.5 -34.5q-66 0 -103 34.5t-42 97.5h62q12 -62 85 -62q76 0 87 62zM443 0h-380v718h367v-108h-248v-187h185v-104h-185v-211h261v-108z" />
    <glyph glyph-name="ebreve" unicode="&#x115;" horiz-adv-x="430" 
d="M399 148q-40 -157 -183 -157q-95 0 -140.5 65.5t-45.5 206.5q0 127 48.5 197t139.5 70q95 0 138.5 -65.5t43.5 -174.5q0 -32 -1 -51h-267q3 -84 23.5 -122t65.5 -38q65 0 89 87zM218 445q-74 0 -85 -129h165q0 129 -80 129zM306 709h62q-5 -63 -44.5 -97.5t-106.5 -34.5
q-66 0 -103 34.5t-42 97.5h62q12 -62 85 -62q76 0 87 62z" />
    <glyph glyph-name="Edotaccent" unicode="&#x116;" horiz-adv-x="466" 
d="M296 779h-99v106h99v-106zM443 0h-380v718h367v-108h-248v-187h185v-104h-185v-211h261v-108z" />
    <glyph glyph-name="edotaccent" unicode="&#x117;" horiz-adv-x="430" 
d="M399 148q-40 -157 -183 -157q-95 0 -140.5 65.5t-45.5 206.5q0 127 48.5 197t139.5 70q95 0 138.5 -65.5t43.5 -174.5q0 -32 -1 -51h-267q3 -84 23.5 -122t65.5 -38q65 0 89 87zM218 445q-74 0 -85 -129h165q0 129 -80 129zM268 586h-99v106h99v-106z" />
    <glyph glyph-name="Eogonek" unicode="&#x118;" horiz-adv-x="466" 
d="M443 0h-14q-60 -46 -60 -88q0 -36 38 -36q22 0 35 3v-53q-18 -6 -53 -6q-94 0 -94 77q0 53 56 103h-288v718h367v-108h-248v-187h185v-104h-185v-211h261v-108z" />
    <glyph glyph-name="eogonek" unicode="&#x119;" horiz-adv-x="430" 
d="M375 -121v-53q-18 -6 -52 -6q-93 0 -93 83q0 44 32 90v2q-20 -4 -46 -4q-95 0 -140.5 65.5t-45.5 206.5q0 127 48.5 197t139.5 70q95 0 138.5 -65.5t43.5 -174.5q0 -32 -1 -51h-267q3 -84 23.5 -122t65.5 -38q65 0 89 87l89 -18q-16 -64 -49 -103q-51 -74 -51 -126
q0 -43 42 -43q20 0 34 3zM218 445q-74 0 -85 -129h165q0 129 -80 129z" />
    <glyph glyph-name="Ecaron" unicode="&#x11a;" horiz-adv-x="466" 
d="M311 769h-127l-79 142h79l64 -91l65 91h78zM443 0h-380v718h367v-108h-248v-187h185v-104h-185v-211h261v-108z" />
    <glyph glyph-name="ecaron" unicode="&#x11b;" horiz-adv-x="430" 
d="M283 576h-127l-79 142h79l64 -91l65 91h78zM399 148q-40 -157 -183 -157q-95 0 -140.5 65.5t-45.5 206.5q0 127 48.5 197t139.5 70q95 0 138.5 -65.5t43.5 -174.5q0 -32 -1 -51h-267q3 -84 23.5 -122t65.5 -38q65 0 89 87zM218 445q-74 0 -85 -129h165q0 129 -80 129z
" />
    <glyph glyph-name="Gcircumflex" unicode="&#x11c;" horiz-adv-x="537" 
d="M486 0h-96v58h-2q-52 -67 -143 -67q-106 0 -158 87.5t-52 281.5q0 111 22.5 190.5t76.5 128t137 48.5q100 0 149 -59.5t64 -170.5l-110 -10q-23 133 -103 133q-58 0 -86.5 -61.5t-28.5 -198.5q0 -143 26.5 -204.5t90.5 -61.5q50 0 77 36t27 95q0 24 -1 36h-105v96h215
v-357zM417 769h-78l-65 91l-65 -91h-78l80 142h127z" />
    <glyph glyph-name="gcircumflex" unicode="&#x11d;" horiz-adv-x="430" 
d="M350 576h-78l-65 91l-65 -91h-78l80 142h127zM376 344q0 -90 -43.5 -138.5t-128.5 -48.5q-34 0 -64 8q-22 -17 -22 -33q0 -18 31.5 -25t76 -10.5t89 -12t76 -39t31.5 -82.5q0 -70 -58.5 -107t-159.5 -37q-87 0 -140 25.5t-53 80.5q0 65 74 95v2q-56 13 -56 69
q0 54 59 102q-55 48 -55 151q0 86 43.5 136t127.5 50q79 0 123 -46q37 54 96 54v-99q-39 -2 -60 -14q13 -35 13 -81zM275 342q0 106 -71 106q-72 0 -72 -106q0 -57 17.5 -81.5t54.5 -24.5q36 0 53.5 24.5t17.5 81.5zM319 -52q0 21 -19.5 33.5t-48 17.5t-75.5 7
q-70 -17 -70 -60q0 -26 28 -39.5t76 -13.5q49 0 79 14t30 41z" />
    <glyph glyph-name="Gbreve" unicode="&#x11e;" horiz-adv-x="537" 
d="M359 902h62q-5 -63 -44.5 -97.5t-106.5 -34.5q-66 0 -103 34.5t-42 97.5h62q12 -62 85 -62q76 0 87 62zM486 0h-96v58h-2q-52 -67 -143 -67q-106 0 -158 87.5t-52 281.5q0 111 22.5 190.5t76.5 128t137 48.5q100 0 149 -59.5t64 -170.5l-110 -10q-23 133 -103 133
q-58 0 -86.5 -61.5t-28.5 -198.5q0 -143 26.5 -204.5t90.5 -61.5q50 0 77 36t27 95q0 24 -1 36h-105v96h215v-357z" />
    <glyph glyph-name="gbreve" unicode="&#x11f;" horiz-adv-x="430" 
d="M376 344q0 -90 -43.5 -138.5t-128.5 -48.5q-34 0 -64 8q-22 -17 -22 -33q0 -18 31.5 -25t76 -10.5t89 -12t76 -39t31.5 -82.5q0 -70 -58.5 -107t-159.5 -37q-87 0 -140 25.5t-53 80.5q0 65 74 95v2q-56 13 -56 69q0 54 59 102q-55 48 -55 151q0 86 43.5 136t127.5 50
q79 0 123 -46q37 54 96 54v-99q-39 -2 -60 -14q13 -35 13 -81zM275 342q0 106 -71 106q-72 0 -72 -106q0 -57 17.5 -81.5t54.5 -24.5q36 0 53.5 24.5t17.5 81.5zM319 -52q0 21 -19.5 33.5t-48 17.5t-75.5 7q-70 -17 -70 -60q0 -26 28 -39.5t76 -13.5q49 0 79 14t30 41z
M298 709h62q-5 -63 -44.5 -97.5t-106.5 -34.5q-66 0 -103 34.5t-42 97.5h62q12 -62 85 -62q76 0 87 62z" />
    <glyph glyph-name="Gdotaccent" unicode="&#x120;" horiz-adv-x="537" 
d="M320 779h-99v106h99v-106zM486 0h-96v58h-2q-52 -67 -143 -67q-106 0 -158 87.5t-52 281.5q0 111 22.5 190.5t76.5 128t137 48.5q100 0 149 -59.5t64 -170.5l-110 -10q-23 133 -103 133q-58 0 -86.5 -61.5t-28.5 -198.5q0 -143 26.5 -204.5t90.5 -61.5q50 0 77 36t27 95
q0 24 -1 36h-105v96h215v-357z" />
    <glyph glyph-name="gdotaccent" unicode="&#x121;" horiz-adv-x="430" 
d="M376 344q0 -90 -43.5 -138.5t-128.5 -48.5q-34 0 -64 8q-22 -17 -22 -33q0 -18 31.5 -25t76 -10.5t89 -12t76 -39t31.5 -82.5q0 -70 -58.5 -107t-159.5 -37q-87 0 -140 25.5t-53 80.5q0 65 74 95v2q-56 13 -56 69q0 54 59 102q-55 48 -55 151q0 86 43.5 136t127.5 50
q79 0 123 -46q37 54 96 54v-99q-39 -2 -60 -14q13 -35 13 -81zM275 342q0 106 -71 106q-72 0 -72 -106q0 -57 17.5 -81.5t54.5 -24.5q36 0 53.5 24.5t17.5 81.5zM319 -52q0 21 -19.5 33.5t-48 17.5t-75.5 7q-70 -17 -70 -60q0 -26 28 -39.5t76 -13.5q49 0 79 14t30 41z
M256 586h-99v106h99v-106z" />
    <glyph glyph-name="Gcommaaccent" unicode="&#x122;" horiz-adv-x="537" 
d="M286 -197h-55l42 74h-35v82h95v-78zM486 0h-96v58h-2q-52 -67 -143 -67q-106 0 -158 87.5t-52 281.5q0 111 22.5 190.5t76.5 128t137 48.5q100 0 149 -59.5t64 -170.5l-110 -10q-23 133 -103 133q-58 0 -86.5 -61.5t-28.5 -198.5q0 -143 26.5 -204.5t90.5 -61.5
q50 0 77 36t27 95q0 24 -1 36h-105v96h215v-357z" />
    <glyph glyph-name="gcommaaccent" unicode="&#x123;" horiz-adv-x="430" 
d="M254 554h-95v79l48 77h54l-41 -74h34v-82zM376 344q0 -90 -43.5 -138.5t-128.5 -48.5q-34 0 -64 8q-22 -17 -22 -33q0 -18 31.5 -25t76 -10.5t89 -12t76 -39t31.5 -82.5q0 -70 -58.5 -107t-159.5 -37q-87 0 -140 25.5t-53 80.5q0 65 74 95v2q-56 13 -56 69q0 54 59 102
q-55 48 -55 151q0 86 43.5 136t127.5 50q79 0 123 -46q37 54 96 54v-99q-39 -2 -60 -14q13 -35 13 -81zM275 342q0 106 -71 106q-72 0 -72 -106q0 -57 17.5 -81.5t54.5 -24.5q36 0 53.5 24.5t17.5 81.5zM319 -52q0 21 -19.5 33.5t-48 17.5t-75.5 7q-70 -17 -70 -60
q0 -26 28 -39.5t76 -13.5q49 0 79 14t30 41z" />
    <glyph glyph-name="Hcircumflex" unicode="&#x124;" horiz-adv-x="567" 
d="M503 0h-117v318h-204v-318h-119v718h119v-293h204v293h117v-718zM428 769h-78l-65 91l-65 -91h-78l80 142h127z" />
    <glyph glyph-name="hcircumflex" unicode="&#x125;" horiz-adv-x="455" 
d="M406 0h-106v342q0 46 -11 66.5t-43 20.5q-43 0 -87 -50v-379h-106v718h106v-255q63 67 133 67q65 0 93 -47q21 -34 21 -129v-354zM252 743h-78l-65 91l-65 -91h-78l80 142h127z" />
    <glyph glyph-name="Hbar" unicode="&#x126;" horiz-adv-x="567" 
d="M503 0h-117v318h-204v-318h-119v564h-51v80h51v74h119v-74h204v74h117v-74h51v-80h-51v-564zM182 425h204v139h-204v-139z" />
    <glyph glyph-name="hbar" unicode="&#x127;" horiz-adv-x="455" 
d="M406 0h-106v342q0 46 -11 66.5t-43 20.5q-43 0 -87 -50v-379h-106v584h-46v71h46v63h106v-63h133v-71h-133v-121q63 67 133 67q65 0 93 -47q21 -34 21 -129v-354z" />
    <glyph glyph-name="Itilde" unicode="&#x128;" horiz-adv-x="245" 
d="M182 0h-119v718h119v-718zM220 891h64q-15 -114 -96 -114q-30 0 -68 18.5t-55 18.5q-27 0 -34 -40h-64q13 113 96 113q29 0 66.5 -18t56.5 -18q27 0 34 40z" />
    <glyph glyph-name="itilde" unicode="&#x129;" horiz-adv-x="213" 
d="M159 0h-106v520h106v-520zM204 698h64q-15 -114 -96 -114q-30 0 -68 18.5t-55 18.5q-27 0 -34 -40h-64q13 113 96 113q29 0 66.5 -18t56.5 -18q27 0 34 40z" />
    <glyph glyph-name="Imacron" unicode="&#x12a;" horiz-adv-x="245" 
d="M182 0h-119v718h119v-718zM262 798h-279v70h279v-70z" />
    <glyph glyph-name="imacron" unicode="&#x12b;" horiz-adv-x="213" 
d="M159 0h-106v520h106v-520zM245 605h-279v70h279v-70z" />
    <glyph glyph-name="Ibreve" unicode="&#x12c;" horiz-adv-x="245" 
d="M182 0h-119v718h119v-718zM210 902h62q-5 -63 -44.5 -97.5t-106.5 -34.5q-66 0 -103 34.5t-42 97.5h62q12 -62 85 -62q76 0 87 62z" />
    <glyph glyph-name="ibreve" unicode="&#x12d;" horiz-adv-x="213" 
d="M159 0h-106v520h106v-520zM192 709h62q-5 -63 -44.5 -97.5t-106.5 -34.5q-66 0 -103 34.5t-42 97.5h62q12 -62 85 -62q76 0 87 62z" />
    <glyph glyph-name="Iogonek" unicode="&#x12e;" horiz-adv-x="245" 
d="M192 -121v-53q-18 -6 -52 -6q-94 0 -94 78q0 50 50 102h-33v718h119v-718h-17q-47 -45 -47 -87q0 -37 40 -37q20 0 34 3z" />
    <glyph glyph-name="iogonek" unicode="&#x12f;" horiz-adv-x="213" 
d="M174 -121v-53q-18 -6 -52 -6q-93 0 -93 78q0 52 50 102h-26v520h106v-520h-10q-49 -44 -49 -87q0 -37 40 -37q21 0 34 3zM161 605h-110v118h110v-118z" />
    <glyph glyph-name="Idotaccent" unicode="&#x130;" horiz-adv-x="245" 
d="M182 0h-119v718h119v-718zM172 779h-99v106h99v-106z" />
    <glyph glyph-name="dotlessi" unicode="&#x131;" horiz-adv-x="213" 
d="M159 0h-106v520h106v-520z" />
    <glyph glyph-name="Jcircumflex" unicode="&#x134;" horiz-adv-x="395" 
d="M332 199q0 -208 -174 -208q-58 0 -96.5 25t-67.5 81l90 55q25 -53 69 -53q32 0 46 22t14 68v529h119v-519zM411 769h-78l-65 91l-65 -91h-78l80 142h127z" />
    <glyph glyph-name="jcircumflex" unicode="&#x135;" horiz-adv-x="213" 
d="M164 -34q0 -75 -32 -111t-101 -36q-33 0 -58 4v94q19 -4 35 -4q49 0 49 51v556h107v-554zM253 576h-78l-65 91l-65 -91h-78l80 142h127z" />
    <glyph glyph-name="Kcommaaccent" unicode="&#x136;" horiz-adv-x="509" 
d="M286 -197h-55l42 74h-35v82h95v-78zM515 0h-126l-136 338l-73 -112v-226h-117v718h117v-312h2l188 312h125l-161 -262z" />
    <glyph glyph-name="kcommaaccent" unicode="&#x137;" horiz-adv-x="433" 
d="M246 -197h-55l42 74h-35v82h95v-78zM433 0h-113l-103 247l-60 -80v-167h-104v718h104v-406h2l139 208h115l-123 -174z" />
    <glyph glyph-name="kgreenlandic" unicode="&#x138;" horiz-adv-x="433" 
d="M433 0h-113l-103 247l-60 -80v-167h-104v520h104v-208h2l139 208h115l-123 -174z" />
    <glyph glyph-name="Lacute" unicode="&#x139;" horiz-adv-x="430" 
d="M163 769h-80l78 142h119zM422 0h-359v718h119v-610h240v-108z" />
    <glyph glyph-name="lacute" unicode="&#x13a;" horiz-adv-x="213" 
d="M145 743h-80l78 142h119zM159 0h-106v718h106v-718z" />
    <glyph glyph-name="Lcommaaccent" unicode="&#x13b;" horiz-adv-x="430" 
d="M253 -197h-55l42 74h-35v82h95v-78zM422 0h-359v718h119v-610h240v-108z" />
    <glyph glyph-name="lcommaaccent" unicode="&#x13c;" horiz-adv-x="213" 
d="M106 -197h-55l42 74h-35v82h95v-78zM159 0h-106v718h106v-718z" />
    <glyph glyph-name="Lcaron" unicode="&#x13d;" horiz-adv-x="430" 
d="M302 572h-69l33 146h110zM422 0h-359v718h119v-610h240v-108z" />
    <glyph glyph-name="lcaron" unicode="&#x13e;" horiz-adv-x="213" 
d="M273 572h-69l33 146h110zM159 0h-106v718h106v-718z" />
    <glyph glyph-name="Ldot" unicode="&#x13f;" horiz-adv-x="430" 
d="M422 0h-359v718h119v-610h240v-108zM395 343h-122v134h122v-134z" />
    <glyph glyph-name="ldot" unicode="&#x140;" horiz-adv-x="363" 
d="M159 0h-106v718h106v-718zM349 196h-122v134h122v-134z" />
    <glyph glyph-name="Lslash" unicode="&#x141;" horiz-adv-x="430" 
d="M347 422l-165 -79v-235h240v-108h-359v286l-51 -24v91l51 24v341h119v-285l165 79v-90z" />
    <glyph glyph-name="lslash" unicode="&#x142;" horiz-adv-x="234" 
d="M170 0h-105v296l-54 -24v81l54 24v341h105v-294l54 24v-81l-54 -24v-343z" />
    <glyph glyph-name="Nacute" unicode="&#x143;" horiz-adv-x="569" 
d="M320 769h-80l78 142h119zM507 0h-107l-229 496h-2v-496h-106v718h137l197 -436h2v436h108v-718z" />
    <glyph glyph-name="nacute" unicode="&#x144;" horiz-adv-x="454" 
d="M264 576h-80l78 142h119zM405 0h-105v349q0 42 -13 61t-41 19q-42 0 -87 -52v-377h-106v520h103v-62q64 72 136 72q67 0 92 -47q21 -33 21 -122v-361z" />
    <glyph glyph-name="Ncommaaccent" unicode="&#x145;" horiz-adv-x="569" 
d="M301 -197h-55l42 74h-35v82h95v-78zM507 0h-107l-229 496h-2v-496h-106v718h137l197 -436h2v436h108v-718z" />
    <glyph glyph-name="ncommaaccent" unicode="&#x146;" horiz-adv-x="454" 
d="M243 -197h-55l42 74h-35v82h95v-78zM405 0h-105v349q0 42 -13 61t-41 19q-42 0 -87 -52v-377h-106v520h103v-62q64 72 136 72q67 0 92 -47q21 -33 21 -122v-361z" />
    <glyph glyph-name="Ncaron" unicode="&#x147;" horiz-adv-x="569" 
d="M354 769h-127l-79 142h79l64 -91l65 91h78zM507 0h-107l-229 496h-2v-496h-106v718h137l197 -436h2v436h108v-718z" />
    <glyph glyph-name="ncaron" unicode="&#x148;" horiz-adv-x="454" 
d="M288 576h-127l-79 142h79l64 -91l65 91h78zM405 0h-105v349q0 42 -13 61t-41 19q-42 0 -87 -52v-377h-106v520h103v-62q64 72 136 72q67 0 92 -47q21 -33 21 -122v-361z" />
    <glyph glyph-name="Eng" unicode="&#x14a;" horiz-adv-x="569" 
d="M507 -27q0 -154 -136 -154q-33 0 -57 4v107q16 -4 37 -4q48 0 48 45v38l-228 487h-2v-496h-106v718h137l197 -431h2v431h108v-745z" />
    <glyph glyph-name="eng" unicode="&#x14b;" horiz-adv-x="454" 
d="M405 -34q0 -76 -32 -111.5t-101 -35.5q-30 0 -57 4v94q17 -4 35 -4q50 0 50 51v385q0 42 -13 61t-41 19q-42 0 -87 -52v-377h-106v520h103v-62q64 72 136 72q67 0 92 -47q21 -33 21 -122v-395z" />
    <glyph glyph-name="Omacron" unicode="&#x14c;" horiz-adv-x="544" 
d="M411 798h-279v70h279v-70zM272 -9q-237 0 -237 368q0 183 57 275.5t180 92.5t180.5 -92.5t57.5 -275.5q0 -368 -238 -368zM272 93q59 0 88 62t29 204q0 138 -29 201.5t-88 63.5t-87.5 -63.5t-28.5 -201.5q0 -141 29 -203.5t87 -62.5z" />
    <glyph glyph-name="omacron" unicode="&#x14d;" horiz-adv-x="443" 
d="M360 605h-279v70h279v-70zM222 -9q-192 0 -192 267q0 272 192 272q190 0 190 -272q0 -267 -190 -267zM222 78q43 0 61.5 43t18.5 137q0 93 -19 138.5t-61 45.5q-44 0 -63 -45.5t-19 -138.5q0 -94 19 -137t63 -43z" />
    <glyph glyph-name="Obreve" unicode="&#x14e;" horiz-adv-x="544" 
d="M358 902h62q-5 -63 -44.5 -97.5t-106.5 -34.5q-66 0 -103 34.5t-42 97.5h62q12 -62 85 -62q76 0 87 62zM272 -9q-237 0 -237 368q0 183 57 275.5t180 92.5t180.5 -92.5t57.5 -275.5q0 -368 -238 -368zM272 93q59 0 88 62t29 204q0 138 -29 201.5t-88 63.5t-87.5 -63.5
t-28.5 -201.5q0 -141 29 -203.5t87 -62.5z" />
    <glyph glyph-name="obreve" unicode="&#x14f;" horiz-adv-x="443" 
d="M222 -9q-192 0 -192 267q0 272 192 272q190 0 190 -272q0 -267 -190 -267zM222 78q43 0 61.5 43t18.5 137q0 93 -19 138.5t-61 45.5q-44 0 -63 -45.5t-19 -138.5q0 -94 19 -137t63 -43zM307 709h62q-5 -63 -44.5 -97.5t-106.5 -34.5q-66 0 -103 34.5t-42 97.5h62
q12 -62 85 -62q76 0 87 62z" />
    <glyph glyph-name="Ohungarumlaut" unicode="&#x150;" horiz-adv-x="544" 
d="M272 -9q-237 0 -237 368q0 183 57 275.5t180 92.5t180.5 -92.5t57.5 -275.5q0 -368 -238 -368zM272 93q59 0 88 62t29 204q0 138 -29 201.5t-88 63.5t-87.5 -63.5t-28.5 -201.5q0 -141 29 -203.5t87 -62.5zM398 769h-80l78 142h119zM230 769h-80l78 142h119z" />
    <glyph glyph-name="ohungarumlaut" unicode="&#x151;" horiz-adv-x="443" 
d="M341 576h-80l78 142h119zM173 576h-80l78 142h119zM222 -9q-192 0 -192 267q0 272 192 272q190 0 190 -272q0 -267 -190 -267zM222 78q43 0 61.5 43t18.5 137q0 93 -19 138.5t-61 45.5q-44 0 -63 -45.5t-19 -138.5q0 -94 19 -137t63 -43z" />
    <glyph glyph-name="OE" unicode="&#x152;" horiz-adv-x="782" 
d="M760 0h-365q-42 -8 -90 -8q-270 0 -270 365q0 369 272 369q42 0 90 -8h350v-108h-238v-187h175v-104h-175v-211h251v-108zM390 214v323q0 41 -13 59q-18 26 -67 26q-155 0 -155 -263q0 -262 154 -262q59 0 73 32q8 21 8 85z" />
    <glyph glyph-name="oe" unicode="&#x153;" horiz-adv-x="689" 
d="M659 148q-40 -157 -177 -157q-91 0 -132 72h-2q-45 -72 -135 -72q-183 0 -183 267q0 272 183 272q95 0 136 -74h2q46 74 136 74t131.5 -65.5t41.5 -174.5q0 -32 -1 -51h-260q2 -84 22 -122t65 -38q33 0 52 21.5t32 65.5zM216 78q41 0 59 42.5t18 136.5t-18 139.5
t-59 45.5t-58.5 -45t-17.5 -139q0 -95 17 -137.5t59 -42.5zM400 316h157q0 129 -74 129q-72 0 -83 -129z" />
    <glyph glyph-name="Racute" unicode="&#x154;" horiz-adv-x="526" 
d="M505 0h-129l-103 296h-91v-296h-119v718h190q117 0 172.5 -47.5t55.5 -151.5q0 -129 -101 -175zM182 397h68q110 0 110 111q0 36 -9 59t-27 32.5t-34 12.5t-41 3h-67v-218zM274 769h-80l78 142h119z" />
    <glyph glyph-name="racute" unicode="&#x155;" horiz-adv-x="301" 
d="M200 576h-80l78 142h119zM159 0h-106v520h103v-86q27 49 55.5 72.5t67.5 23.5q3 0 17 -2v-109q-16 2 -21 2q-73 0 -116 -89v-332z" />
    <glyph glyph-name="Rcommaaccent" unicode="&#x156;" horiz-adv-x="526" 
d="M280 -197h-55l42 74h-35v82h95v-78zM505 0h-129l-103 296h-91v-296h-119v718h190q117 0 172.5 -47.5t55.5 -151.5q0 -129 -101 -175zM182 397h68q110 0 110 111q0 36 -9 59t-27 32.5t-34 12.5t-41 3h-67v-218z" />
    <glyph glyph-name="rcommaaccent" unicode="&#x157;" horiz-adv-x="301" 
d="M105 -197h-55l42 74h-35v82h95v-78zM159 0h-106v520h103v-86q27 49 55.5 72.5t67.5 23.5q3 0 17 -2v-109q-16 2 -21 2q-73 0 -116 -89v-332z" />
    <glyph glyph-name="Rcaron" unicode="&#x158;" horiz-adv-x="526" 
d="M314 769h-127l-79 142h79l64 -91l65 91h78zM505 0h-129l-103 296h-91v-296h-119v718h190q117 0 172.5 -47.5t55.5 -151.5q0 -129 -101 -175zM182 397h68q110 0 110 111q0 36 -9 59t-27 32.5t-34 12.5t-41 3h-67v-218z" />
    <glyph glyph-name="rcaron" unicode="&#x159;" horiz-adv-x="301" 
d="M234 576h-127l-79 142h79l64 -91l65 91h78zM159 0h-106v520h103v-86q27 49 55.5 72.5t67.5 23.5q3 0 17 -2v-109q-16 2 -21 2q-73 0 -116 -89v-332z" />
    <glyph glyph-name="Sacute" unicode="&#x15a;" horiz-adv-x="473" 
d="M430 548l-103 -20q-12 49 -34.5 74t-62.5 25q-38 0 -59.5 -20t-21.5 -54q0 -27 12.5 -49.5t33.5 -38t47 -32.5t54 -31.5t54 -35.5t47 -44.5t33.5 -58.5t12.5 -77q0 -93 -56.5 -144t-153.5 -51q-94 0 -143.5 46t-67.5 145l110 19q11 -57 35 -83.5t70 -26.5q41 0 66 22.5
t25 63.5q0 43 -30 76t-72.5 57t-85.5 51.5t-73 74t-30 110.5q0 83 51.5 132t140.5 49q168 0 201 -179zM269 769h-80l78 142h119z" />
    <glyph glyph-name="sacute" unicode="&#x15b;" horiz-adv-x="381" 
d="M227 576h-80l78 142h119zM345 405l-84 -23q-23 64 -76 64q-26 0 -41 -14t-15 -37q0 -26 23.5 -45.5t57.5 -35t67.5 -35t57 -55t23.5 -85.5q0 -71 -44.5 -109.5t-123.5 -38.5q-73 0 -113 32t-59 103l87 24q14 -40 33.5 -58t52.5 -18q30 0 47.5 15t17.5 41q0 30 -23.5 52
t-56.5 38.5t-66 35t-56.5 53t-23.5 81.5q0 63 41.5 101.5t112.5 38.5q68 0 106 -31t55 -94z" />
    <glyph glyph-name="Scircumflex" unicode="&#x15c;" horiz-adv-x="473" 
d="M430 548l-103 -20q-12 49 -34.5 74t-62.5 25q-38 0 -59.5 -20t-21.5 -54q0 -27 12.5 -49.5t33.5 -38t47 -32.5t54 -31.5t54 -35.5t47 -44.5t33.5 -58.5t12.5 -77q0 -93 -56.5 -144t-153.5 -51q-94 0 -143.5 46t-67.5 145l110 19q11 -57 35 -83.5t70 -26.5q41 0 66 22.5
t25 63.5q0 43 -30 76t-72.5 57t-85.5 51.5t-73 74t-30 110.5q0 83 51.5 132t140.5 49q168 0 201 -179zM381 769h-78l-65 91l-65 -91h-78l80 142h127z" />
    <glyph glyph-name="scircumflex" unicode="&#x15d;" horiz-adv-x="381" 
d="M335 576h-78l-65 91l-65 -91h-78l80 142h127zM345 405l-84 -23q-23 64 -76 64q-26 0 -41 -14t-15 -37q0 -26 23.5 -45.5t57.5 -35t67.5 -35t57 -55t23.5 -85.5q0 -71 -44.5 -109.5t-123.5 -38.5q-73 0 -113 32t-59 103l87 24q14 -40 33.5 -58t52.5 -18q30 0 47.5 15
t17.5 41q0 30 -23.5 52t-56.5 38.5t-66 35t-56.5 53t-23.5 81.5q0 63 41.5 101.5t112.5 38.5q68 0 106 -31t55 -94z" />
    <glyph glyph-name="Scedilla" unicode="&#x15e;" horiz-adv-x="473" 
d="M157 -174v51q27 -7 51 -7q55 0 55 26q0 21 -35 21q-15 0 -30 -5l-10 24l7 57q-75 8 -116.5 54t-56.5 135l110 19q11 -57 35 -83.5t70 -26.5q41 0 66 22.5t25 63.5q0 43 -30 76t-72.5 57t-85.5 51.5t-73 74t-30 110.5q0 83 51.5 132t140.5 49q168 0 201 -179l-103 -20
q-12 49 -34.5 74t-62.5 25q-38 0 -59.5 -20t-21.5 -54q0 -27 12.5 -49.5t33.5 -38t47 -32.5t54 -31.5t54 -35.5t47 -44.5t33.5 -58.5t12.5 -77q0 -90 -54 -141.5t-147 -53.5l-5 -33q9 2 25 2q69 0 69 -62q0 -40 -32 -59t-84 -19q-33 0 -58 6z" />
    <glyph glyph-name="scedilla" unicode="&#x15f;" horiz-adv-x="381" 
d="M110 -174v51q27 -7 51 -7q55 0 55 26q0 21 -35 21q-15 0 -30 -5l-10 24l7 58q-52 8 -83 40t-47 92l87 24q14 -40 33.5 -58t52.5 -18q30 0 47.5 15t17.5 41q0 30 -23.5 52t-56.5 38.5t-66 35t-56.5 53t-23.5 81.5q0 63 41.5 101.5t112.5 38.5q68 0 106 -31t55 -94l-84 -23
q-23 64 -76 64q-26 0 -41 -14t-15 -37q0 -26 23.5 -45.5t57.5 -35t67.5 -35t57 -55t23.5 -85.5q0 -70 -43 -108t-120 -40l-5 -33q9 2 25 2q69 0 69 -62q0 -40 -32 -59t-84 -19q-32 0 -58 6z" />
    <glyph glyph-name="Scaron" unicode="&#x160;" horiz-adv-x="473" 
d="M430 548l-103 -20q-12 49 -34.5 74t-62.5 25q-38 0 -59.5 -20t-21.5 -54q0 -27 12.5 -49.5t33.5 -38t47 -32.5t54 -31.5t54 -35.5t47 -44.5t33.5 -58.5t12.5 -77q0 -93 -56.5 -144t-153.5 -51q-94 0 -143.5 46t-67.5 145l110 19q11 -57 35 -83.5t70 -26.5q41 0 66 22.5
t25 63.5q0 43 -30 76t-72.5 57t-85.5 51.5t-73 74t-30 110.5q0 83 51.5 132t140.5 49q168 0 201 -179zM300 769h-127l-79 142h79l64 -91l65 91h78z" />
    <glyph glyph-name="scaron" unicode="&#x161;" horiz-adv-x="381" 
d="M254 576h-127l-79 142h79l64 -91l65 91h78zM345 405l-84 -23q-23 64 -76 64q-26 0 -41 -14t-15 -37q0 -26 23.5 -45.5t57.5 -35t67.5 -35t57 -55t23.5 -85.5q0 -71 -44.5 -109.5t-123.5 -38.5q-73 0 -113 32t-59 103l87 24q14 -40 33.5 -58t52.5 -18q30 0 47.5 15
t17.5 41q0 30 -23.5 52t-56.5 38.5t-66 35t-56.5 53t-23.5 81.5q0 63 41.5 101.5t112.5 38.5q68 0 106 -31t55 -94z" />
    <glyph glyph-name="Tcommaaccent" unicode="&#x162;" horiz-adv-x="444" 
d="M223 -197h-55l42 74h-35v82h95v-78zM281 0h-118v610h-148v108h414v-108h-148v-610z" />
    <glyph glyph-name="tcommaaccent" unicode="&#x163;" horiz-adv-x="297" 
d="M183 -197h-55l42 74h-35v82h95v-78zM278 99v-96q-42 -8 -82 -8q-65 0 -91.5 28.5t-26.5 102.5v305h-69v89h69v169h105v-169h95v-89h-95v-287q0 -52 45 -52q26 0 50 7z" />
    <glyph glyph-name="Tcaron" unicode="&#x164;" horiz-adv-x="444" 
d="M285 769h-127l-79 142h79l64 -91l65 91h78zM281 0h-118v610h-148v108h414v-108h-148v-610z" />
    <glyph glyph-name="tcaron" unicode="&#x165;" horiz-adv-x="297" 
d="M282 572h-69l33 146h110zM278 99v-96q-42 -8 -82 -8q-65 0 -91.5 28.5t-26.5 102.5v305h-69v89h69v169h105v-169h95v-89h-95v-287q0 -52 45 -52q26 0 50 7z" />
    <glyph glyph-name="Tbar" unicode="&#x166;" horiz-adv-x="444" 
d="M281 0h-118v316h-90v80h90v214h-148v108h414v-108h-148v-214h90v-80h-90v-316z" />
    <glyph glyph-name="tbar" unicode="&#x167;" horiz-adv-x="297" 
d="M278 253h-95v-109q0 -52 45 -52q26 0 50 7v-96q-42 -8 -82 -8q-65 0 -91.5 28.5t-26.5 102.5v127h-69v71h69v107h-69v89h69v168h105v-168h95v-89h-95v-107h95v-71z" />
    <glyph glyph-name="Utilde" unicode="&#x168;" horiz-adv-x="557" 
d="M382 891h64q-15 -114 -96 -114q-30 0 -68 18.5t-55 18.5q-27 0 -34 -40h-64q13 113 96 113q29 0 66.5 -18t56.5 -18q27 0 34 40zM381 213v505h117v-489q0 -118 -54 -177.5t-169 -59.5q-113 0 -164.5 59t-51.5 178v489h119v-505q0 -62 24 -90.5t75 -28.5q104 0 104 119z
" />
    <glyph glyph-name="utilde" unicode="&#x169;" horiz-adv-x="454" 
d="M401 0h-103v62q-65 -71 -137 -71q-65 0 -91 46q-22 35 -22 122v361h108v-349q0 -43 12 -61.5t41 -18.5q41 0 85 52v377h107v-520zM332 698h64q-15 -114 -96 -114q-30 0 -68 18.5t-55 18.5q-27 0 -34 -40h-64q13 113 96 113q29 0 66.5 -18t56.5 -18q27 0 34 40z" />
    <glyph glyph-name="Umacron" unicode="&#x16a;" horiz-adv-x="557" 
d="M419 798h-279v70h279v-70zM381 213v505h117v-489q0 -118 -54 -177.5t-169 -59.5q-113 0 -164.5 59t-51.5 178v489h119v-505q0 -62 24 -90.5t75 -28.5q104 0 104 119z" />
    <glyph glyph-name="umacron" unicode="&#x16b;" horiz-adv-x="454" 
d="M401 0h-103v62q-65 -71 -137 -71q-65 0 -91 46q-22 35 -22 122v361h108v-349q0 -43 12 -61.5t41 -18.5q41 0 85 52v377h107v-520zM371 605h-279v70h279v-70z" />
    <glyph glyph-name="Ubreve" unicode="&#x16c;" horiz-adv-x="557" 
d="M366 902h62q-5 -63 -44.5 -97.5t-106.5 -34.5q-66 0 -103 34.5t-42 97.5h62q12 -62 85 -62q76 0 87 62zM381 213v505h117v-489q0 -118 -54 -177.5t-169 -59.5q-113 0 -164.5 59t-51.5 178v489h119v-505q0 -62 24 -90.5t75 -28.5q104 0 104 119z" />
    <glyph glyph-name="ubreve" unicode="&#x16d;" horiz-adv-x="454" 
d="M401 0h-103v62q-65 -71 -137 -71q-65 0 -91 46q-22 35 -22 122v361h108v-349q0 -43 12 -61.5t41 -18.5q41 0 85 52v377h107v-520zM318 709h62q-5 -63 -44.5 -97.5t-106.5 -34.5q-66 0 -103 34.5t-42 97.5h62q12 -62 85 -62q76 0 87 62z" />
    <glyph glyph-name="Uring" unicode="&#x16e;" horiz-adv-x="557" 
d="M381 213v505h117v-489q0 -118 -54 -177.5t-169 -59.5q-113 0 -164.5 59t-51.5 178v489h119v-505q0 -62 24 -90.5t75 -28.5q104 0 104 119zM331 860q0 21 -14.5 36.5t-37.5 15.5q-22 0 -37 -15t-15 -36t15 -36.5t37 -15.5q23 0 37.5 15t14.5 36zM378 860q0 -42 -28 -70.5
t-71 -28.5t-71 28.5t-28 70.5t28 71t71 29t71 -29t28 -71z" />
    <glyph glyph-name="uring" unicode="&#x16f;" horiz-adv-x="454" 
d="M284 667q0 21 -14.5 36.5t-37.5 15.5q-22 0 -37 -15t-15 -36t15 -36.5t37 -15.5q23 0 37.5 15t14.5 36zM331 667q0 -42 -28 -70.5t-71 -28.5t-71 28.5t-28 70.5t28 71t71 29t71 -29t28 -71zM401 0h-103v62q-65 -71 -137 -71q-65 0 -91 46q-22 35 -22 122v361h108v-349
q0 -43 12 -61.5t41 -18.5q41 0 85 52v377h107v-520z" />
    <glyph glyph-name="Uhungarumlaut" unicode="&#x170;" horiz-adv-x="557" 
d="M381 213v505h117v-489q0 -118 -54 -177.5t-169 -59.5q-113 0 -164.5 59t-51.5 178v489h119v-505q0 -62 24 -90.5t75 -28.5q104 0 104 119zM399 769h-80l78 142h119zM231 769h-80l78 142h119z" />
    <glyph glyph-name="uhungarumlaut" unicode="&#x171;" horiz-adv-x="454" 
d="M401 0h-103v62q-65 -71 -137 -71q-65 0 -91 46q-22 35 -22 122v361h108v-349q0 -43 12 -61.5t41 -18.5q41 0 85 52v377h107v-520zM348 576h-80l78 142h119zM180 576h-80l78 142h119z" />
    <glyph glyph-name="Uogonek" unicode="&#x172;" horiz-adv-x="557" 
d="M417 -121v-53q-18 -6 -53 -6q-93 0 -93 80q0 44 41 92v2q-16 -2 -37 -2q-113 0 -164.5 59t-51.5 178v489h119v-505q0 -62 24 -90.5t75 -28.5q104 0 104 119v505h117v-489q0 -152 -90 -207q-64 -57 -64 -107q0 -39 40 -39q20 0 33 3z" />
    <glyph glyph-name="uogonek" unicode="&#x173;" horiz-adv-x="454" 
d="M401 0h-39q-60 -46 -60 -88q0 -36 38 -36q22 0 35 3v-53q-18 -6 -53 -6q-94 0 -94 77q0 58 70 114v51q-65 -71 -137 -71q-65 0 -91 46q-22 35 -22 122v361h108v-349q0 -43 12 -61.5t41 -18.5q41 0 85 52v377h107v-520z" />
    <glyph glyph-name="Wcircumflex" unicode="&#x174;" horiz-adv-x="703" 
d="M554 0h-119l-82 489h-2l-78 -489h-120l-144 718h119l84 -492h2l82 492h117l81 -491h2l84 491h117zM498 769h-78l-65 91l-65 -91h-78l80 142h127z" />
    <glyph glyph-name="wcircumflex" unicode="&#x175;" horiz-adv-x="584" 
d="M438 576h-78l-65 91l-65 -91h-78l80 142h127zM459 0h-97l-68 326h-2l-71 -326h-97l-125 520h109l68 -332h2l66 332h99l66 -332h2l68 332h106z" />
    <glyph glyph-name="Ycircumflex" unicode="&#x176;" horiz-adv-x="467" 
d="M293 0h-119v290l-177 428h126l109 -292h2l115 292h124l-180 -428v-290zM380 769h-78l-65 91l-65 -91h-78l80 142h127z" />
    <glyph glyph-name="ycircumflex" unicode="&#x177;" horiz-adv-x="395" 
d="M254 -2q-29 -104 -68 -141.5t-114 -37.5q-36 0 -59 4v92q19 -2 43 -2q38 0 58 18t33 64l5 19l-154 506h120l85 -351h2l80 351h112zM346 576h-78l-65 91l-65 -91h-78l80 142h127z" />
    <glyph glyph-name="Ydieresis" unicode="&#x178;" horiz-adv-x="467" 
d="M293 0h-119v290l-177 428h126l109 -292h2l115 292h124l-180 -428v-290zM211 779h-101v106h101v-106zM364 779h-100v106h100v-106z" />
    <glyph glyph-name="Zacute" unicode="&#x179;" horiz-adv-x="466" 
d="M437 0h-414v108l271 502h-251v108h392v-106l-277 -504h279v-108zM273 769h-80l78 142h119z" />
    <glyph glyph-name="zacute" unicode="&#x17a;" horiz-adv-x="373" 
d="M225 576h-80l78 142h119zM352 0h-336v80l204 351h-185v89h311v-81l-204 -350h210v-89z" />
    <glyph glyph-name="Zdotaccent" unicode="&#x17b;" horiz-adv-x="466" 
d="M286 779h-99v106h99v-106zM437 0h-414v108l271 502h-251v108h392v-106l-277 -504h279v-108z" />
    <glyph glyph-name="zdotaccent" unicode="&#x17c;" horiz-adv-x="373" 
d="M352 0h-336v80l204 351h-185v89h311v-81l-204 -350h210v-89zM240 586h-99v106h99v-106z" />
    <glyph glyph-name="Zcaron" unicode="&#x17d;" horiz-adv-x="466" 
d="M301 769h-127l-79 142h79l64 -91l65 91h78zM437 0h-414v108l271 502h-251v108h392v-106l-277 -504h279v-108z" />
    <glyph glyph-name="zcaron" unicode="&#x17e;" horiz-adv-x="373" 
d="M256 576h-127l-79 142h79l64 -91l65 91h78zM352 0h-336v80l204 351h-185v89h311v-81l-204 -350h210v-89z" />
    <glyph glyph-name="florin" unicode="&#x192;" horiz-adv-x="476" 
d="M4 -174l15 93q15 -5 35 -5q41 0 62 29.5t29 103.5l34 309h-114v71h122l9 82q5 52 14.5 87.5t29 67t53.5 47.5t83 16q33 0 62 -7l-13 -92q-20 5 -35 5q-43 0 -61.5 -28.5t-26.5 -101.5l-9 -76h115v-71h-122l-35 -316q-12 -112 -53 -166.5t-130 -54.5q-36 0 -64 7z" />
    <glyph glyph-name="Aringacute" unicode="&#x1fa;" horiz-adv-x="515" 
d="M355 794q0 -47 -34 -76h14l167 -718h-122l-38 184h-172l-37 -184h-120l163 718h15q-34 29 -34 76q0 42 28 71t71 29t71 -29t28 -71zM254 602l-63 -313h130l-64 313h-3zM296 904h-80l78 142h119zM308 794q0 21 -14.5 36.5t-37.5 15.5q-22 0 -37 -15t-15 -36t15 -36.5
t37 -15.5q23 -1 37.5 14t14.5 37z" />
    <glyph glyph-name="aringacute" unicode="&#x1fb;" horiz-adv-x="429" 
d="M388 0h-101l-6 55q-62 -64 -141 -64q-55 0 -86 36t-31 101q0 89 66 137q45 35 187 77q5 52 -9 76.5t-53 24.5q-61 0 -84 -72l-86 21q38 138 176 138q84 0 122 -40t38 -124v-268zM273 130v137q-82 -23 -112 -48q-29 -23 -29 -75q0 -64 51 -64q53 0 90 50zM272 642
q0 21 -14.5 36.5t-37.5 15.5q-22 0 -37 -15t-15 -36t15 -36.5t37 -15.5q23 0 37.5 15t14.5 36zM319 642q0 -42 -28 -70.5t-71 -28.5t-71 28.5t-28 70.5t28 71t71 29t71 -29t28 -71zM259 758h-80l78 142h119z" />
    <glyph glyph-name="AEacute" unicode="&#x1fc;" horiz-adv-x="746" 
d="M460 769h-80l78 142h119zM724 0h-370v184h-170l-68 -184h-121l278 718h439v-108h-239v-187h175v-104h-175v-211h251v-108zM342 613l-120 -324h132v324h-12z" />
    <glyph glyph-name="aeacute" unicode="&#x1fd;" horiz-adv-x="657" 
d="M371 576h-80l78 142h119zM627 148q-40 -157 -178 -157q-104 0 -144 85q-71 -85 -162 -85q-58 0 -89 36t-31 101q0 89 66 137q51 40 179 77q5 53 -8.5 77t-52.5 24q-54 0 -77 -72l-86 21q38 138 166 138q87 0 120 -56q45 56 123 56q91 0 133 -66t42 -174q0 -13 -2 -51
h-257q2 -84 21 -122t64 -38q33 0 52 21.5t32 65.5zM265 130v137q-70 -19 -104 -46q-29 -26 -29 -77q0 -64 52 -64q44 0 81 50zM370 316h155q0 129 -73 129q-74 0 -82 -129z" />
    <glyph glyph-name="Oslashacute" unicode="&#x1fe;" horiz-adv-x="544" 
d="M146 -67h-86l51 129q-76 91 -76 297q0 368 237 368q52 0 96 -19l31 77h87l-51 -128q75 -91 75 -298q0 -179 -59.5 -273.5t-178.5 -94.5q-52 0 -95 19zM147 359q0 -98 16 -162h2l164 412q-25 17 -57 17q-125 0 -125 -267zM272 92q62 0 93.5 63t31.5 204q0 94 -16 158h-2
l-163 -409q23 -16 56 -16zM312 769h-80l78 142h119z" />
    <glyph glyph-name="oslashacute" unicode="&#x1ff;" horiz-adv-x="443" 
d="M126 -67h-74l42 105q-64 66 -64 220q0 272 192 272q37 0 68 -11l28 69h73l-43 -107q64 -67 64 -223q0 -267 -190 -267q-34 0 -69 10zM222 76q46 0 67.5 44.5t21.5 137.5q0 63 -10 104h-2l-112 -278q13 -8 35 -8zM132 258q0 -66 9 -101h2l113 279q-16 8 -34 8
q-90 0 -90 -186zM262 576h-80l78 142h119z" />
    <glyph glyph-name="Scommaaccent" unicode="&#x218;" horiz-adv-x="473" 
d="M241 -197h-55l42 74h-35v82h95v-78zM430 548l-103 -20q-12 49 -34.5 74t-62.5 25q-38 0 -59.5 -20t-21.5 -54q0 -27 12.5 -49.5t33.5 -38t47 -32.5t54 -31.5t54 -35.5t47 -44.5t33.5 -58.5t12.5 -77q0 -93 -56.5 -144t-153.5 -51q-94 0 -143.5 46t-67.5 145l110 19
q11 -57 35 -83.5t70 -26.5q41 0 66 22.5t25 63.5q0 43 -30 76t-72.5 57t-85.5 51.5t-73 74t-30 110.5q0 83 51.5 132t140.5 49q168 0 201 -179z" />
    <glyph glyph-name="scommaaccent" unicode="&#x219;" horiz-adv-x="381" 
d="M194 -197h-55l42 74h-35v82h95v-78zM345 405l-84 -23q-23 64 -76 64q-26 0 -41 -14t-15 -37q0 -26 23.5 -45.5t57.5 -35t67.5 -35t57 -55t23.5 -85.5q0 -71 -44.5 -109.5t-123.5 -38.5q-73 0 -113 32t-59 103l87 24q14 -40 33.5 -58t52.5 -18q30 0 47.5 15t17.5 41
q0 30 -23.5 52t-56.5 38.5t-66 35t-56.5 53t-23.5 81.5q0 63 41.5 101.5t112.5 38.5q68 0 106 -31t55 -94z" />
    <glyph glyph-name="uni021A" unicode="&#x21a;" horiz-adv-x="444" 
d="M223 -197h-55l42 74h-35v82h95v-78zM281 0h-118v610h-148v108h414v-108h-148v-610z" />
    <glyph glyph-name="uni021B" unicode="&#x21b;" horiz-adv-x="297" 
d="M183 -197h-55l42 74h-35v82h95v-78zM278 99v-96q-42 -8 -82 -8q-65 0 -91.5 28.5t-26.5 102.5v305h-69v89h69v169h105v-169h95v-89h-95v-287q0 -52 45 -52q26 0 50 7z" />
    <glyph glyph-name="dotlessj" unicode="&#x237;" horiz-adv-x="213" 
d="M164 -34q0 -75 -32 -111t-101 -36q-33 0 -58 4v94q19 -4 35 -4q49 0 49 51v556h107v-554z" />
    <glyph glyph-name="circumflex" unicode="&#x2c6;" horiz-adv-x="365" 
d="M325 576h-78l-65 91l-65 -91h-78l80 142h127z" />
    <glyph glyph-name="caron" unicode="&#x2c7;" horiz-adv-x="365" 
d="M245 576h-127l-79 142h79l64 -91l65 91h78z" />
    <glyph glyph-name="uni02C9" unicode="&#x2c9;" horiz-adv-x="365" 
d="M321 605h-279v70h279v-70z" />
    <glyph glyph-name="breve" unicode="&#x2d8;" horiz-adv-x="365" 
d="M268 709h62q-5 -63 -44.5 -97.5t-106.5 -34.5q-66 0 -103 34.5t-42 97.5h62q12 -62 85 -62q76 0 87 62z" />
    <glyph glyph-name="dotaccent" unicode="&#x2d9;" horiz-adv-x="365" 
d="M231 586h-99v106h99v-106z" />
    <glyph glyph-name="ring" unicode="&#x2da;" horiz-adv-x="365" 
d="M234 667q0 21 -14.5 36.5t-37.5 15.5q-22 0 -37 -15t-15 -36t15 -36.5t37 -15.5q23 0 37.5 15t14.5 36zM281 667q0 -42 -28 -70.5t-71 -28.5t-71 28.5t-28 70.5t28 71t71 29t71 -29t28 -71z" />
    <glyph glyph-name="ogonek" unicode="&#x2db;" horiz-adv-x="365" 
d="M255 -121v-53q-18 -6 -53 -6q-94 0 -94 77q0 41 26 72t88 76l30 -38q-70 -51 -70 -95q0 -36 38 -36q22 0 35 3z" />
    <glyph glyph-name="tilde" unicode="&#x2dc;" horiz-adv-x="365" 
d="M277 698h64q-15 -114 -96 -114q-29 0 -67 18.5t-56 18.5q-27 0 -34 -40h-64q13 113 96 113q29 0 66.5 -18t56.5 -18q27 0 34 40z" />
    <glyph glyph-name="hungarumlaut" unicode="&#x2dd;" horiz-adv-x="365" 
d="M247 576h-80l78 142h119zM79 576h-80l78 142h119z" />
    <glyph glyph-name="uni0394" unicode="&#x394;" horiz-adv-x="532" 
d="M510 0h-488v117l163 601h159l166 -601v-117zM392 117l-127 491h-3l-125 -491h255z" />
    <glyph glyph-name="uni03A9" unicode="&#x3a9;" horiz-adv-x="581" 
d="M553 0h-234v117q95 150 95 310q0 94 -31 145.5t-92 51.5q-62 0 -92.5 -51.5t-30.5 -145.5q0 -163 95 -310v-117h-234v117h122q-105 145 -105 326q0 138 63.5 211t181.5 73q116 0 180 -73t64 -211q0 -180 -107 -326h125v-117z" />
    <glyph glyph-name="uni03BC" unicode="&#x3bc;" horiz-adv-x="478" 
d="M453 96v-93q-24 -8 -55 -8q-40 0 -60.5 16.5t-26.5 54.5q-54 -75 -120 -75q-21 0 -35 9v-172h-105v692h107v-350q0 -44 12.5 -62.5t40.5 -18.5q42 0 86 52v379h107v-395q0 -33 25 -33q8 0 24 4z" />
    <glyph glyph-name="pi" unicode="&#x3c0;" horiz-adv-x="541" 
d="M514 98v-95q-37 -8 -81 -8q-65 0 -89.5 33.5t-24.5 118.5v261h-95l-44 -408h-99l46 406q-64 -7 -113 -56v123q53 47 134 47h366v-112h-96v-254q0 -34 11 -48t38 -14q19 0 47 6z" />
    <glyph glyph-name="Wgrave" unicode="&#x1e80;" horiz-adv-x="703" 
d="M395 769h-79l-118 142h120zM554 0h-119l-82 489h-2l-78 -489h-120l-144 718h119l84 -492h2l82 492h117l81 -491h2l84 491h117z" />
    <glyph glyph-name="wgrave" unicode="&#x1e81;" horiz-adv-x="584" 
d="M459 0h-97l-68 326h-2l-71 -326h-97l-125 520h109l68 -332h2l66 332h99l66 -332h2l68 332h106zM335 576h-79l-118 142h120z" />
    <glyph glyph-name="Wacute" unicode="&#x1e82;" horiz-adv-x="703" 
d="M396 769h-80l78 142h119zM554 0h-119l-82 489h-2l-78 -489h-120l-144 718h119l84 -492h2l82 492h117l81 -491h2l84 491h117z" />
    <glyph glyph-name="wacute" unicode="&#x1e83;" horiz-adv-x="584" 
d="M335 576h-80l78 142h119zM459 0h-97l-68 326h-2l-71 -326h-97l-125 520h109l68 -332h2l66 332h99l66 -332h2l68 332h106z" />
    <glyph glyph-name="Wdieresis" unicode="&#x1e84;" horiz-adv-x="703" 
d="M330 779h-101v106h101v-106zM483 779h-100v106h100v-106zM554 0h-119l-82 489h-2l-78 -489h-120l-144 718h119l84 -492h2l82 492h117l81 -491h2l84 491h117z" />
    <glyph glyph-name="wdieresis" unicode="&#x1e85;" horiz-adv-x="584" 
d="M268 586h-101v106h101v-106zM421 586h-100v106h100v-106zM459 0h-97l-68 326h-2l-71 -326h-97l-125 520h109l68 -332h2l66 332h99l66 -332h2l68 332h106z" />
    <glyph glyph-name="Ygrave" unicode="&#x1ef2;" horiz-adv-x="467" 
d="M293 0h-119v290l-177 428h126l109 -292h2l115 292h124l-180 -428v-290zM278 769h-79l-118 142h120z" />
    <glyph glyph-name="ygrave" unicode="&#x1ef3;" horiz-adv-x="395" 
d="M254 -2q-29 -104 -68 -141.5t-114 -37.5q-36 0 -59 4v92q19 -2 43 -2q38 0 58 18t33 64l5 19l-154 506h120l85 -351h2l80 351h112zM247 576h-79l-118 142h120z" />
    <glyph glyph-name="endash" unicode="&#x2013;" horiz-adv-x="547" 
d="M519 236h-492v54h492v-54z" />
    <glyph glyph-name="emdash" unicode="&#x2014;" horiz-adv-x="826" 
d="M826 236h-826v54h826v-54z" />
    <glyph glyph-name="quoteleft" unicode="&#x2018;" horiz-adv-x="232" 
d="M175 439h-121v128l66 151h68l-56 -144h43v-135z" />
    <glyph glyph-name="quoteright" unicode="&#x2019;" horiz-adv-x="232" 
d="M113 439h-68l56 144h-44v135h122v-129z" />
    <glyph glyph-name="quotesinglbase" unicode="&#x201a;" horiz-adv-x="232" 
d="M113 -144h-68l56 144h-44v135h122v-129z" />
    <glyph glyph-name="quotedblleft" unicode="&#x201c;" horiz-adv-x="410" 
d="M352 439h-121v128l66 151h69l-57 -144h43v-135zM175 439h-121v128l66 151h68l-56 -144h43v-135z" />
    <glyph glyph-name="quotedblright" unicode="&#x201d;" horiz-adv-x="409" 
d="M113 439h-68l56 144h-44v135h122v-129zM291 439h-69l56 144h-43v135h121v-129z" />
    <glyph glyph-name="quotedblbase" unicode="&#x201e;" horiz-adv-x="409" 
d="M113 -144h-68l56 144h-44v135h122v-129zM291 -144h-69l56 144h-43v135h121v-129z" />
    <glyph glyph-name="dagger" unicode="&#x2020;" horiz-adv-x="409" 
d="M218 -84h-28l-28 410l22 167l-145 -22v82l145 -20l-21 194h83l-22 -194l145 19v-81l-145 22l23 -167z" />
    <glyph glyph-name="daggerdbl" unicode="&#x2021;" horiz-adv-x="409" 
d="M245 -84h-82l22 196l-146 -20v81l146 -22l-23 171l22 171l-145 -22v82l145 -20l-21 194h83l-22 -194l145 19v-81l-145 22l23 -171l-22 -171l144 22v-82l-144 21z" />
    <glyph glyph-name="bullet" unicode="&#x2022;" horiz-adv-x="468" 
d="M413 359q0 -74 -53 -126.5t-127 -52.5t-126.5 52.5t-52.5 126.5t52.5 127t126.5 53t127 -53t53 -127z" />
    <glyph glyph-name="ellipsis" unicode="&#x2026;" horiz-adv-x="876" 
d="M168 0h-121v135h121v-135zM812 0h-122v135h122v-135zM490 0h-122v135h122v-135z" />
    <glyph glyph-name="perthousand" unicode="&#x2030;" horiz-adv-x="914" 
d="M143 -23h-69l381 762h69zM440 55q36 0 56 22t20 58t-20 59t-56 23t-56.5 -23t-20.5 -59t20.5 -58t56.5 -22zM440 -9q-65 0 -104.5 41.5t-39.5 102.5q0 63 39.5 105t104.5 42q63 0 103 -42t40 -105q0 -61 -40 -102.5t-103 -41.5zM162 501q36 0 56 22.5t20 58.5
q0 35 -20 58t-56 23t-56.5 -23t-20.5 -58q0 -36 20 -58.5t57 -22.5zM162 436q-64 0 -104 42.5t-40 103.5q0 63 40 104t104 41t103.5 -41.5t39.5 -103.5q0 -61 -40 -103.5t-103 -42.5zM752 55q36 0 56.5 22t20.5 58t-20.5 59t-56.5 23t-56 -23t-20 -59t20 -58t56 -22zM752 -9
q-64 0 -103.5 41.5t-39.5 102.5q0 63 39.5 105t103.5 42t104 -42t40 -105q0 -61 -40 -102.5t-104 -41.5z" />
    <glyph glyph-name="guilsinglleft" unicode="&#x2039;" horiz-adv-x="286" 
d="M236 100h-101l-95 163l95 160h101l-96 -161z" />
    <glyph glyph-name="guilsinglright" unicode="&#x203a;" horiz-adv-x="286" 
d="M151 100h-101l96 162l-96 161h102l94 -160z" />
    <glyph glyph-name="fraction" unicode="&#x2044;" horiz-adv-x="150" 
d="M-80 -23h-68l380 762h69z" />
    <glyph glyph-name="zero.superior" unicode="&#x2070;" 
d="M164 404q-75 0 -111 56.5t-36 180.5t35.5 183t111.5 59q75 0 110 -59t35 -183t-35.5 -180.5t-109.5 -56.5zM164 479q28 0 40.5 37t12.5 125q0 90 -12.5 129t-40.5 39q-29 0 -41.5 -39t-12.5 -129q0 -88 12.5 -125t41.5 -37z" />
    <glyph glyph-name="four.superior" unicode="&#x2074;" 
d="M259 410h-86v107h-165v78l142 282h109v-286h55v-74h-55v-107zM173 591v171h-1l-89 -171h90z" />
    <glyph glyph-name="five.superior" unicode="&#x2075;" 
d="M303 572q0 -79 -38.5 -123.5t-107.5 -44.5q-55 0 -91 24.5t-51 88.5l79 23q15 -60 59 -60q59 0 59 91q0 83 -57 83q-35 0 -52 -36l-72 9l17 250h227v-78h-164l-8 -105h2q31 30 77 30q57 0 89 -39.5t32 -112.5z" />
    <glyph glyph-name="six.superior" unicode="&#x2076;" 
d="M310 564q0 -75 -39 -117.5t-104 -42.5q-148 0 -148 217q0 262 162 262q90 0 121 -79l-62 -35q-26 40 -58 40q-71 0 -73 -140h1q35 38 88 38q54 0 83 -37t29 -106zM222 559q0 76 -55 76q-19 0 -36 -12.5t-21 -30.5q0 -113 58 -113q26 0 40 21.5t14 58.5z" />
    <glyph glyph-name="seven.superior" unicode="&#x2077;" 
d="M152 410h-95l154 385h-187v82h278v-67z" />
    <glyph glyph-name="eight.superior" unicode="&#x2078;" 
d="M313 535q0 -61 -41 -96t-112 -35q-69 0 -108 34t-39 93q0 70 80 119v2q-66 46 -66 114q0 52 36 84.5t100 32.5q68 0 103 -31t35 -83q0 -67 -71 -106v-2q83 -47 83 -126zM227 534q0 19 -12.5 35t-25 24.5t-40.5 23.5q-51 -36 -51 -82q0 -28 17.5 -44t46.5 -16
q30 0 47.5 16t17.5 43zM218 763q0 23 -15 37.5t-39 14.5t-38.5 -14.5t-14.5 -34.5q0 -24 16.5 -40.5t49.5 -33.5q41 32 41 71z" />
    <glyph glyph-name="nine.superior" unicode="&#x2079;" 
d="M216 618h-2q-37 -38 -88 -38q-54 0 -83 37.5t-29 106.5q0 74 39 116.5t105 42.5q147 0 147 -216q0 -263 -161 -263q-89 0 -122 80l62 35q26 -40 59 -40q68 0 73 139zM215 696q0 113 -57 113q-27 0 -41.5 -21.5t-14.5 -59.5q0 -76 56 -76q18 0 35 12.5t22 31.5z" />
    <glyph glyph-name="zero.inferior" unicode="&#x2080;" 
d="M164 -182q-75 0 -111 56.5t-36 180.5t35.5 183t111.5 59q75 0 110 -59t35 -183t-35.5 -180.5t-109.5 -56.5zM164 -107q28 0 40.5 37t12.5 125q0 90 -12.5 129t-40.5 39q-29 0 -41.5 -39t-12.5 -129q0 -88 12.5 -125t41.5 -37z" />
    <glyph glyph-name="one.inferior" unicode="&#x2081;" 
d="M283 -176h-224v75h67v307l-79 -13v65l103 33h66v-392h67v-75z" />
    <glyph glyph-name="two.inferior" unicode="&#x2082;" 
d="M298 -176h-276v44q0 55 66 129q13 14 39.5 40t41 41.5t27 39.5t12.5 48q0 55 -48 55q-45 0 -56 -70l-79 8q12 138 141 138q64 0 97.5 -33.5t33.5 -93.5q0 -34 -16 -67.5t-33 -52.5t-47 -48.5t-40 -40.5q-31 -39 -33 -58h170v-79z" />
    <glyph glyph-name="three.inferior" unicode="&#x2083;" 
d="M301 -42q0 -65 -41 -102.5t-107 -37.5q-59 0 -95 27t-51 88l80 22q17 -62 64 -62q28 0 44.5 18.5t16.5 53.5q0 71 -82 71h-28v74h28q73 0 73 58q0 55 -51 55q-42 0 -59 -45l-73 23q37 96 140 96q64 0 98.5 -32t34.5 -86q0 -78 -74 -103v-2q82 -22 82 -116z" />
    <glyph glyph-name="four.inferior" unicode="&#x2084;" 
d="M259 -176h-86v107h-165v78l142 282h109v-286h55v-74h-55v-107zM173 5v171h-1l-89 -171h90z" />
    <glyph glyph-name="five.inferior" unicode="&#x2085;" 
d="M303 -14q0 -79 -38.5 -123.5t-107.5 -44.5q-55 0 -91 24.5t-51 88.5l79 23q15 -60 59 -60q59 0 59 91q0 83 -57 83q-35 0 -52 -36l-72 9l17 250h227v-78h-164l-8 -105h2q31 30 77 30q57 0 89 -39.5t32 -112.5z" />
    <glyph glyph-name="six.inferior" unicode="&#x2086;" 
d="M310 -22q0 -75 -39 -117.5t-104 -42.5q-148 0 -148 217q0 262 162 262q90 0 121 -79l-62 -35q-26 40 -58 40q-71 0 -73 -140h1q35 38 88 38q54 0 83 -37t29 -106zM222 -27q0 76 -55 76q-19 0 -36 -12.5t-21 -30.5q0 -113 58 -113q26 0 40 21.5t14 58.5z" />
    <glyph glyph-name="seven.inferior" unicode="&#x2087;" 
d="M152 -176h-95l154 385h-187v82h278v-67z" />
    <glyph glyph-name="eight.inferior" unicode="&#x2088;" 
d="M313 -51q0 -61 -41 -96t-112 -35q-69 0 -108 34t-39 93q0 70 80 119v2q-66 46 -66 114q0 52 36 84.5t100 32.5q68 0 103 -31t35 -83q0 -67 -71 -106v-2q83 -47 83 -126zM227 -52q0 19 -12.5 35t-25 24.5t-40.5 23.5q-51 -36 -51 -82q0 -28 17.5 -44t46.5 -16
q30 0 47.5 16t17.5 43zM218 177q0 23 -15 37.5t-39 14.5t-38.5 -14.5t-14.5 -34.5q0 -24 16.5 -40.5t49.5 -33.5q41 32 41 71z" />
    <glyph glyph-name="nine.inferior" unicode="&#x2089;" 
d="M216 32h-2q-37 -38 -88 -38q-54 0 -83 37.5t-29 106.5q0 74 39 116.5t105 42.5q147 0 147 -216q0 -263 -161 -263q-89 0 -122 80l62 35q26 -40 59 -40q68 0 73 139zM215 110q0 113 -57 113q-27 0 -41.5 -21.5t-14.5 -59.5q0 -76 56 -76q18 0 35 12.5t22 31.5z" />
    <glyph glyph-name="Euro" unicode="&#x20ac;" horiz-adv-x="476" 
d="M471 168q-22 -101 -70.5 -139t-122.5 -38q-98 0 -142.5 69t-54.5 205h-69v71h66v31v36h-66v71h71q27 253 205 253q78 0 122 -41t58 -127l-101 -14q-10 41 -27.5 61.5t-50.5 20.5q-75 0 -91 -153h178v-71h-182v-36v-31h182v-71h-180q6 -87 25.5 -131t62.5 -44
q36 0 54.5 24t29.5 73z" />
    <glyph glyph-name="afii61289" unicode="&#x2113;" horiz-adv-x="403" 
d="M340 96v-93q-43 -8 -85 -8q-80 0 -121 37t-56 117q-32 -5 -59 -5v92q28 0 49 4q-3 38 -3 127q0 187 35 273.5t126 86.5q140 0 140 -189q0 -120 -49 -213t-135 -140q8 -52 29.5 -74.5t65.5 -22.5q28 0 63 8zM174 367v-75q87 79 87 243q0 98 -40 98q-29 0 -38 -55.5
t-9 -210.5z" />
    <glyph glyph-name="trademark" unicode="&#x2122;" horiz-adv-x="600" 
d="M154 359h-68v297h-72v62h212v-62h-72v-297zM557 359h-62v249h-2l-56 -249h-52l-58 249h-2v-249h-62v359h94l52 -224h2l55 224h91v-359z" />
    <glyph glyph-name="Omega" unicode="&#x2126;" horiz-adv-x="581" 
d="M553 0h-234v117q95 150 95 310q0 94 -31 145.5t-92 51.5q-62 0 -92.5 -51.5t-30.5 -145.5q0 -163 95 -310v-117h-234v117h122q-105 145 -105 326q0 138 63.5 211t181.5 73q116 0 180 -73t64 -211q0 -180 -107 -326h125v-117z" />
    <glyph glyph-name="estimated" unicode="&#x212e;" horiz-adv-x="850" 
d="M684 139h69q-63 -71 -141.5 -111.5t-197.5 -40.5q-159 0 -272.5 100t-113.5 266q0 162 121 269.5t290 107.5q94 0 171 -32.5t123.5 -86t71.5 -118t25 -133.5v-5h-631l-8 -10v-237q93 -84 229 -84q161 0 264 115zM660 392l8 10v211q-86 80 -229 80q-153 0 -248 -90v-201
l8 -10h461z" />
    <glyph glyph-name="onethird" unicode="&#x2153;" horiz-adv-x="803" 
d="M778 134q0 -65 -41 -102.5t-107 -37.5q-59 0 -95 27t-51 88l80 22q17 -62 64 -62q28 0 44.5 18.5t16.5 53.5q0 71 -82 71h-28v74h28q73 0 73 58q0 55 -51 55q-42 0 -59 -45l-73 23q37 96 140 96q64 0 98.5 -32t34.5 -86q0 -78 -74 -103v-2q82 -22 82 -116zM246 -23h-68
l380 762h69zM283 251h-224v75h67v307l-79 -13v65l103 33h66v-392h67v-75z" />
    <glyph glyph-name="twothirds" unicode="&#x2154;" horiz-adv-x="819" 
d="M298 251h-276v44q0 55 66 129q13 14 39.5 40t41 41.5t27 40t12.5 47.5q0 55 -48 55q-45 0 -56 -70l-79 8q12 138 141 138q64 0 97.5 -34t33.5 -93q0 -34 -16 -67.5t-33 -52.5t-47 -48.5t-40 -40.5q-31 -39 -33 -58h170v-79zM262 -23h-68l380 762h69zM793 134
q0 -65 -41 -102.5t-107 -37.5q-59 0 -95 27t-51 88l80 22q17 -62 64 -62q28 0 44.5 18.5t16.5 53.5q0 71 -82 71h-28v74h28q73 0 73 58q0 55 -51 55q-42 0 -59 -45l-73 23q37 96 140 96q64 0 98.5 -32t34.5 -86q0 -78 -74 -103v-2q82 -22 82 -116z" />
    <glyph glyph-name="onefifth" unicode="&#x2155;" horiz-adv-x="803" 
d="M780 162q0 -79 -38.5 -123.5t-107.5 -44.5q-55 0 -91 24.5t-51 88.5l79 23q15 -60 59 -60q59 0 59 91q0 83 -57 83q-35 0 -52 -36l-72 9l17 250h227v-78h-164l-8 -105h2q31 30 77 30q57 0 89 -39.5t32 -112.5zM246 -23h-68l380 762h69zM283 251h-224v75h67v307l-79 -13
v65l103 33h66v-392h67v-75z" />
    <glyph glyph-name="twofifths" unicode="&#x2156;" horiz-adv-x="819" 
d="M298 251h-276v44q0 55 66 129q13 14 39.5 40t41 41.5t27 40t12.5 47.5q0 55 -48 55q-45 0 -56 -70l-79 8q12 138 141 138q64 0 97.5 -34t33.5 -93q0 -34 -16 -67.5t-33 -52.5t-47 -48.5t-40 -40.5q-31 -39 -33 -58h170v-79zM795 162q0 -79 -38.5 -123.5t-107.5 -44.5
q-55 0 -91 24.5t-51 88.5l79 23q15 -60 59 -60q59 0 59 91q0 83 -57 83q-35 0 -52 -36l-72 9l17 250h227v-78h-164l-8 -105h2q31 30 77 30q57 0 89 -39.5t32 -112.5zM262 -23h-68l380 762h69z" />
    <glyph glyph-name="threefifths" unicode="&#x2157;" horiz-adv-x="803" 
d="M301 385q0 -65 -41 -102.5t-107 -37.5q-59 0 -95 27t-51 88l80 22q17 -62 64 -62q28 0 44.5 18.5t16.5 53.5q0 71 -82 71h-28v74h28q73 0 73 58q0 55 -51 55q-42 0 -59 -45l-73 23q37 96 140 96q64 0 98.5 -32t34.5 -86q0 -78 -74 -103v-2q82 -22 82 -116zM780 162
q0 -79 -38.5 -123.5t-107.5 -44.5q-55 0 -91 24.5t-51 88.5l79 23q15 -60 59 -60q59 0 59 91q0 83 -57 83q-35 0 -52 -36l-72 9l17 250h227v-78h-164l-8 -105h2q31 30 77 30q57 0 89 -39.5t32 -112.5zM246 -23h-68l380 762h69z" />
    <glyph glyph-name="fourfifths" unicode="&#x2158;" horiz-adv-x="803" 
d="M780 162q0 -79 -38.5 -123.5t-107.5 -44.5q-55 0 -91 24.5t-51 88.5l79 23q15 -60 59 -60q59 0 59 91q0 83 -57 83q-35 0 -52 -36l-72 9l17 250h227v-78h-164l-8 -105h2q31 30 77 30q57 0 89 -39.5t32 -112.5zM259 251h-86v107h-165v78l142 282h109v-286h55v-74h-55v-107
zM173 432v171h-1l-89 -171h90zM246 -23h-68l380 762h69z" />
    <glyph glyph-name="onesixth" unicode="&#x2159;" horiz-adv-x="799" 
d="M782 154q0 -75 -39 -117.5t-104 -42.5q-148 0 -148 217q0 262 162 262q90 0 121 -79l-62 -35q-26 40 -58 40q-71 0 -73 -140h1q35 38 88 38q54 0 83 -37t29 -106zM694 149q0 76 -55 76q-19 0 -36 -12.5t-21 -30.5q0 -113 58 -113q26 0 40 21.5t14 58.5zM246 -23h-68
l380 762h69zM283 251h-224v75h67v307l-79 -13v65l103 33h66v-392h67v-75z" />
    <glyph glyph-name="fivesixths" unicode="&#x215a;" horiz-adv-x="799" 
d="M303 413q0 -79 -38.5 -123.5t-107.5 -44.5q-55 0 -91 24.5t-51 88.5l79 23q15 -60 59 -60q59 0 59 91q0 83 -57 83q-35 0 -52 -36l-72 9l17 250h227v-78h-164l-8 -105h2q31 30 77 30q57 0 89 -39.5t32 -112.5zM782 154q0 -75 -39 -117.5t-104 -42.5q-148 0 -148 217
q0 262 162 262q90 0 121 -79l-62 -35q-26 40 -58 40q-71 0 -73 -140h1q35 38 88 38q54 0 83 -37t29 -106zM694 149q0 76 -55 76q-19 0 -36 -12.5t-21 -30.5q0 -113 58 -113q26 0 40 21.5t14 58.5zM246 -23h-68l380 762h69z" />
    <glyph glyph-name="oneeighth" unicode="&#x215b;" horiz-adv-x="803" 
d="M246 -23h-68l380 762h69zM790 125q0 -61 -41 -96t-112 -35q-69 0 -108 34t-39 93q0 70 80 119v2q-66 46 -66 114q0 52 36 84.5t100 32.5q68 0 103 -31t35 -83q0 -67 -71 -106v-2q83 -47 83 -126zM704 124q0 19 -12.5 35t-25 24.5t-40.5 23.5q-51 -36 -51 -82
q0 -28 17.5 -44t46.5 -16q30 0 47.5 16t17.5 43zM695 353q0 23 -15 37.5t-39 14.5q-25 0 -39 -14.5t-14 -34.5q0 -24 16.5 -40.5t49.5 -33.5q41 32 41 71zM283 251h-224v75h67v307l-79 -13v65l103 33h66v-392h67v-75z" />
    <glyph glyph-name="threeeighths" unicode="&#x215c;" horiz-adv-x="803" 
d="M301 385q0 -65 -41 -102.5t-107 -37.5q-59 0 -95 27t-51 88l80 22q17 -62 64 -62q28 0 44.5 18.5t16.5 53.5q0 71 -82 71h-28v74h28q73 0 73 58q0 55 -51 55q-42 0 -59 -45l-73 23q37 96 140 96q64 0 98.5 -32t34.5 -86q0 -78 -74 -103v-2q82 -22 82 -116zM246 -23h-68
l380 762h69zM790 125q0 -61 -41 -96t-112 -35q-69 0 -108 34t-39 93q0 70 80 119v2q-66 46 -66 114q0 52 36 84.5t100 32.5q68 0 103 -31t35 -83q0 -67 -71 -106v-2q83 -47 83 -126zM704 124q0 19 -12.5 35t-25 24.5t-40.5 23.5q-51 -36 -51 -82q0 -28 17.5 -44t46.5 -16
q30 0 47.5 16t17.5 43zM695 353q0 23 -15 37.5t-39 14.5q-25 0 -39 -14.5t-14 -34.5q0 -24 16.5 -40.5t49.5 -33.5q41 32 41 71z" />
    <glyph glyph-name="fiveeighths" unicode="&#x215d;" horiz-adv-x="803" 
d="M303 413q0 -79 -38.5 -123.5t-107.5 -44.5q-55 0 -91 24.5t-51 88.5l79 23q15 -60 59 -60q59 0 59 91q0 83 -57 83q-35 0 -52 -36l-72 9l17 250h227v-78h-164l-8 -105h2q31 30 77 30q57 0 89 -39.5t32 -112.5zM246 -23h-68l380 762h69zM790 125q0 -61 -41 -96t-112 -35
q-69 0 -108 34t-39 93q0 70 80 119v2q-66 46 -66 114q0 52 36 84.5t100 32.5q68 0 103 -31t35 -83q0 -67 -71 -106v-2q83 -47 83 -126zM704 124q0 19 -12.5 35t-25 24.5t-40.5 23.5q-51 -36 -51 -82q0 -28 17.5 -44t46.5 -16q30 0 47.5 16t17.5 43zM695 353q0 23 -15 37.5
t-39 14.5q-25 0 -39 -14.5t-14 -34.5q0 -24 16.5 -40.5t49.5 -33.5q41 32 41 71z" />
    <glyph glyph-name="seveneighths" unicode="&#x215e;" horiz-adv-x="740" 
d="M152 251h-95l154 385h-187v82h278v-67zM184 -23h-68l380 762h69zM727 125q0 -61 -41 -96t-112 -35q-69 0 -108 34t-39 93q0 70 80 119v2q-66 46 -66 114q0 52 36 84.5t100 32.5q68 0 103 -31t35 -83q0 -67 -71 -106v-2q83 -47 83 -126zM641 124q0 19 -12.5 35t-25 24.5
t-40.5 23.5q-51 -36 -51 -82q0 -28 17.5 -44t46.5 -16q30 0 47.5 16t17.5 43zM632 353q0 23 -15 37.5t-39 14.5t-38.5 -14.5t-14.5 -34.5q0 -24 16.5 -40.5t49.5 -33.5q41 32 41 71z" />
    <glyph glyph-name="partialdiff" unicode="&#x2202;" horiz-adv-x="458" 
d="M294 479l2 1q-26 90 -104 194l80 59q73 -91 113 -194t40 -239q0 -309 -211 -309q-91 0 -139.5 63.5t-48.5 190.5q0 126 48.5 193.5t128.5 67.5q54 0 91 -27zM315 365q-34 55 -87 55q-93 0 -93 -173q0 -169 81 -169q103 0 103 218q0 27 -4 69z" />
    <glyph glyph-name="Delta" unicode="&#x2206;" horiz-adv-x="532" 
d="M510 0h-488v117l163 601h159l166 -601v-117zM392 117l-127 491h-3l-125 -491h255z" />
    <glyph glyph-name="product" unicode="&#x220f;" horiz-adv-x="594" 
d="M532 -84h-119v695h-231v-695h-119v802h469v-802z" />
    <glyph glyph-name="summation" unicode="&#x2211;" horiz-adv-x="496" 
d="M477 -84h-463v117l231 307l-214 272v106h423v-107h-270l160 -202v-129l-187 -247h320v-117z" />
    <glyph glyph-name="minus" unicode="&#x2212;" horiz-adv-x="476" 
d="M447 228h-418v58h418v-58z" />
    <glyph glyph-name="uni2215" unicode="&#x2215;" horiz-adv-x="150" 
d="M-80 -23h-68l380 762h69z" />
    <glyph glyph-name="uni2219" unicode="&#x2219;" horiz-adv-x="232" 
d="M177 196h-122v134h122v-134z" />
    <glyph glyph-name="radical" unicode="&#x221a;" horiz-adv-x="508" 
d="M331 -26h-95l-95 327h-114v60h169l83 -310h2l159 759h65z" />
    <glyph glyph-name="infinity" unicode="&#x221e;" horiz-adv-x="653" 
d="M635 258q0 -88 -44.5 -144t-123.5 -56q-99 0 -145 90q-54 -90 -143 -90q-79 0 -119.5 53.5t-40.5 144.5q0 88 44 144t122 56q99 0 145 -91q54 91 144 91q79 0 120 -53.5t41 -144.5zM538 258q0 113 -72 113q-16 0 -29.5 -7.5t-22 -16.5t-19 -29.5t-15.5 -32t-16 -39.5
q18 -50 40 -76t57 -26q36 0 56.5 31t20.5 83zM115 256q0 -112 72 -112q36 0 56.5 30.5t44.5 93.5q-17 50 -39 76.5t-56 26.5q-36 0 -57 -31.5t-21 -83.5z" />
    <glyph glyph-name="integral" unicode="&#x222b;" horiz-adv-x="278" 
d="M-14 -177v92q18 -5 36 -5q57 0 57 58v603q0 81 33.5 118.5t109.5 37.5q30 0 53 -4v-92q-17 5 -32 5q-26 0 -39 -12.5t-13 -45.5v-603q0 -79 -36 -117.5t-112 -38.5q-33 0 -57 4z" />
    <glyph glyph-name="approxequal" unicode="&#x2248;" horiz-adv-x="476" 
d="M377 235h64q-7 -65 -36 -101t-80 -36q-39 0 -94 30t-80 30q-43 0 -52 -65h-64q15 137 117 137q38 0 93 -30t80 -30q45 0 52 65zM377 420h64q-7 -65 -36 -101t-80 -36q-39 0 -94 30.5t-80 30.5q-43 0 -52 -65h-64q15 136 117 136q38 0 93 -29.5t80 -29.5q45 0 52 64z" />
    <glyph glyph-name="notequal" unicode="&#x2260;" horiz-adv-x="476" 
d="M447 317h-140l-69 -120h209v-59h-242l-67 -117h-71l67 117h-105v59h138l69 120h-207v59h241l69 121h71l-69 -121h106v-59z" />
    <glyph glyph-name="lessequal" unicode="&#x2264;" horiz-adv-x="476" 
d="M422 104l-377 130v75l377 129v-65l-310 -101l310 -102v-66zM422 15h-377v59h377v-59z" />
    <glyph glyph-name="greaterequal" unicode="&#x2265;" horiz-adv-x="476" 
d="M430 234l-377 -130v66l311 102l-311 101v65l377 -129v-75zM430 15h-377v59h377v-59z" />
    <glyph glyph-name="lozenge" unicode="&#x25ca;" horiz-adv-x="425" 
d="M253 0h-81l-145 359l145 359h81l145 -359zM213 70l115 289l-115 289l-116 -289z" />
    <glyph glyph-name="grave.cap" unicode="&#xe000;" horiz-adv-x="365" 
d="M280 769h-79l-118 142h120z" />
    <glyph glyph-name="acute.cap" unicode="&#xe002;" horiz-adv-x="365" 
d="M163 769h-80l78 142h119z" />
    <glyph glyph-name="circumflex.cap" unicode="&#xe004;" horiz-adv-x="365" 
d="M325 769h-78l-65 91l-65 -91h-78l80 142h127z" />
    <glyph glyph-name="caron.cap" unicode="&#xe006;" horiz-adv-x="365" 
d="M245 769h-127l-79 142h79l64 -91l65 91h78z" />
    <glyph glyph-name="caron.alt" unicode="&#xe008;" horiz-adv-x="365" 
d="M185 572h-69l33 146h110z" />
    <glyph glyph-name="tilde.cap" unicode="&#xe009;" horiz-adv-x="365" 
d="M277 891h64q-15 -114 -96 -114q-29 0 -67 18.5t-56 18.5q-27 0 -34 -40h-64q13 113 96 113q29 0 66.5 -18t56.5 -18q27 0 34 40z" />
    <glyph glyph-name="dieresis.cap" unicode="&#xe00b;" horiz-adv-x="365" 
d="M156 779h-101v106h101v-106zM309 779h-100v106h100v-106z" />
    <glyph glyph-name="macron.cap" unicode="&#xe00d;" horiz-adv-x="365" 
d="M321 798h-279v70h279v-70z" />
    <glyph glyph-name="breve.cap" unicode="&#xe00f;" horiz-adv-x="365" 
d="M268 902h62q-5 -63 -44.5 -97.5t-106.5 -34.5q-66 0 -103 34.5t-42 97.5h62q12 -62 85 -62q76 0 87 62z" />
    <glyph glyph-name="ring.cap" unicode="&#xe011;" horiz-adv-x="365" 
d="M234 860q0 21 -14.5 36.5t-37.5 15.5q-22 0 -37 -15t-15 -36t15 -36.5t37 -15.5q23 0 37.5 15t14.5 36zM281 860q0 -42 -28 -70.5t-71 -28.5t-71 28.5t-28 70.5t28 71t71 29t71 -29t28 -71z" />
    <glyph glyph-name="hungarumlaut.cap" unicode="&#xe013;" horiz-adv-x="365" 
d="M247 769h-80l78 142h119zM79 769h-80l78 142h119z" />
    <glyph glyph-name="dotaccent.cap" unicode="&#xe015;" horiz-adv-x="365" 
d="M231 779h-99v106h99v-106z" />
    <glyph glyph-name="commaaccent" unicode="&#xe017;" horiz-adv-x="365" 
d="M186 -197h-55l42 74h-35v82h95v-78z" />
    <glyph glyph-name="commaaccent.alt" unicode="&#xe01a;" horiz-adv-x="365" 
d="M226 556h-95v79l48 77h54l-41 -74h34v-82z" />
    <glyph glyph-name="zero.prop" unicode="&#xf054;" horiz-adv-x="482" 
d="M241 -9q-106 0 -156.5 88.5t-50.5 276.5q0 189 50 280t157 91t157 -91t50 -280q0 -188 -50.5 -276.5t-156.5 -88.5zM241 85q48 0 69.5 63t21.5 208t-21.5 210.5t-69.5 65.5t-70 -65.5t-22 -210.5t21.5 -208t70.5 -63z" />
    <glyph glyph-name="zero.nominator" unicode="&#xf059;" 
d="M164 245q-75 0 -111 56.5t-36 180.5t35.5 183t111.5 59q75 0 110 -59t35 -183t-35.5 -180.5t-109.5 -56.5zM164 320q28 0 40.5 37t12.5 125q0 90 -12.5 129t-40.5 39q-29 0 -41.5 -39t-12.5 -129q0 -88 12.5 -125t41.5 -37z" />
    <glyph glyph-name="zero.denominator" unicode="&#xf05a;" 
d="M164 -6q-75 0 -111 56.5t-36 180.5t35.5 183t111.5 59q75 0 110 -59t35 -183t-35.5 -180.5t-109.5 -56.5zM164 69q28 0 40.5 37t12.5 125q0 90 -12.5 129t-40.5 39q-29 0 -41.5 -39t-12.5 -129q0 -88 12.5 -125t41.5 -37z" />
    <glyph glyph-name="one.prop" unicode="&#xf05e;" horiz-adv-x="391" 
d="M358 0h-311v96h100v508l-117 -19v83l146 50h84v-622h98v-96z" />
    <glyph glyph-name="one.superior" unicode="&#xf063;" 
d="M283 410h-224v75h67v307l-79 -13v65l103 33h66v-392h67v-75z" />
    <glyph glyph-name="one.nominator" unicode="&#xf064;" 
d="M283 251h-224v75h67v307l-79 -13v65l103 33h66v-392h67v-75z" />
    <glyph glyph-name="one.denominator" unicode="&#xf065;" 
d="M283 0h-224v75h67v307l-79 -13v65l103 33h66v-392h67v-75z" />
    <glyph glyph-name="two.prop" unicode="&#xf069;" horiz-adv-x="457" 
d="M418 0h-398v55q0 86 95 196q19 22 62 66t64.5 69t41.5 64.5t20 77.5q0 101 -82 101q-79 0 -92 -120l-103 10q18 208 200 208q95 0 143 -51t48 -143q0 -50 -25 -102t-53 -84.5t-74 -80t-63 -68.5q-51 -58 -54 -97h270v-101z" />
    <glyph glyph-name="two.superior" unicode="&#xf06e;" 
d="M298 410h-276v44q0 55 66 129q13 14 39.5 40t41 41.5t27 39.5t12.5 48q0 55 -48 55q-45 0 -56 -70l-79 8q12 138 141 138q64 0 97.5 -33.5t33.5 -93.5q0 -34 -16 -67.5t-33 -52.5t-47 -48.5t-40 -40.5q-31 -39 -33 -58h170v-79z" />
    <glyph glyph-name="two.nominator" unicode="&#xf06f;" 
d="M298 251h-276v44q0 55 66 129q13 14 39.5 40t41 41.5t27 40t12.5 47.5q0 55 -48 55q-45 0 -56 -70l-79 8q12 138 141 138q64 0 97.5 -34t33.5 -93q0 -34 -16 -67.5t-33 -52.5t-47 -48.5t-40 -40.5q-31 -39 -33 -58h170v-79z" />
    <glyph glyph-name="two.denominator" unicode="&#xf070;" 
d="M298 0h-276v44q0 55 66 129q13 14 39.5 40t41 41.5t27 39.5t12.5 48q0 55 -48 55q-45 0 -56 -70l-79 8q12 138 141 138q64 0 97.5 -33.5t33.5 -93.5q0 -34 -16 -67.5t-33 -52.5t-47 -48.5t-40 -40.5q-31 -39 -33 -58h170v-79z" />
    <glyph glyph-name="three.prop" unicode="&#xf074;" horiz-adv-x="470" 
d="M434 202q0 -99 -59.5 -155t-157.5 -56q-87 0 -137.5 41.5t-72.5 132.5l102 28q16 -55 41 -79.5t66 -24.5q48 0 75.5 32t27.5 89q0 125 -135 125h-39v97h37q124 0 124 104q0 44 -22.5 68.5t-63.5 24.5q-70 0 -98 -75l-95 30q51 143 201 143q92 0 142.5 -48.5t50.5 -131.5
q0 -118 -110 -160v-2q123 -44 123 -183z" />
    <glyph glyph-name="three.superior" unicode="&#xf079;" 
d="M301 544q0 -65 -41 -102.5t-107 -37.5q-59 0 -95 27t-51 88l80 22q17 -62 64 -62q28 0 44.5 18.5t16.5 53.5q0 71 -82 71h-28v74h28q73 0 73 58q0 55 -51 55q-42 0 -59 -45l-73 23q37 96 140 96q64 0 98.5 -32t34.5 -86q0 -78 -74 -103v-2q82 -22 82 -116z" />
    <glyph glyph-name="three.nominator" unicode="&#xf07a;" 
d="M301 385q0 -65 -41 -102.5t-107 -37.5q-59 0 -95 27t-51 88l80 22q17 -62 64 -62q28 0 44.5 18.5t16.5 53.5q0 71 -82 71h-28v74h28q73 0 73 58q0 55 -51 55q-42 0 -59 -45l-73 23q37 96 140 96q64 0 98.5 -32t34.5 -86q0 -78 -74 -103v-2q82 -22 82 -116z" />
    <glyph glyph-name="three.denominator" unicode="&#xf07b;" 
d="M301 134q0 -65 -41 -102.5t-107 -37.5q-59 0 -95 27t-51 88l80 22q17 -62 64 -62q28 0 44.5 18.5t16.5 53.5q0 71 -82 71h-28v74h28q73 0 73 58q0 55 -51 55q-42 0 -59 -45l-73 23q37 96 140 96q64 0 98.5 -32t34.5 -86q0 -78 -74 -103v-2q82 -22 82 -116z" />
    <glyph glyph-name="four.prop" unicode="&#xf07f;" horiz-adv-x="489" 
d="M381 0h-109v165h-252v103l221 452h140v-457h86v-98h-86v-165zM272 263v316h-2l-155 -316h157z" />
    <glyph glyph-name="four.nominator" unicode="&#xf084;" 
d="M259 251h-86v107h-165v78l142 282h109v-286h55v-74h-55v-107zM173 432v171h-1l-89 -171h90z" />
    <glyph glyph-name="four.denominator" unicode="&#xf085;" 
d="M259 0h-86v107h-165v78l142 282h109v-286h55v-74h-55v-107zM173 181v171h-1l-89 -171h90z" />
    <glyph glyph-name="five.prop" unicode="&#xf089;" horiz-adv-x="474" 
d="M440 246q0 -121 -56 -188t-159 -67q-79 0 -129 37.5t-73 129.5l100 28q14 -53 38 -76t61 -23q51 0 76.5 42t25.5 116q0 144 -98 144q-58 0 -87 -62l-94 12l27 379h327v-102h-243l-14 -175h2q48 42 113 42q87 0 135 -61.5t48 -175.5z" />
    <glyph glyph-name="five.nominator" unicode="&#xf08e;" 
d="M303 413q0 -79 -38.5 -123.5t-107.5 -44.5q-55 0 -91 24.5t-51 88.5l79 23q15 -60 59 -60q59 0 59 91q0 83 -57 83q-35 0 -52 -36l-72 9l17 250h227v-78h-164l-8 -105h2q31 30 77 30q57 0 89 -39.5t32 -112.5z" />
    <glyph glyph-name="five.denominator" unicode="&#xf08f;" 
d="M303 162q0 -79 -38.5 -123.5t-107.5 -44.5q-55 0 -91 24.5t-51 88.5l79 23q15 -60 59 -60q59 0 59 91q0 83 -57 83q-35 0 -52 -36l-72 9l17 250h227v-78h-164l-8 -105h2q31 30 77 30q57 0 89 -39.5t32 -112.5z" />
    <glyph glyph-name="six.prop" unicode="&#xf093;" horiz-adv-x="488" 
d="M443 606l-83 -47q-37 70 -93 70q-115 0 -120 -239h2q54 64 136 64t126.5 -57.5t44.5 -164.5q0 -113 -56.5 -177t-150.5 -64q-216 0 -216 331q0 405 234 405q65 0 107.5 -28.5t68.5 -92.5zM148 278q2 -192 101 -192q45 0 69 36.5t24 104.5q0 128 -93 128q-32 0 -60 -21.5
t-41 -55.5z" />
    <glyph glyph-name="six.nominator" unicode="&#xf098;" 
d="M310 405q0 -75 -39 -117.5t-104 -42.5q-148 0 -148 217q0 262 162 262q90 0 121 -79l-62 -35q-26 40 -58 40q-71 0 -73 -140h1q35 38 88 38q54 0 83 -37t29 -106zM222 400q0 76 -55 76q-19 0 -36 -12.5t-21 -30.5q0 -113 58 -113q26 0 40 21.5t14 58.5z" />
    <glyph glyph-name="six.denominator" unicode="&#xf099;" 
d="M310 154q0 -75 -39 -117.5t-104 -42.5q-148 0 -148 217q0 262 162 262q90 0 121 -79l-62 -35q-26 40 -58 40q-71 0 -73 -140h1q35 38 88 38q54 0 83 -37t29 -106zM222 149q0 76 -55 76q-19 0 -36 -12.5t-21 -30.5q0 -113 58 -113q26 0 40 21.5t14 58.5z" />
    <glyph glyph-name="seven.prop" unicode="&#xf09d;" horiz-adv-x="438" 
d="M186 0h-123l234 610h-285v108h404v-86z" />
    <glyph glyph-name="seven.nominator" unicode="&#xf0a2;" 
d="M152 251h-95l154 385h-187v82h278v-67z" />
    <glyph glyph-name="seven.denominator" unicode="&#xf0a3;" 
d="M152 0h-95l154 385h-187v82h278v-67z" />
    <glyph glyph-name="eight.prop" unicode="&#xf0a7;" horiz-adv-x="491" 
d="M463 190q0 -92 -58 -145.5t-163 -53.5q-104 0 -160.5 53.5t-56.5 144.5q0 111 125 185v2q-50 34 -77 73.5t-27 98.5q0 81 51.5 130t146.5 49q97 0 148.5 -46.5t51.5 -128.5q0 -105 -108 -167v-2q69 -42 98 -87.5t29 -105.5zM352 186q0 25 -9 45t-29 37.5t-36.5 28.5
t-47.5 28q-94 -57 -94 -138q0 -49 28 -77t78 -28q52 0 81 28t29 76zM336 550q0 39 -24.5 63.5t-67.5 24.5t-66.5 -24.5t-23.5 -62.5q0 -41 27.5 -68t80.5 -55q36 24 55 51.5t19 70.5z" />
    <glyph glyph-name="eight.nominator" unicode="&#xf0ac;" 
d="M313 376q0 -61 -41 -96t-112 -35q-69 0 -108 34t-39 93q0 70 80 119v2q-66 46 -66 114q0 52 36 84.5t100 32.5q68 0 103 -31t35 -83q0 -67 -71 -106v-2q83 -47 83 -126zM227 375q0 19 -12.5 35t-25 24.5t-40.5 23.5q-51 -36 -51 -82q0 -28 17.5 -44t46.5 -16
q30 0 47.5 16t17.5 43zM218 604q0 23 -15 37.5t-39 14.5t-38.5 -14t-14.5 -35q0 -24 16.5 -40.5t49.5 -33.5q41 32 41 71z" />
    <glyph glyph-name="eight.denominator" unicode="&#xf0ad;" 
d="M313 125q0 -61 -41 -96t-112 -35q-69 0 -108 34t-39 93q0 70 80 119v2q-66 46 -66 114q0 52 36 84.5t100 32.5q68 0 103 -31t35 -83q0 -67 -71 -106v-2q83 -47 83 -126zM227 124q0 19 -12.5 35t-25 24.5t-40.5 23.5q-51 -36 -51 -82q0 -28 17.5 -44t46.5 -16
q30 0 47.5 16t17.5 43zM218 353q0 23 -15 37.5t-39 14.5t-38.5 -14.5t-14.5 -34.5q0 -24 16.5 -40.5t49.5 -33.5q41 32 41 71z" />
    <glyph glyph-name="nine.prop" unicode="&#xf0b1;" horiz-adv-x="491" 
d="M336 328h-2q-54 -64 -135 -64q-83 0 -127.5 58t-44.5 164q0 113 56.5 177t150.5 64q216 0 216 -331q0 -405 -234 -405q-129 0 -175 121l82 47q37 -70 93 -70q115 0 120 239zM335 440q0 192 -101 192q-45 0 -69.5 -37t-24.5 -104q0 -128 94 -128q32 0 60 21.5t41 55.5z
" />
    <glyph glyph-name="nine.nominator" unicode="&#xf0b6;" 
d="M216 459h-2q-37 -38 -88 -38q-54 0 -83 37.5t-29 106.5q0 74 39 116.5t105 42.5q147 0 147 -216q0 -263 -161 -263q-89 0 -122 80l62 35q26 -40 59 -40q68 0 73 139zM215 537q0 113 -57 113q-27 0 -41.5 -21.5t-14.5 -59.5q0 -76 56 -76q18 0 35 12.5t22 31.5z" />
    <glyph glyph-name="nine.denominator" unicode="&#xf0b7;" 
d="M216 208h-2q-37 -38 -88 -38q-54 0 -83 37.5t-29 106.5q0 74 39 116.5t105 42.5q147 0 147 -216q0 -263 -161 -263q-89 0 -122 80l62 35q26 -40 59 -40q68 0 73 139zM215 286q0 113 -57 113q-27 0 -41.5 -21.5t-14.5 -59.5q0 -76 56 -76q18 0 35 12.5t22 31.5z" />
    <glyph glyph-name="fivesevenths" unicode="&#xf0bc;" horiz-adv-x="836" 
d="M661 0h-95l154 385h-187v82h278v-67zM303 413q0 -79 -38.5 -123.5t-107.5 -44.5q-55 0 -91 24.5t-51 88.5l79 23q15 -60 59 -60q59 0 59 91q0 83 -57 83q-35 0 -52 -36l-72 9l17 250h227v-78h-164l-8 -105h2q31 30 77 30q57 0 89 -39.5t32 -112.5zM246 -23h-68l380 762
h69z" />
    <glyph glyph-name="foursevenths" unicode="&#xf0be;" horiz-adv-x="836" 
d="M661 0h-95l154 385h-187v82h278v-67zM259 251h-86v107h-165v78l142 282h109v-286h55v-74h-55v-107zM173 432v171h-1l-89 -171h90zM246 -23h-68l380 762h69z" />
    <glyph glyph-name="oneseventh" unicode="&#xf0c1;" horiz-adv-x="836" 
d="M661 0h-95l154 385h-187v82h278v-67zM246 -23h-68l380 762h69zM283 251h-224v75h67v307l-79 -13v65l103 33h66v-392h67v-75z" />
    <glyph glyph-name="sixsevenths" unicode="&#xf0c3;" horiz-adv-x="836" 
d="M661 0h-95l154 385h-187v82h278v-67zM310 405q0 -75 -39 -117.5t-104 -42.5q-148 0 -148 217q0 262 162 262q90 0 121 -79l-62 -35q-26 40 -58 40q-71 0 -73 -140h1q35 38 88 38q54 0 83 -37t29 -106zM222 400q0 76 -55 76q-19 0 -36 -12.5t-21 -30.5q0 -113 58 -113
q26 0 40 21.5t14 58.5zM246 -23h-68l380 762h69z" />
    <glyph glyph-name="threesevenths" unicode="&#xf0c4;" horiz-adv-x="836" 
d="M661 0h-95l154 385h-187v82h278v-67zM301 385q0 -65 -41 -102.5t-107 -37.5q-59 0 -95 27t-51 88l80 22q17 -62 64 -62q28 0 44.5 18.5t16.5 53.5q0 71 -82 71h-28v74h28q73 0 73 58q0 55 -51 55q-42 0 -59 -45l-73 23q37 96 140 96q64 0 98.5 -32t34.5 -86
q0 -78 -74 -103v-2q82 -22 82 -116zM246 -23h-68l380 762h69z" />
    <glyph glyph-name="twosevenths" unicode="&#xf0c6;" horiz-adv-x="851" 
d="M677 0h-95l154 385h-187v82h278v-67zM298 251h-276v44q0 55 66 129q13 14 39.5 40t41 41.5t27 40t12.5 47.5q0 55 -48 55q-45 0 -56 -70l-79 8q12 138 141 138q64 0 97.5 -34t33.5 -93q0 -34 -16 -67.5t-33 -52.5t-47 -48.5t-40 -40.5q-31 -39 -33 -58h170v-79zM262 -23
h-68l380 762h69z" />
    <glyph glyph-name="dollar.prop" unicode="&#xf0fe;" horiz-adv-x="472" 
d="M265 -120h-61v125q-72 5 -117.5 45t-69.5 121l96 30q15 -48 36 -71.5t55 -29.5v224q-40 22 -62.5 37t-51.5 41t-42.5 60t-13.5 76q0 76 46 122.5t124 52.5v74h61v-76q120 -16 158 -140l-86 -34q-26 63 -72 77v-201q31 -17 50 -28.5t45.5 -32.5t41.5 -41.5t26 -51.5
t11 -66q0 -82 -47 -130t-127 -57v-126zM337 184q0 59 -72 106v-190q72 15 72 84zM134 544q0 -53 70 -97v171q-70 -11 -70 -74z" />
    <glyph glyph-name="currency.prop" unicode="&#xf107;" horiz-adv-x="389" 
d="M194 176q36 0 56.5 22t20.5 58t-20.5 59t-56.5 23t-56.5 -23t-20.5 -59t20.5 -58t56.5 -22zM324 82l-52 51q-33 -22 -78 -22q-44 0 -79 22l-50 -51l-45 45l51 52q-21 33 -21 77q0 42 21 78l-51 53l45 45l50 -51q37 22 79 22t78 -22l52 51l44 -45l-51 -53q21 -36 21 -78
q0 -41 -21 -77l51 -52z" />
    <glyph glyph-name="Euro.prop" unicode="&#xf110;" horiz-adv-x="495" 
d="M477 168q-22 -101 -70.5 -139t-122.5 -38q-98 0 -142.5 69t-54.5 205h-69v71h66v31v36h-66v71h71q27 253 205 253q78 0 122 -41t58 -127l-101 -14q-10 41 -27.5 61.5t-50.5 20.5q-75 0 -91 -153h178v-71h-182v-36v-31h182v-71h-180q6 -87 25.5 -131t62.5 -44
q36 0 54.5 24t29.5 73z" />
    <glyph glyph-name="cent.prop" unicode="&#xf119;" horiz-adv-x="435" 
d="M255 -124h-62v117q-161 16 -161 266q0 245 161 269v107h62v-107q119 -13 144 -161l-95 -15q-11 45 -28.5 66.5t-47.5 21.5q-42 0 -64 -48t-22 -133q0 -97 20 -137.5t63 -40.5q34 0 53.5 22.5t32.5 74.5l93 -20q-17 -77 -53 -117.5t-96 -48.5v-116z" />
    <glyph glyph-name="sterling.prop" unicode="&#xf122;" horiz-adv-x="479" 
d="M28 -10v110q90 32 90 147q0 27 -9 81h-81v71h66q-20 102 -20 143q0 86 47.5 135.5t131.5 49.5t131.5 -46.5t59.5 -151.5l-99 -12q-9 55 -29.5 82.5t-58.5 27.5q-33 0 -52 -21.5t-19 -62.5q0 -51 19 -144h117v-71h-104q8 -45 8 -85q0 -58 -21 -108q39 -37 78 -37
q63 0 78 99l100 -12q-14 -105 -53.5 -149.5t-112.5 -44.5q-80 0 -147 64q-47 -44 -120 -65z" />
    <glyph glyph-name="florin.prop" unicode="&#xf12b;" horiz-adv-x="416" 
d="M-25 -174l15 93q15 -5 35 -5q41 0 62 29.5t29 103.5l34 309h-114v71h122l9 82q5 52 14.5 87.5t29 67t53.5 47.5t83 16q33 0 62 -7l-13 -92q-20 5 -35 5q-43 0 -61.5 -28.5t-26.5 -101.5l-9 -76h115v-71h-122l-35 -316q-12 -112 -53 -166.5t-130 -54.5q-36 0 -64 7z" />
    <glyph glyph-name="yen.prop" unicode="&#xf134;" horiz-adv-x="477" 
d="M431 299h-135l-3 -9v-60h138v-71h-138v-159h-114v159h-141v71h141v61l-4 8h-137v70h109l-142 349h117l113 -311h2l117 311h117l-146 -349h106v-70z" />
    <glyph glyph-name="uniF8FF" unicode="&#xf8ff;" horiz-adv-x="544" 
d="M494 0h-444v718h444v-718zM434 59v600h-323v-600h323zM288 293h-54v26q0 38 32.5 85.5t32.5 75.5q0 35 -29 35q-27 0 -37 -40l-61 11q17 89 102 89q49 0 72.5 -25t23.5 -67q0 -32 -20.5 -65t-41 -60.5t-20.5 -47.5v-17zM298 152h-76v83h76v-83z" />
    <glyph glyph-name="pounds" horiz-adv-x="676" 
d="M159 0h-106v584h-46v71h46v63h106v-63h106v63h106v-63h158v-71h-158v-115q51 57 114 57q160 0 160 -269q0 -266 -156 -266q-70 0 -127 69l-13 -60h-84v584h-106v-584zM371 385v-247q13 -21 35 -34.5t44 -13.5q85 0 85 169q0 170 -87 170q-46 0 -77 -44z" />
    </font>
</defs>
</svg>
