<?xml version="1.0" standalone="no"?>
<!DOCTYPE svg PUBLIC "-//W3C//DTD SVG 1.1//EN" "http://www.w3.org/Graphics/SVG/1.1/DTD/svg11.dtd" >
<svg xmlns="http://www.w3.org/2000/svg" xmlns:xlink="http://www.w3.org/1999/xlink" version="1.1">
<metadata>
Created by FontForge 20170731 at Thu Jan 25 13:03:10 2018
 By Aleksey,,,
Copyright (c) 2008 - 2011 Linotype GmbH, www.linotype.com. All rights reserved. This font software may not be reproduced, modified, disclosed or transferred without the express written approval of Linotype GmbH. Trade Gothic is a trademark of Linotype GmbH registered in the U.S. Patent and Trademark Office and certain other jurisdictions. This typeface is original artwork of Linotype Design Studio. The design may be protected in certain jurisdictions.
</metadata>
<defs>
<font id="TradeGothicNextLTPro-CnIt" horiz-adv-x="311" >
  <font-face 
    font-family="Trade Gothic Next LT Pro Cn"
    font-weight="400"
    font-style="italic"
    font-stretch="condensed"
    units-per-em="1000"
    panose-1="2 11 5 6 4 3 3 9 0 4"
    ascent="800"
    descent="-200"
    x-height="518"
    cap-height="718"
    bbox="-203 -195 847 1046"
    underline-thickness="50"
    underline-position="-175"
    slope="-12.5"
    unicode-range="U+000D-FB04"
  />
<missing-glyph horiz-adv-x="527" 
d="M491 0h-420v718h420v-718zM439 51v616h-316v-616h316zM290 285h-44v28q0 40 34.5 91t34.5 81q0 40 -35 40q-31 0 -42 -44l-49 11q18 82 93 82q45 0 66.5 -24t21.5 -64q0 -41 -40 -98t-40 -84v-19zM299 152h-64v72h64v-72z" />
    <glyph glyph-name="IJ" unicode="IJ" horiz-adv-x="577" 
d="M94 0h-83l159 718h83zM606 718l-121 -547q-21 -96 -56.5 -138t-104.5 -42q-94 0 -136 101l73 40q24 -59 66 -59q34 0 48 24.5t29 88.5l120 532h82z" />
    <glyph glyph-name="ij" unicode="ij" horiz-adv-x="397" 
d="M216 620h-81l22 99h80zM75 0h-73l115 518h73zM392 518l-125 -556q-18 -80 -48 -111.5t-88 -31.5q-25 0 -45 5l14 70q13 -4 32 -4q26 0 40 16.5t22 51.5l125 560h73zM418 620h-82l22 99h81z" />
    <glyph glyph-name="napostrophe" unicode="&#x22;n" horiz-adv-x="590" 
d="M476 0h-73l78 352q6 24 6 44q0 57 -50 57q-55 0 -119 -68l-86 -385h-72l114 518h65l-13 -64q79 74 145 74q92 0 92 -104q0 -29 -8 -66zM138 460h-52l85 146h-34l23 112h91l-23 -110z" />
    <glyph glyph-name="f_f" unicode="ff" horiz-adv-x="504" 
d="M369 451h-168l-100 -451h-73l101 451h-74l14 67h73l16 69q16 72 48 106t92 34q27 0 48 -6l-14 -68q-18 5 -34 5q-27 0 -41.5 -15t-22.5 -48l-18 -77h167l16 69q16 72 48 106t92 34q25 0 48 -6l-14 -68q-20 5 -34 5q-28 0 -42.5 -15t-22.5 -48l-18 -77h86l-14 -67h-86
l-101 -451h-73z" />
    <glyph glyph-name="fi" unicode="fi" horiz-adv-x="456" 
d="M478 620h-81l22 99h80zM337 0h-73l115 518h73zM101 0h-73l101 451h-74l14 67h73l16 69q16 72 48 106t92 34q27 0 48 -6l-14 -68q-18 5 -34 5q-27 0 -41.5 -15t-22.5 -48l-18 -77h86l-14 -67h-87z" />
    <glyph glyph-name="fl" unicode="fl" horiz-adv-x="456" 
d="M341 0h-73l159 718h72zM101 0h-73l101 451h-74l14 67h73l16 69q16 72 48 106t92 34q27 0 48 -6l-14 -68q-18 5 -34 5q-27 0 -41.5 -15t-22.5 -48l-18 -77h86l-14 -67h-87z" />
    <glyph glyph-name="f_f_i" unicode="ffi" horiz-adv-x="697" 
d="M719 620h-81l22 99h81zM578 0h-72l115 518h72zM369 451h-168l-100 -451h-73l101 451h-74l14 67h73l16 69q16 72 48 106t92 34q27 0 48 -6l-14 -68q-18 5 -34 5q-27 0 -41.5 -15t-22.5 -48l-18 -77h167l16 69q16 72 48 106t92 34q25 0 48 -6l-14 -68q-20 5 -34 5
q-28 0 -42.5 -15t-22.5 -48l-18 -77h86l-14 -67h-86l-101 -451h-73z" />
    <glyph glyph-name="f_f_l" unicode="ffl" horiz-adv-x="696" 
d="M577 0h-72l159 718h72zM369 451h-168l-100 -451h-73l101 451h-74l14 67h73l16 69q16 72 48 106t92 34q27 0 48 -6l-14 -68q-18 5 -34 5q-27 0 -41.5 -15t-22.5 -48l-18 -77h167l16 69q16 72 48 106t92 34q25 0 48 -6l-14 -68q-20 5 -34 5q-28 0 -42.5 -15t-22.5 -48
l-18 -77h86l-14 -67h-86l-101 -451h-73z" />
    <glyph glyph-name=".notdef" horiz-adv-x="527" 
d="M491 0h-420v718h420v-718zM439 51v616h-316v-616h316zM290 285h-44v28q0 40 34.5 91t34.5 81q0 40 -35 40q-31 0 -42 -44l-49 11q18 82 93 82q45 0 66.5 -24t21.5 -64q0 -41 -40 -98t-40 -84v-19zM299 152h-64v72h64v-72z" />
    <glyph glyph-name=".null" horiz-adv-x="0" 
 />
    <glyph glyph-name="nonmarkingreturn" horiz-adv-x="333" 
 />
    <glyph glyph-name="CR" unicode="&#xd;" horiz-adv-x="187" 
 />
    <glyph glyph-name="space" unicode=" " horiz-adv-x="187" 
 />
    <glyph glyph-name="exclam" unicode="!" horiz-adv-x="232" 
d="M136 230h-60l89 488h101zM104 0h-91l24 112h91z" />
    <glyph glyph-name="quotedbl" unicode="&#x22;" horiz-adv-x="380" 
d="M184 460h-51l42 258h86zM332 460h-50l41 258h86z" />
    <glyph glyph-name="numbersign" unicode="#" horiz-adv-x="476" 
d="M89 0h-55l74 212h-86l15 69h95l56 161h-90l15 69h99l72 207h57l-73 -207h86l73 207h57l-73 -207h84l-15 -69h-93l-57 -161h89l-15 -69h-98l-74 -212h-57l74 212h-86zM244 442l-57 -161h86l57 161h-86z" />
    <glyph glyph-name="dollar" unicode="$" horiz-adv-x="476" 
d="M187 -119h-51l28 130q-107 28 -135 184l76 15q19 -97 76 -125l58 261q-36 37 -54.5 59t-36.5 60.5t-18 77.5q0 78 45.5 124.5t122.5 46.5q4 0 11 -0.5t11 -0.5l16 73h51l-19 -84q85 -31 111 -148l-71 -20q-17 67 -57 93l-51 -233q35 -36 53.5 -59t37 -62t18.5 -79
q0 -88 -51.5 -139t-134.5 -51h-9zM334 187q0 53 -54 116l-51 -228q49 0 77 30.5t28 81.5zM205 549q0 -50 54 -111l45 205q-3 1 -11 1q-40 0 -64 -25.5t-24 -69.5z" />
    <glyph glyph-name="percent" unicode="%" horiz-adv-x="589" 
d="M82 -23h-62l523 762h62zM206 503q38 0 59.5 23.5t21.5 61.5q0 37 -21.5 61t-59.5 24t-59.5 -24t-21.5 -61q0 -38 21.5 -61.5t59.5 -23.5zM206 448q-61 0 -99.5 40t-38.5 100t38.5 99.5t99.5 39.5t99.5 -39.5t38.5 -99.5t-38.5 -100t-99.5 -40zM421 45q39 0 60 23.5
t21 60.5q0 38 -21 62t-60 24q-38 0 -59 -24t-21 -62q0 -37 21 -60.5t59 -23.5zM421 -9q-60 0 -98 39.5t-38 98.5q0 61 37.5 101t98.5 40t99.5 -40t38.5 -101q0 -59 -38.5 -98.5t-99.5 -39.5z" />
    <glyph glyph-name="ampersand" unicode="&#x26;" horiz-adv-x="544" 
d="M520 65l-34 -76q-62 29 -114 75q-71 -73 -173 -73q-87 0 -134.5 49.5t-47.5 134.5q0 48 22.5 91.5t50.5 71t72 60.5q-29 86 -29 178q0 67 38 109t104 42q64 0 98 -36t34 -97q0 -27 -9.5 -52.5t-21.5 -43.5t-37 -41.5t-40 -36t-47 -36.5q18 -46 53 -103q35 -58 63 -92
q30 65 49 161l75 -13q-23 -123 -71 -206q46 -42 99 -66zM206 63q67 0 115 53q-39 46 -81 117q-34 57 -53 100q-89 -78 -89 -157q0 -51 29 -82t79 -31zM212 576q0 -64 18 -128q49 38 74.5 71t25.5 73q0 29 -14.5 46.5t-41.5 17.5q-28 0 -45 -22.5t-17 -57.5z" />
    <glyph glyph-name="quotesingle" unicode="'" horiz-adv-x="232" 
d="M184 460h-51l42 258h86z" />
    <glyph glyph-name="parenleft" unicode="(" horiz-adv-x="269" 
d="M161 -53h-68q-44 116 -44 250q0 265 209 530h76q-219 -279 -219 -530q0 -132 46 -250z" />
    <glyph glyph-name="parenright" unicode=")" horiz-adv-x="269" 
d="M140 727h68q45 -119 45 -250q0 -263 -210 -530h-76q219 279 219 530q0 136 -46 250z" />
    <glyph glyph-name="asterisk" unicode="*" horiz-adv-x="350" 
d="M244 539l-67 -110l-48 36l83 97l-124 29l19 59l117 -50l-10 127h59l-10 -127l117 50l17 -59l-122 -29l83 -96l-49 -36z" />
    <glyph glyph-name="plus" unicode="+" horiz-adv-x="476" 
d="M446 232h-175v-175h-52v175h-177v50h177v165h52v-165h175v-50z" />
    <glyph glyph-name="comma" unicode="," horiz-adv-x="232" 
d="M11 -146h-51l84 146h-34l24 112h91l-24 -109z" />
    <glyph glyph-name="hyphen" unicode="-" horiz-adv-x="274" 
d="M235 219h-209l17 77h208z" />
    <glyph glyph-name="period" unicode="." horiz-adv-x="232" 
d="M101 0h-91l24 112h91z" />
    <glyph glyph-name="slash" unicode="/" horiz-adv-x="236" 
d="M-22 -53h-55l369 780h57z" />
    <glyph glyph-name="zero" unicode="0" horiz-adv-x="476" 
d="M469 531q0 -83 -16.5 -173t-48.5 -174t-87.5 -138.5t-124.5 -54.5q-144 0 -144 196q0 83 17 173t49 174t87.5 138.5t124.5 54.5q143 0 143 -196zM130 184q0 -61 15 -90.5t54 -29.5q43 0 80.5 51.5t60 127.5t35 153.5t12.5 137.5q0 61 -15 90.5t-53 29.5q-43 0 -81 -51.5
t-60.5 -127.5t-35 -153.5t-12.5 -137.5z" />
    <glyph glyph-name="one" unicode="1" horiz-adv-x="476" 
d="M334 0h-280l15 73h99l125 555l-116 -21l13 64l142 47h59l-144 -645h102z" />
    <glyph glyph-name="two" unicode="2" horiz-adv-x="476" 
d="M380 0h-374l8 42q12 62 55 121.5t95 105t103 90.5t85 96.5t34 103.5q0 44 -23 69t-64 25q-89 0 -128 -128l-72 16q53 186 206 186q78 0 120 -45t42 -123q0 -59 -31.5 -115.5t-79.5 -102t-97 -87.5t-91.5 -88.5t-56.5 -88.5h284z" />
    <glyph glyph-name="three" unicode="3" horiz-adv-x="476" 
d="M417 219q0 -101 -60.5 -164.5t-160.5 -63.5q-80 0 -126.5 41.5t-62.5 128.5l78 17q13 -57 40 -84.5t74 -27.5q65 0 101 45.5t36 111.5q0 60 -36 92t-102 32h-26l15 75h24q76 0 126.5 34t50.5 103q0 43 -24.5 68.5t-70.5 25.5q-84 0 -119 -88l-70 21q50 141 197 141
q84 0 125.5 -45.5t41.5 -116.5q0 -66 -39.5 -114.5t-104.5 -68.5l-1 -2q94 -46 94 -161z" />
    <glyph glyph-name="four" unicode="4" horiz-adv-x="476" 
d="M302 0h-76l38 170h-248l16 78l324 470h105l-106 -474h90l-15 -74h-90zM280 244l85 369h-2l-257 -369h174z" />
    <glyph glyph-name="five" unicode="5" horiz-adv-x="476" 
d="M430 286q0 -124 -60.5 -209.5t-170.5 -85.5q-150 0 -178 169l77 17q24 -111 106 -111q67 0 106 64.5t39 154.5q0 124 -89 124q-65 0 -113 -70l-63 17l95 362h289l-15 -77h-224l-55 -198h2q50 38 107 38q147 0 147 -195z" />
    <glyph glyph-name="six" unicode="6" horiz-adv-x="476" 
d="M336 653q-71 0 -118.5 -75.5t-70.5 -189.5h2q60 61 141 61q75 0 114 -50.5t39 -135.5q0 -117 -56.5 -194.5t-153.5 -77.5q-93 0 -136 69.5t-43 178.5q0 80 16.5 161t49 156.5t90.5 123t133 47.5q101 0 157 -75l-65 -51q-42 52 -99 52zM268 375q-61 0 -97 -41.5
t-36 -102.5q0 -71 23.5 -120t77.5 -49q59 0 92 55t33 139q0 51 -22.5 85t-70.5 34z" />
    <glyph glyph-name="seven" unicode="7" horiz-adv-x="476" 
d="M129 0h-91l354 637h-273l16 81h366l-14 -65z" />
    <glyph glyph-name="eight" unicode="8" horiz-adv-x="476" 
d="M425 190q0 -92 -59 -145.5t-160 -53.5q-81 0 -131.5 47t-50.5 127q0 144 177 223q-81 81 -81 160q0 82 53 130.5t142 48.5q78 0 124 -43.5t46 -114.5q0 -128 -156 -198q45 -44 70.5 -86.5t25.5 -94.5zM345 185q0 42 -24.5 75.5t-72.5 76.5q-74 -32 -109 -72t-35 -97
q0 -47 29.5 -77.5t79.5 -30.5q59 0 95.5 34t36.5 91zM199 551q0 -35 20.5 -64.5t61.5 -67.5q124 54 124 146q0 41 -25.5 67.5t-70.5 26.5q-49 0 -79.5 -29t-30.5 -79z" />
    <glyph glyph-name="nine" unicode="9" horiz-adv-x="476" 
d="M179 65q71 0 118.5 75.5t70.5 189.5h-2q-60 -61 -141 -61q-75 0 -114 50.5t-39 135.5q0 117 56.5 194.5t153.5 77.5q93 0 136 -69.5t43 -178.5q0 -80 -16.5 -161t-49 -156.5t-90.5 -123t-133 -47.5q-101 0 -157 75l65 51q42 -52 99 -52zM247 343q61 0 97 41.5t36 102.5
q0 71 -23.5 120t-77.5 49q-59 0 -92 -55t-33 -139q0 -51 22.5 -85t70.5 -34z" />
    <glyph glyph-name="colon" unicode=":" horiz-adv-x="232" 
d="M169 306h-91l24 112h90zM101 0h-91l24 112h91z" />
    <glyph glyph-name="semicolon" unicode=";" horiz-adv-x="232" 
d="M11 -146h-51l84 146h-34l24 112h91l-24 -109zM169 306h-91l24 112h90z" />
    <glyph glyph-name="less" unicode="&#x3c;" horiz-adv-x="476" 
d="M408 83l-337 142v64l337 142v-59l-281 -115l281 -115v-59z" />
    <glyph glyph-name="equal" unicode="=" horiz-adv-x="476" 
d="M448 318h-405v51h405v-51zM448 145h-405v51h405v-51z" />
    <glyph glyph-name="greater" unicode="&#x3e;" horiz-adv-x="476" 
d="M421 225l-337 -142v59l281 115l-281 115v59l337 -142v-64z" />
    <glyph glyph-name="question" unicode="?" horiz-adv-x="362" 
d="M182 230h-62q8 49 31 91.5t50 72.5t53 58t43.5 60.5t17.5 68.5q0 35 -17 54.5t-50 19.5q-58 0 -90 -77l-68 19q46 130 167 130q68 0 104.5 -38.5t36.5 -101.5q0 -43 -20 -82.5t-50 -71t-60.5 -61.5t-55 -67t-30.5 -75zM149 0h-91l23 112h92z" />
    <glyph glyph-name="at" unicode="@" horiz-adv-x="603" 
d="M265 111q49 0 79 69.5t30 139.5q0 79 -55 79q-33 0 -57.5 -34t-34.5 -77.5t-10 -87.5q0 -89 48 -89zM485 -20l27 -47q-77 -54 -202 -54q-135 0 -206 88t-71 253q0 179 73.5 287t217.5 108q120 0 187 -75.5t67 -218.5q0 -115 -46 -189t-117 -74q-57 0 -67 52h-2
q-36 -52 -91 -52q-49 0 -71.5 40.5t-22.5 104.5q0 95 43 171.5t112 76.5q61 0 83 -57l15 40h45l-58 -256q-17 -68 21 -68q46 0 74.5 61.5t28.5 149.5q0 122 -52.5 182.5t-148.5 60.5q-124 0 -181 -93.5t-57 -250.5q0 -138 58 -214t166 -76q107 0 175 50z" />
    <glyph glyph-name="A" unicode="A" horiz-adv-x="493" 
d="M420 0h-83v204h-191l-88 -204h-88l320 718h119zM335 643l-155 -359h157v359h-2z" />
    <glyph glyph-name="B" unicode="B" horiz-adv-x="506" 
d="M220 0h-208l158 718h93q237 0 237 -171q0 -127 -129 -175v-3q88 -42 88 -147q0 -107 -68.5 -164.5t-170.5 -57.5zM182 411h36q39 0 68.5 4t61 16t49 39.5t17.5 69.5q0 99 -138 99h-42zM109 79h99q164 0 164 147q0 111 -144 111h-61z" />
    <glyph glyph-name="C" unicode="C" horiz-adv-x="491" 
d="M447 191q-74 -200 -235 -200q-85 0 -125 60.5t-40 165.5q0 90 17.5 178t51 163.5t90 122t126.5 46.5q87 0 128.5 -56t46.5 -164l-78 -8q-7 76 -30.5 112t-72.5 36q-48 0 -86.5 -42.5t-60.5 -109t-33.5 -139t-11.5 -139.5q0 -146 86 -146q92 0 148 146z" />
    <glyph glyph-name="D" unicode="D" horiz-adv-x="529" 
d="M192 0h-180l158 718h91q142 0 202 -71.5t60 -199.5q0 -118 -40 -219.5t-117 -164.5t-174 -63zM113 82h68q114 0 185 107.5t71 261.5q0 85 -39.5 135t-124.5 50h-36z" />
    <glyph glyph-name="E" unicode="E" horiz-adv-x="438" 
d="M364 0h-352l158 718h318l-17 -80h-233l-52 -227h176l-17 -79h-175l-58 -252h269z" />
    <glyph glyph-name="F" unicode="F" horiz-adv-x="416" 
d="M96 0h-83l158 718h319l-16 -80h-236l-52 -227h177l-16 -79h-176z" />
    <glyph glyph-name="G" unicode="G" horiz-adv-x="517" 
d="M411 0h-68l14 64h-2q-63 -73 -151 -73q-77 0 -117 61.5t-40 164.5q0 91 19 179.5t54 163.5t92.5 121t128.5 46q86 0 127 -56t48 -164l-80 -8q-6 75 -29.5 111.5t-71.5 36.5q-49 0 -89.5 -43t-63.5 -109.5t-35.5 -138.5t-12.5 -139t23.5 -107t71.5 -40q67 0 109.5 57.5
t52.5 143.5h-129l16 74h209z" />
    <glyph glyph-name="H" unicode="H" horiz-adv-x="543" 
d="M415 0h-83l75 334h-236l-75 -334h-83l158 718h84l-68 -304h236l68 304h83z" />
    <glyph glyph-name="I" unicode="I" horiz-adv-x="224" 
d="M96 0h-83l159 718h83z" />
    <glyph glyph-name="J" unicode="J" horiz-adv-x="353" 
d="M382 718l-121 -547q-21 -96 -56.5 -138t-104.5 -42q-94 0 -136 101l73 40q24 -59 66 -59q34 0 48 24.5t29 88.5l120 532h82z" />
    <glyph glyph-name="K" unicode="K" horiz-adv-x="480" 
d="M431 0h-87l-77 370l-119 -133l-53 -237h-83l158 718h84l-77 -336h1l289 336h99l-228 -265z" />
    <glyph glyph-name="L" unicode="L" horiz-adv-x="403" 
d="M337 0h-325l158 718h84l-143 -638h243z" />
    <glyph glyph-name="M" unicode="M" horiz-adv-x="645" 
d="M517 0h-75l135 592h-2l-279 -592h-64l-9 592h-2l-135 -592h-74l158 718h122l6 -537h2l254 537h121z" />
    <glyph glyph-name="N" unicode="N" horiz-adv-x="540" 
d="M413 0h-80l-106 595h-2l-134 -595h-78l158 718h113l91 -523h2l117 523h78z" />
    <glyph glyph-name="O" unicode="O" horiz-adv-x="530" 
d="M523 517q0 -88 -19.5 -178t-56.5 -169t-98 -129t-135 -50q-84 0 -125.5 55.5t-41.5 154.5q0 88 20 178t57 169t98 129t135 50q84 0 125 -55.5t41 -154.5zM134 198q0 -129 89 -129q49 0 91.5 46.5t68 117t40 146.5t14.5 141q0 129 -89 129q-49 0 -91.5 -46.5t-68 -117
t-40 -146.5t-14.5 -141z" />
    <glyph glyph-name="P" unicode="P" horiz-adv-x="495" 
d="M95 0h-83l158 718h121q219 0 219 -186q0 -97 -59.5 -162t-164.5 -65h-122zM180 383h94q75 0 112.5 40t37.5 107q0 49 -32.5 78.5t-88.5 29.5h-65z" />
    <glyph glyph-name="Q" unicode="Q" horiz-adv-x="529" 
d="M523 517q0 -119 -35 -240.5t-100 -197.5q21 -54 80 -61l-18 -83q-90 10 -121 92q-53 -36 -115 -36q-84 0 -125.5 55.5t-41.5 154.5q0 87 20 177.5t57.5 169.5t98.5 129t134 50q84 0 125 -55.5t41 -154.5zM134 198q0 -129 89 -129q43 0 81 36q-20 59 -56 64l17 82
q60 -9 87 -83q40 70 62.5 169t22.5 183q0 129 -89 129q-49 0 -91.5 -46.5t-68 -117t-40 -146.5t-14.5 -141z" />
    <glyph glyph-name="R" unicode="R" horiz-adv-x="496" 
d="M407 0h-88l-53 317h-100l-71 -317h-83l158 718h116q110 0 165.5 -40t55.5 -131q0 -76 -42 -130.5t-116 -79.5zM182 394h78q77 0 119 40t42 107q0 99 -123 99h-60z" />
    <glyph glyph-name="S" unicode="S" horiz-adv-x="441" 
d="M457 540l-77 -13q-24 123 -109 123q-40 0 -61.5 -24t-21.5 -70q0 -34 20.5 -68t49 -65.5t57.5 -65t49.5 -78.5t20.5 -95q0 -90 -51.5 -141.5t-138.5 -51.5q-160 0 -190 197l82 13q25 -132 113 -132q45 0 72.5 28.5t27.5 81.5q0 36 -20.5 72t-49 67.5t-57.5 65t-49.5 77
t-20.5 90.5q0 81 46 128.5t124 47.5q156 0 184 -187z" />
    <glyph glyph-name="T" unicode="T" horiz-adv-x="423" 
d="M196 0h-84l142 638h-149l16 80h381l-17 -80h-147z" />
    <glyph glyph-name="U" unicode="U" horiz-adv-x="530" 
d="M370 218l111 500h83l-114 -513q-25 -114 -79.5 -164t-151.5 -50q-84 0 -126 44t-42 120q0 31 8 71l109 492h83l-112 -505q-6 -25 -6 -48q0 -45 24 -69.5t69 -24.5q61 0 93.5 35t50.5 112z" />
    <glyph glyph-name="V" unicode="V" horiz-adv-x="463" 
d="M223 0h-92l-20 718h85l8 -566h2l253 566h91z" />
    <glyph glyph-name="W" unicode="W" horiz-adv-x="653" 
d="M449 0h-89l31 542h-2l-205 -542h-89l20 718h85l-25 -543h2l204 543h88l-29 -542h2l205 542h89z" />
    <glyph glyph-name="X" unicode="X" horiz-adv-x="477" 
d="M410 0h-86l-81 281h-2l-182 -281h-92l240 372l-96 346h86l74 -256h2l168 256h91l-226 -349z" />
    <glyph glyph-name="Y" unicode="Y" horiz-adv-x="435" 
d="M200 0h-83l66 297l-86 421h88l56 -318h2l194 318h95l-267 -422z" />
    <glyph glyph-name="Z" unicode="Z" horiz-adv-x="443" 
d="M359 0h-380l16 81l377 557h-260l16 80h358l-15 -77l-381 -561h286z" />
    <glyph glyph-name="bracketleft" unicode="[" horiz-adv-x="269" 
d="M156 -44h-160l168 762h160l-10 -48h-96l-148 -666h97z" />
    <glyph glyph-name="backslash" unicode="\" horiz-adv-x="236" 
d="M179 -53h-54l-25 780h53z" />
    <glyph glyph-name="bracketright" unicode="]" horiz-adv-x="269" 
d="M137 718h161l-168 -762h-161l10 48h97l147 666h-97z" />
    <glyph glyph-name="asciicircum" unicode="^" horiz-adv-x="444" 
d="M428 388h-60l-114 273l-114 -273h-60l140 330h67z" />
    <glyph glyph-name="underscore" unicode="_" horiz-adv-x="431" 
d="M363 -123h-437l9 47h438z" />
    <glyph glyph-name="grave" unicode="`" horiz-adv-x="347" 
d="M240 577h-58l-76 141h88z" />
    <glyph glyph-name="a" unicode="a" horiz-adv-x="417" 
d="M309 0h-71l6 57q-66 -66 -134 -66q-48 0 -73.5 31t-25.5 87q0 49 21.5 87.5t63 65.5t90.5 45t116 33q9 30 9 54q0 68 -66 68q-65 0 -112 -71l-59 30q63 107 180 107q127 0 127 -124q0 -29 -10 -77l-54 -243zM253 124l34 153q-59 -12 -99.5 -28.5t-69.5 -49.5t-29 -80
q0 -30 14 -45t37 -15q56 0 113 65z" />
    <glyph glyph-name="b" unicode="b" horiz-adv-x="432" 
d="M193 -9q-71 0 -108 71l-26 -62h-56l158 718h74l-60 -260q66 66 129 66q108 0 108 -153q0 -90 -24 -175t-76 -145t-119 -60zM335 358q0 92 -64 92q-55 0 -111 -67l-56 -256q29 -63 83 -63q44 0 78.5 46t52 112t17.5 136z" />
    <glyph glyph-name="c" unicode="c" horiz-adv-x="401" 
d="M287 155l65 -26q-64 -138 -190 -138q-69 0 -105 47.5t-36 128.5q0 88 26 169t80.5 136.5t125.5 55.5q129 0 141 -163l-69 -9q-5 49 -22 75.5t-55 26.5q-46 0 -81.5 -48t-52 -113.5t-16.5 -131.5q0 -48 18 -75.5t54 -27.5q68 0 117 93z" />
    <glyph glyph-name="d" unicode="d" horiz-adv-x="433" 
d="M403 718h72l-159 -718h-58l6 64q-68 -73 -136 -73q-107 0 -107 153q0 92 25 177.5t77.5 144t120.5 58.5q65 0 102 -57zM272 132l60 267q-28 52 -82 52q-67 0 -110 -92t-43 -201q0 -93 64 -93q55 0 111 67z" />
    <glyph glyph-name="e" unicode="e" horiz-adv-x="406" 
d="M283 157l64 -26q-69 -140 -194 -140q-64 0 -98 43.5t-34 129.5q0 88 24 168.5t77.5 138t125.5 57.5q136 0 136 -165q0 -49 -15 -118h-266q-6 -43 -6 -83q0 -101 67 -101q69 0 119 96zM243 462q-87 0 -128 -154h190q7 34 7 63q0 91 -69 91z" />
    <glyph glyph-name="f" unicode="f" horiz-adv-x="263" 
d="M101 0h-73l101 451h-74l14 67h73l16 69q16 72 48 106t92 34q27 0 48 -6l-14 -68q-18 5 -34 5q-27 0 -41.5 -15t-22.5 -48l-18 -77h86l-14 -67h-87z" />
    <glyph glyph-name="g" unicode="g" horiz-adv-x="412" 
d="M185 161q-33 0 -60 11q-40 -19 -40 -42q0 -17 25.5 -27t61.5 -17.5t72 -18.5t61.5 -38.5t25.5 -70.5q0 -69 -57 -104t-145 -35q-81 0 -128.5 30.5t-47.5 82.5q0 75 96 108v2q-38 16 -38 56q0 60 76 101q-32 35 -32 100q0 88 51.5 158.5t140.5 70.5q67 0 100 -43
q44 50 103 50l-16 -78q-37 0 -65 -18q7 -26 7 -51q0 -89 -51 -158t-140 -69zM192 223q51 0 80.5 53t29.5 114q0 73 -62 73q-50 0 -80 -54.5t-30 -113.5q0 -72 62 -72zM254 -51q0 17 -10.5 30t-33 21t-41 12.5t-49.5 9.5q-93 -20 -93 -76q0 -32 28 -50t78 -18q52 0 86.5 18
t34.5 53z" />
    <glyph glyph-name="h" unicode="h" horiz-adv-x="436" 
d="M320 0h-73l78 352q6 30 6 43q0 58 -50 58q-56 0 -120 -68l-85 -385h-73l159 718h74l-59 -258q76 68 139 68q92 0 92 -106q0 -29 -8 -64z" />
    <glyph glyph-name="i" unicode="i" horiz-adv-x="193" 
d="M216 620h-81l22 99h80zM75 0h-73l115 518h73z" />
    <glyph glyph-name="j" unicode="j" horiz-adv-x="201" 
d="M196 518l-125 -556q-18 -80 -48 -111.5t-88 -31.5q-25 0 -45 5l14 70q13 -4 32 -4q26 0 40 16.5t22 51.5l125 560h73zM222 620h-82l22 99h81z" />
    <glyph glyph-name="k" unicode="k" horiz-adv-x="392" 
d="M341 0h-77l-60 269l-88 -94l-40 -175h-73l159 718h72l-95 -425h2l200 225h86l-160 -177z" />
    <glyph glyph-name="l" unicode="l" horiz-adv-x="194" 
d="M76 0h-73l159 718h72z" />
    <glyph glyph-name="m" unicode="m" horiz-adv-x="645" 
d="M302 0h-72l78 352q7 32 7 50q0 51 -42 51q-48 0 -112 -68l-86 -385h-72l114 518h65l-13 -64q79 74 140 74q73 0 80 -78q76 78 145 78q84 0 84 -99q0 -26 -9 -71l-80 -358h-72l78 352q6 27 6 49q0 52 -43 52q-48 0 -111 -68q-23 -135 -85 -385z" />
    <glyph glyph-name="n" unicode="n" horiz-adv-x="434" 
d="M320 0h-73l78 352q6 30 6 43q0 58 -50 58q-56 0 -120 -68l-85 -385h-73l114 518h66l-13 -64q77 74 145 74q92 0 92 -105q0 -30 -8 -65z" />
    <glyph glyph-name="o" unicode="o" horiz-adv-x="417" 
d="M395 360q0 -85 -24 -166.5t-79.5 -142t-131.5 -60.5q-68 0 -103.5 44t-35.5 123q0 62 14.5 125.5t42.5 119t74.5 90.5t103.5 35q69 0 104 -44t35 -124zM98 155q0 -96 69 -96q47 0 83 53t52.5 121t16.5 131q0 96 -70 96q-46 0 -82 -53t-52.5 -121.5t-16.5 -130.5z" />
    <glyph glyph-name="p" unicode="p" horiz-adv-x="434" 
d="M38 -172h-73l152 690h66l-13 -63q68 73 136 73q107 0 107 -153q0 -93 -25 -178t-77.5 -143.5t-121.5 -58.5q-65 0 -101 57zM336 361q0 92 -64 92q-54 0 -110 -67l-60 -267q29 -52 82 -52q66 0 109 92.5t43 201.5z" />
    <glyph glyph-name="q" unicode="q" horiz-adv-x="432" 
d="M239 528q71 0 108 -71l26 61h56l-153 -690h-73l54 234q-67 -67 -129 -67q-107 0 -107 153q0 89 24 174t75.5 145.5t118.5 60.5zM272 136l57 257q-31 62 -84 62q-64 0 -106 -92t-42 -201q0 -93 64 -93q55 0 111 67z" />
    <glyph glyph-name="r" unicode="r" horiz-adv-x="286" 
d="M76 0h-73l114 518h69l-18 -84q36 50 69 72t74 22q10 0 18 -2l-18 -83q-9 2 -17 2q-74 0 -141 -101z" />
    <glyph glyph-name="s" unicode="s" horiz-adv-x="361" 
d="M349 394l-63 -15q-22 82 -87 82q-28 0 -46 -16.5t-18 -45.5q0 -27 17.5 -51.5t42.5 -44.5t50 -41.5t42.5 -53t17.5 -69.5q0 -72 -42.5 -110t-110.5 -38q-63 0 -102.5 37.5t-53.5 105.5l68 15q23 -91 92 -91q34 0 55 19.5t21 54.5q0 26 -17.5 50t-42 44t-49 42.5t-42 54.5
t-17.5 70q0 62 38 98.5t101 36.5q58 0 95.5 -35t50.5 -99z" />
    <glyph glyph-name="t" unicode="t" horiz-adv-x="271" 
d="M209 75l-16 -73q-29 -7 -62 -7q-89 0 -89 83q0 23 8 58l72 315h-73l14 67h73l37 169h74l-37 -169h98l-14 -67h-99l-71 -319q-4 -20 -4 -26q0 -39 39 -39q21 0 50 8z" />
    <glyph glyph-name="u" unicode="u" horiz-adv-x="430" 
d="M114 518h74l-79 -352q-6 -24 -6 -45q0 -56 48 -56q52 0 117 69l86 384h73l-115 -518h-66l14 65q-79 -74 -143 -74q-90 0 -90 102q0 30 8 67z" />
    <glyph glyph-name="v" unicode="v" horiz-adv-x="366" 
d="M159 0h-77l-23 518h77l6 -397h2l181 397h79z" />
    <glyph glyph-name="w" unicode="w" horiz-adv-x="555" 
d="M366 0h-72l7 377h-2l-158 -377h-72l-6 518h77l-5 -376h2l153 376h74l-8 -376h2l158 376h76z" />
    <glyph glyph-name="x" unicode="x" horiz-adv-x="362" 
d="M305 0h-77l-60 196h-2l-133 -196h-81l188 276l-76 242h77l52 -170h2l115 170h82l-170 -246z" />
    <glyph glyph-name="y" unicode="y" horiz-adv-x="369" 
d="M408 518l-246 -524q-49 -105 -87.5 -140t-107.5 -35q-22 0 -44 5l15 69q13 -3 34 -3q39 0 62 22t52 83l8 18l-35 505h79l16 -380h2l172 380h80z" />
    <glyph glyph-name="z" unicode="z" horiz-adv-x="356" 
d="M278 0h-303l13 62l274 389h-194l15 67h278l-12 -61l-277 -389h220z" />
    <glyph glyph-name="braceleft" unicode="{" horiz-adv-x="269" 
d="M158 -44h-39q-52 0 -66.5 31t2.5 100l38 166q10 43 4 61.5t-31 18.5h-26l10 48h26q25 0 38.5 18t23.5 62l29 126q16 72 42 101.5t78 29.5h39l-11 -48h-19q-25 0 -39.5 -18t-24.5 -62l-28 -126q-21 -86 -71 -107v-2q43 -21 24 -105l-37 -166q-9 -44 -2.5 -62t31.5 -18h19z
" />
    <glyph glyph-name="bar" unicode="|" horiz-adv-x="216" 
d="M161 -53h-54v780h54v-780z" />
    <glyph glyph-name="braceright" unicode="}" horiz-adv-x="269" 
d="M141 718h38q52 0 66 -31t-2 -100l-28 -126q-10 -43 -4 -61.5t31 -18.5h26l-11 -48h-26q-24 0 -38 -18.5t-24 -62.5l-37 -165q-15 -71 -42 -101t-79 -30h-37l10 48h19q24 0 39 18t25 62l37 165q19 86 70 108l1 2q-43 22 -25 106l29 125q9 44 2 62t-32 18h-19z" />
    <glyph glyph-name="asciitilde" unicode="~" horiz-adv-x="476" 
d="M382 323h54q-7 -62 -35 -97t-76 -35q-37 0 -92 32t-80 32q-45 0 -54 -68h-53q6 62 34 97t76 35q37 0 92 -32t81 -32q44 0 53 68z" />
    <glyph glyph-name="uni00A0" unicode="&#xa0;" horiz-adv-x="187" 
 />
    <glyph glyph-name="exclamdown" unicode="&#xa1;" horiz-adv-x="232" 
d="M106 298h59l-88 -487h-101zM137 528h91l-23 -113h-92z" />
    <glyph glyph-name="cent" unicode="&#xa2;" horiz-adv-x="476" 
d="M312 155l66 -26q-63 -132 -180 -138l-26 -115h-52l27 120q-50 12 -75.5 57t-25.5 114q0 134 60 243t159 117l24 107h51l-24 -111q92 -19 104 -158l-69 -9q-11 102 -78 102q-46 0 -81.5 -48t-52 -113.5t-16.5 -131.5q0 -48 18 -75.5t54 -27.5q69 0 117 93z" />
    <glyph glyph-name="sterling" unicode="&#xa3;" horiz-adv-x="476" 
d="M-21 -10l18 89q64 26 93 87t37 166h-74l12 58h65q2 66 2 106q0 104 43.5 167.5t137.5 63.5q152 0 181 -188l-73 -13q-26 126 -112 126q-97 0 -97 -149q0 -41 -2 -113h118l-12 -58h-110q-11 -133 -57 -210q55 -51 104 -51q40 0 66.5 31t48.5 95l72 -21q-59 -185 -185 -185
q-72 0 -149 75q-51 -50 -127 -76z" />
    <glyph glyph-name="currency" unicode="&#xa4;" horiz-adv-x="476" 
d="M247 173q39 0 60 23.5t21 60.5t-21.5 61t-59.5 24t-59.5 -24t-21.5 -61t21.5 -60.5t59.5 -23.5zM247 117q-45 0 -80 24l-48 -51l-37 37l50 50q-22 34 -22 80q0 44 22 80l-50 50l37 37l48 -50q36 23 80 23q43 0 79 -24l51 51l36 -37l-50 -51q22 -36 22 -79q0 -45 -23 -79
l51 -51l-36 -37l-51 51q-34 -24 -79 -24z" />
    <glyph glyph-name="yen" unicode="&#xa5;" horiz-adv-x="476" 
d="M425 305h-134l-5 -9l-15 -67h137l-12 -58h-138l-38 -171h-80l38 171h-134l12 58h135l15 68l-2 8h-131l13 57h106l-72 356h85l57 -321h2l196 321h92l-225 -356h110z" />
    <glyph glyph-name="brokenbar" unicode="&#xa6;" horiz-adv-x="216" 
d="M162 427h-54v300h54v-300zM162 -53h-54v320h54v-320z" />
    <glyph glyph-name="section" unicode="&#xa7;" horiz-adv-x="355" 
d="M50 367q0 51 28 86t83 41q-27 57 -27 107q0 56 33 91t90 35q103 0 127 -120l-67 -19q-17 71 -63 71q-22 0 -36.5 -16t-14.5 -41q0 -36 33 -94t66 -120t33 -109q0 -52 -28 -86.5t-83 -40.5q27 -59 27 -107q0 -57 -34 -91.5t-94 -34.5q-52 0 -86.5 31.5t-44.5 89.5l67 19
q15 -72 67 -72q26 0 41 16t15 41q0 36 -33 94t-66 120t-33 109zM267 270q0 7 -1 15t-4 16.5t-5 15.5t-7.5 17.5t-8 16.5t-9.5 18t-10.5 17.5t-11.5 19t-11 18.5l1 -2q-14 10 -31 10q-21 0 -35.5 -15t-14.5 -41q0 -7 1 -14.5t3.5 -16.5t5 -15.5t7.5 -17t8 -16.5t9.5 -18
t9.5 -17t11 -18.5t11 -18.5q14 -10 31 -10q21 0 36 15t15 41z" />
    <glyph glyph-name="dieresis" unicode="&#xa8;" horiz-adv-x="347" 
d="M134 590h-78l20 94h78zM270 590h-78l20 94h78z" />
    <glyph glyph-name="copyright" unicode="&#xa9;" horiz-adv-x="631" 
d="M336 41q114 0 175 88t61 230q0 139 -61.5 228.5t-174.5 89.5t-175 -89.5t-62 -228.5q0 -142 61.5 -230t175.5 -88zM336 -9q-138 0 -214 104t-76 264q0 162 75.5 265t214.5 103t214.5 -103t75.5 -265q0 -160 -76 -264t-214 -104zM459 290q-18 -141 -124 -141
q-131 0 -131 214q0 100 32.5 156t98.5 56q53 0 82 -33t38 -99l-55 -5q-13 84 -64 84q-72 0 -72 -159q0 -87 17 -124t54 -37q56 0 69 93z" />
    <glyph glyph-name="ordfeminine" unicode="&#xaa;" horiz-adv-x="268" 
d="M238 251h-218l11 48h217zM263 380h-59l4 36q-44 -41 -87 -41q-65 0 -65 76q0 62 49 96t141 54q5 14 5 31q0 40 -40 40q-38 0 -68 -42l-46 21q41 73 122 73q89 0 89 -85q0 -24 -5 -45l-34 -151zM150 428q32 0 63 34l21 93q-114 -22 -114 -92q0 -35 30 -35z" />
    <glyph glyph-name="guillemotleft" unicode="&#xab;" horiz-adv-x="423" 
d="M157 416h77l-125 -158l59 -158h-70l-60 159zM324 416h76l-125 -158l59 -158h-70l-60 159z" />
    <glyph glyph-name="logicalnot" unicode="&#xac;" horiz-adv-x="476" 
d="M445 115h-52v182h-351v49h403v-231z" />
    <glyph glyph-name="uni00AD" unicode="&#xad;" horiz-adv-x="274" 
d="M236 219h-209l17 77h208z" />
    <glyph glyph-name="registered" unicode="&#xae;" horiz-adv-x="414" 
d="M256 289q71 0 109 55.5t38 143.5q0 86 -38 142t-109 56t-110 -56t-39 -142q0 -88 38.5 -143.5t110.5 -55.5zM256 248q-90 0 -140.5 68.5t-50.5 171.5q0 105 50.5 172t140.5 67q89 0 139 -67t50 -172q0 -103 -50 -171.5t-139 -68.5zM348 357h-48l-41 110h-34v-110h-42v271
h67q91 0 91 -76q0 -50 -40 -69zM225 506h29q43 0 43 44q0 25 -12 33t-35 8h-25v-85z" />
    <glyph glyph-name="macron" unicode="&#xaf;" horiz-adv-x="347" 
d="M289 610h-244l13 57h244z" />
    <glyph glyph-name="degree" unicode="&#xb0;" horiz-adv-x="319" 
d="M230 503q38 0 59.5 23.5t21.5 61.5q0 37 -21.5 61t-59.5 24t-59.5 -24t-21.5 -61q0 -38 21.5 -61.5t59.5 -23.5zM230 448q-61 0 -99 40t-38 100t38 99.5t99 39.5t99.5 -39.5t38.5 -99.5t-38.5 -100t-99.5 -40z" />
    <glyph glyph-name="plusminus" unicode="&#xb1;" horiz-adv-x="476" 
d="M445 265h-175v-141h-53v141h-176v51h176v131h53v-131h175v-51zM445 22h-404v51h404v-51z" />
    <glyph glyph-name="twosuperior" unicode="&#xb2;" 
d="M323 410h-255l8 35q9 39 36.5 76t60.5 66t64.5 57.5t52.5 60.5t21 64q0 26 -13 40.5t-37 14.5q-53 0 -76 -77l-60 12q36 124 141 124q54 0 82.5 -30t28.5 -83q0 -38 -20 -73.5t-50 -64.5t-60.5 -54.5t-56 -53.5t-33.5 -52h178z" />
    <glyph glyph-name="threesuperior" unicode="&#xb3;" 
d="M347 552q0 -66 -41 -107t-107 -41q-109 0 -130 115l64 13q16 -69 67 -69q38 0 60 26.5t22 66.5q0 73 -85 73h-20l12 60h18q48 0 76.5 19.5t28.5 59.5q0 26 -14.5 41.5t-41.5 15.5q-49 0 -71 -53l-57 17q36 94 136 94q55 0 85 -29.5t30 -77.5q0 -44 -25.5 -75t-68.5 -44
v-2q62 -28 62 -103z" />
    <glyph glyph-name="acute" unicode="&#xb4;" horiz-adv-x="347" 
d="M138 577h-64l105 141h94z" />
    <glyph glyph-name="mu" unicode="&#xb5;" horiz-adv-x="448" 
d="M364 1q-24 -6 -45 -6q-57 0 -57 56q0 9 1 14q-74 -74 -136 -74q-31 0 -50 16l-40 -179h-72l153 690h74l-79 -352q-6 -25 -6 -46q0 -55 48 -55q51 0 116 69l86 384h73l-93 -415q-8 -35 20 -35q9 0 21 4z" />
    <glyph glyph-name="paragraph" unicode="&#xb6;" horiz-adv-x="424" 
d="M377 -53h-51v722h-59v-722h-53v406q-68 0 -111.5 46.5t-43.5 138.5q0 180 181 180h179v-49h-42v-722z" />
    <glyph glyph-name="periodcentered" unicode="&#xb7;" horiz-adv-x="232" 
d="M154 201h-91l23 113h92z" />
    <glyph glyph-name="cedilla" unicode="&#xb8;" horiz-adv-x="347" 
d="M90 -170l10 43q24 -6 46 -6q57 0 57 31q0 22 -33 22q-12 0 -28 -6l-6 22l28 79l34 -12l-18 -50q15 3 21 3q26 0 41.5 -13.5t15.5 -40.5q0 -41 -32.5 -59.5t-82.5 -18.5q-33 0 -53 6z" />
    <glyph glyph-name="onesuperior" unicode="&#xb9;" 
d="M293 410h-197l12 59h64l76 338l-76 -13l10 51l98 32h48l-90 -408h67z" />
    <glyph glyph-name="ordmasculine" unicode="&#xba;" horiz-adv-x="272" 
d="M322 613q0 -55 -16 -107.5t-53.5 -92t-89.5 -39.5q-46 0 -71 29.5t-25 81.5q0 88 41.5 163.5t116.5 75.5q47 0 72 -29.5t25 -81.5zM130 481q0 -53 39 -53q40 0 65 64t25 125q0 54 -40 54q-27 0 -48.5 -34t-31 -76.5t-9.5 -79.5zM243 251h-216l11 48h216z" />
    <glyph glyph-name="guillemotright" unicode="&#xbb;" horiz-adv-x="423" 
d="M260 100h-77l125 158l-59 158h70l60 -159zM93 100h-77l125 158l-58 158h70l59 -159z" />
    <glyph glyph-name="onequarter" unicode="&#xbc;" horiz-adv-x="730" 
d="M169 -23h-61l523 762h62zM606 0h-61l23 109h-161l13 63l203 295h86l-66 -299h58l-13 -59h-58zM581 168l49 213h-2l-148 -213h101zM257 251h-197l12 59h64l76 338l-76 -13l10 51l98 32h48l-90 -408h67z" />
    <glyph glyph-name="onehalf" unicode="&#xbd;" horiz-adv-x="767" 
d="M693 0h-255l8 35q9 39 36.5 76t60.5 66t64.5 57.5t52.5 60.5t21 64q0 26 -13 40.5t-37 14.5q-53 0 -76 -77l-60 12q36 124 141 124q54 0 82.5 -30t28.5 -83q0 -38 -20 -73.5t-50 -64.5t-60.5 -54.5t-56 -53.5t-33.5 -52h178zM169 -23h-61l523 762h62zM257 251h-197l12 59
h64l76 338l-76 -13l10 51l98 32h48l-90 -408h67z" />
    <glyph glyph-name="threequarters" unicode="&#xbe;" horiz-adv-x="730" 
d="M311 393q0 -66 -41 -107t-107 -41q-109 0 -130 115l64 13q16 -69 67 -69q38 0 60 26.5t22 66.5q0 73 -85 73h-20l12 60h18q48 0 76.5 19.5t28.5 59.5q0 26 -14.5 41.5t-41.5 15.5q-49 0 -71 -53l-57 17q36 94 136 94q55 0 85 -29.5t30 -77.5q0 -44 -25.5 -75t-68.5 -44
v-2q62 -28 62 -103zM169 -23h-61l523 762h62zM606 0h-61l23 109h-161l13 63l203 295h86l-66 -299h58l-13 -59h-58zM581 168l49 213h-2l-148 -213h101z" />
    <glyph glyph-name="questiondown" unicode="&#xbf;" horiz-adv-x="362" 
d="M196 297h61q-8 -49 -31 -91.5t-50.5 -72t-53.5 -57t-43.5 -59t-17.5 -65.5q0 -33 17 -52t49 -19q61 0 91 77l68 -20q-45 -131 -167 -131q-68 0 -104 38.5t-36 99.5q0 42 20 81t49.5 70t60 60.5t55.5 66t32 74.5zM228 528h91l-24 -113h-91z" />
    <glyph glyph-name="Agrave" unicode="&#xc0;" horiz-adv-x="493" 
d="M420 0h-83v204h-191l-88 -204h-88l320 718h119zM335 643l-155 -359h157v359h-2zM385 770h-58l-76 141h88z" />
    <glyph glyph-name="Aacute" unicode="&#xc1;" horiz-adv-x="493" 
d="M420 0h-83v204h-191l-88 -204h-88l320 718h119zM335 643l-155 -359h157v359h-2zM388 770h-64l105 141h94z" />
    <glyph glyph-name="Acircumflex" unicode="&#xc2;" horiz-adv-x="493" 
d="M420 0h-83v204h-191l-88 -204h-88l320 718h119zM335 643l-155 -359h157v359h-2zM489 770h-58l-48 96l-90 -96h-65l111 141h100z" />
    <glyph glyph-name="Atilde" unicode="&#xc3;" horiz-adv-x="493" 
d="M420 0h-83v204h-191l-88 -204h-88l320 718h119zM335 643l-155 -359h157v359h-2zM462 884h49q-12 -102 -87 -102q-27 0 -66 20t-58 20q-28 0 -35 -44h-49q13 103 86 103q28 0 67 -20t58 -20q28 0 35 43z" />
    <glyph glyph-name="Adieresis" unicode="&#xc4;" horiz-adv-x="493" 
d="M420 0h-83v204h-191l-88 -204h-88l320 718h119zM335 643l-155 -359h157v359h-2zM332 783h-78l20 94h78zM468 783h-78l20 94h78z" />
    <glyph glyph-name="Aring" unicode="&#xc5;" horiz-adv-x="493" 
d="M420 0h-83v204h-191l-88 -204h-88l320 718h119zM335 643l-155 -359h157v359h-2zM417 860q0 23 -16 39t-41 16t-40.5 -16t-15.5 -39t15.5 -39.5t40.5 -16.5t41 16.5t16 39.5zM455 860q0 -41 -27 -68.5t-68 -27.5q-40 0 -67.5 27.5t-27.5 68.5q0 40 27 68t68 28t68 -28
t27 -68z" />
    <glyph glyph-name="AE" unicode="&#xc6;" horiz-adv-x="716" 
d="M391 718h375l-17 -80h-228l-53 -227h171l-16 -79h-171l-57 -252h263l-17 -80h-345l45 204h-175l-122 -204h-90zM428 639l-214 -355h145l79 355h-10z" />
    <glyph glyph-name="Ccedilla" unicode="&#xc7;" horiz-adv-x="491" 
d="M114 -170l10 43q24 -6 46 -6q57 0 57 31q0 22 -33 22q-11 0 -28 -6l-6 22l20 58q-133 21 -133 223q0 90 17.5 178t51 163.5t90 122t126.5 46.5q87 0 128.5 -56t46.5 -164l-78 -8q-7 76 -30.5 112t-72.5 36q-48 0 -86.5 -42.5t-60.5 -109t-33.5 -139t-11.5 -139.5
q0 -146 86 -146q92 0 148 146l79 -26q-72 -197 -230 -200l-13 -38q15 3 21 3q26 0 41.5 -13.5t15.5 -40.5q0 -41 -32.5 -59.5t-82.5 -18.5q-33 0 -53 6z" />
    <glyph glyph-name="Egrave" unicode="&#xc8;" horiz-adv-x="438" 
d="M364 770h-58l-76 141h88zM364 0h-352l158 718h318l-17 -80h-233l-52 -227h176l-17 -79h-175l-58 -252h269z" />
    <glyph glyph-name="Eacute" unicode="&#xc9;" horiz-adv-x="438" 
d="M360 770h-64l105 141h94zM364 0h-352l158 718h318l-17 -80h-233l-52 -227h176l-17 -79h-175l-58 -252h269z" />
    <glyph glyph-name="Ecircumflex" unicode="&#xca;" horiz-adv-x="438" 
d="M364 0h-352l158 718h318l-17 -80h-233l-52 -227h176l-17 -79h-175l-58 -252h269zM468 770h-58l-48 96l-90 -96h-65l111 141h100z" />
    <glyph glyph-name="Edieresis" unicode="&#xcb;" horiz-adv-x="438" 
d="M307 783h-78l20 94h78zM443 783h-78l20 94h78zM364 0h-352l158 718h318l-17 -80h-233l-52 -227h176l-17 -79h-175l-58 -252h269z" />
    <glyph glyph-name="Igrave" unicode="&#xcc;" horiz-adv-x="224" 
d="M96 0h-83l159 718h83zM250 770h-58l-76 141h88z" />
    <glyph glyph-name="Iacute" unicode="&#xcd;" horiz-adv-x="224" 
d="M96 0h-83l159 718h83zM253 770h-64l105 141h94z" />
    <glyph glyph-name="Icircumflex" unicode="&#xce;" horiz-adv-x="224" 
d="M96 0h-83l159 718h83zM351 770h-58l-48 96l-90 -96h-65l111 141h100z" />
    <glyph glyph-name="Idieresis" unicode="&#xcf;" horiz-adv-x="224" 
d="M96 0h-83l159 718h83zM194 783h-78l20 94h78zM330 783h-78l20 94h78z" />
    <glyph glyph-name="Eth" unicode="&#xd0;" horiz-adv-x="529" 
d="M192 0h-180l75 342h-51l13 63h52l69 313h91q142 0 202 -71.5t60 -199.5q0 -118 -40 -219.5t-117 -164.5t-174 -63zM113 82h68q114 0 185 107.5t71 261.5q0 85 -39.5 135t-124.5 50h-36l-52 -231h114l-14 -63h-114z" />
    <glyph glyph-name="Ntilde" unicode="&#xd1;" horiz-adv-x="540" 
d="M484 884h49q-12 -102 -87 -102q-27 0 -66 20t-58 20q-28 0 -35 -44h-49q13 103 86 103q28 0 67 -20t58 -20q28 0 35 43zM413 0h-80l-106 595h-2l-134 -595h-78l158 718h113l91 -523h2l117 523h78z" />
    <glyph glyph-name="Ograve" unicode="&#xd2;" horiz-adv-x="530" 
d="M394 770h-58l-76 141h88zM523 517q0 -88 -19.5 -178t-56.5 -169t-98 -129t-135 -50q-84 0 -125.5 55.5t-41.5 154.5q0 88 20 178t57 169t98 129t135 50q84 0 125 -55.5t41 -154.5zM134 198q0 -129 89 -129q49 0 91.5 46.5t68 117t40 146.5t14.5 141q0 129 -89 129
q-49 0 -91.5 -46.5t-68 -117t-40 -146.5t-14.5 -141z" />
    <glyph glyph-name="Oacute" unicode="&#xd3;" horiz-adv-x="530" 
d="M399 770h-64l105 141h94zM523 517q0 -88 -19.5 -178t-56.5 -169t-98 -129t-135 -50q-84 0 -125.5 55.5t-41.5 154.5q0 88 20 178t57 169t98 129t135 50q84 0 125 -55.5t41 -154.5zM134 198q0 -129 89 -129q49 0 91.5 46.5t68 117t40 146.5t14.5 141q0 129 -89 129
q-49 0 -91.5 -46.5t-68 -117t-40 -146.5t-14.5 -141z" />
    <glyph glyph-name="Ocircumflex" unicode="&#xd4;" horiz-adv-x="530" 
d="M523 517q0 -88 -19.5 -178t-56.5 -169t-98 -129t-135 -50q-84 0 -125.5 55.5t-41.5 154.5q0 88 20 178t57 169t98 129t135 50q84 0 125 -55.5t41 -154.5zM134 198q0 -129 89 -129q49 0 91.5 46.5t68 117t40 146.5t14.5 141q0 129 -89 129q-49 0 -91.5 -46.5t-68 -117
t-40 -146.5t-14.5 -141zM499 770h-58l-48 96l-90 -96h-65l111 141h100z" />
    <glyph glyph-name="Otilde" unicode="&#xd5;" horiz-adv-x="530" 
d="M477 884h49q-12 -102 -87 -102q-27 0 -66 20t-58 20q-28 0 -35 -44h-49q13 103 86 103q27 0 67 -20t58 -20q28 0 35 43zM523 517q0 -88 -19.5 -178t-56.5 -169t-98 -129t-135 -50q-84 0 -125.5 55.5t-41.5 154.5q0 88 20 178t57 169t98 129t135 50q84 0 125 -55.5
t41 -154.5zM134 198q0 -129 89 -129q49 0 91.5 46.5t68 117t40 146.5t14.5 141q0 129 -89 129q-49 0 -91.5 -46.5t-68 -117t-40 -146.5t-14.5 -141z" />
    <glyph glyph-name="Odieresis" unicode="&#xd6;" horiz-adv-x="530" 
d="M339 783h-78l20 94h78zM475 783h-78l20 94h78zM523 517q0 -88 -19.5 -178t-56.5 -169t-98 -129t-135 -50q-84 0 -125.5 55.5t-41.5 154.5q0 88 20 178t57 169t98 129t135 50q84 0 125 -55.5t41 -154.5zM134 198q0 -129 89 -129q49 0 91.5 46.5t68 117t40 146.5t14.5 141
q0 129 -89 129q-49 0 -91.5 -46.5t-68 -117t-40 -146.5t-14.5 -141z" />
    <glyph glyph-name="multiply" unicode="&#xd7;" horiz-adv-x="476" 
d="M375 90l-130 129l-128 -129l-37 37l130 130l-130 130l37 37l128 -130l130 130l37 -37l-129 -130l129 -130z" />
    <glyph glyph-name="Oslash" unicode="&#xd8;" horiz-adv-x="530" 
d="M70 -67h-69l76 131q-30 52 -30 137q0 88 20 178t57 169t98 129t135 50q53 0 91 -24l48 82h70l-75 -128q32 -51 32 -140q0 -88 -19.5 -178t-56.5 -169t-98 -129t-135 -50q-57 0 -95 26zM440 518q0 26 -4 45l-274 -471q23 -23 60 -23q51 0 94.5 46.5t69 116.5t40 145.5
t14.5 140.5zM131 200q0 -15 2 -39l272 468q-22 20 -56 20q-67 0 -119 -79.5t-75.5 -180t-23.5 -189.5z" />
    <glyph glyph-name="Ugrave" unicode="&#xd9;" horiz-adv-x="530" 
d="M403 770h-58l-76 141h88zM370 218l111 500h83l-114 -513q-25 -114 -79.5 -164t-151.5 -50q-84 0 -126 44t-42 120q0 31 8 71l109 492h83l-112 -505q-6 -25 -6 -48q0 -45 24 -69.5t69 -24.5q61 0 93.5 35t50.5 112z" />
    <glyph glyph-name="Uacute" unicode="&#xda;" horiz-adv-x="530" 
d="M402 770h-64l105 141h94zM370 218l111 500h83l-114 -513q-25 -114 -79.5 -164t-151.5 -50q-84 0 -126 44t-42 120q0 31 8 71l109 492h83l-112 -505q-6 -25 -6 -48q0 -45 24 -69.5t69 -24.5q61 0 93.5 35t50.5 112z" />
    <glyph glyph-name="Ucircumflex" unicode="&#xdb;" horiz-adv-x="530" 
d="M370 218l111 500h83l-114 -513q-25 -114 -79.5 -164t-151.5 -50q-84 0 -126 44t-42 120q0 31 8 71l109 492h83l-112 -505q-6 -25 -6 -48q0 -45 24 -69.5t69 -24.5q61 0 93.5 35t50.5 112zM509 770h-58l-48 96l-90 -96h-65l111 141h100z" />
    <glyph glyph-name="Udieresis" unicode="&#xdc;" horiz-adv-x="530" 
d="M348 783h-78l20 94h78zM484 783h-78l20 94h78zM370 218l111 500h83l-114 -513q-25 -114 -79.5 -164t-151.5 -50q-84 0 -126 44t-42 120q0 31 8 71l109 492h83l-112 -505q-6 -25 -6 -48q0 -45 24 -69.5t69 -24.5q61 0 93.5 35t50.5 112z" />
    <glyph glyph-name="Yacute" unicode="&#xdd;" horiz-adv-x="435" 
d="M200 0h-83l66 297l-86 421h88l56 -318h2l194 318h95l-267 -422zM344 770h-64l105 141h94z" />
    <glyph glyph-name="Thorn" unicode="&#xde;" horiz-adv-x="495" 
d="M95 0h-83l158 718h84l-24 -110h38q110 0 163.5 -48.5t53.5 -137.5q0 -97 -59.5 -162t-164.5 -65h-122zM155 273h94q75 0 112.5 40t37.5 108q0 48 -32.5 77t-88.5 29h-65z" />
    <glyph glyph-name="germandbls" unicode="&#xdf;" horiz-adv-x="451" 
d="M144 0l15 71q20 -4 43 -4q59 0 91 44t32 113q0 54 -27 89.5t-74 39.5l14 71q64 5 98.5 46t34.5 100q0 40 -18 63.5t-55 23.5q-78 0 -101 -106l-122 -551h-73l120 542q20 90 63 137.5t119 47.5q69 0 106 -41.5t37 -110.5q0 -68 -36.5 -118.5t-94.5 -71.5v-2
q86 -47 86 -166q0 -99 -52 -160.5t-148 -61.5q-32 0 -58 5z" />
    <glyph glyph-name="agrave" unicode="&#xe0;" horiz-adv-x="417" 
d="M309 0h-71l6 57q-66 -66 -134 -66q-48 0 -73.5 31t-25.5 87q0 49 21.5 87.5t63 65.5t90.5 45t116 33q9 30 9 54q0 68 -66 68q-65 0 -112 -71l-59 30q63 107 180 107q127 0 127 -124q0 -29 -10 -77l-54 -243zM253 124l34 153q-59 -12 -99.5 -28.5t-69.5 -49.5t-29 -80
q0 -30 14 -45t37 -15q56 0 113 65zM290 577h-58l-76 141h88z" />
    <glyph glyph-name="aacute" unicode="&#xe1;" horiz-adv-x="417" 
d="M309 0h-71l6 57q-66 -66 -134 -66q-48 0 -73.5 31t-25.5 87q0 49 21.5 87.5t63 65.5t90.5 45t116 33q9 30 9 54q0 68 -66 68q-65 0 -112 -71l-59 30q63 107 180 107q127 0 127 -124q0 -29 -10 -77l-54 -243zM253 124l34 153q-59 -12 -99.5 -28.5t-69.5 -49.5t-29 -80
q0 -30 14 -45t37 -15q56 0 113 65zM294 577h-64l105 141h94z" />
    <glyph glyph-name="acircumflex" unicode="&#xe2;" horiz-adv-x="417" 
d="M309 0h-71l6 57q-66 -66 -134 -66q-48 0 -73.5 31t-25.5 87q0 49 21.5 87.5t63 65.5t90.5 45t116 33q9 30 9 54q0 68 -66 68q-65 0 -112 -71l-59 30q63 107 180 107q127 0 127 -124q0 -29 -10 -77l-54 -243zM253 124l34 153q-59 -12 -99.5 -28.5t-69.5 -49.5t-29 -80
q0 -30 14 -45t37 -15q56 0 113 65zM397 577h-58l-48 96l-90 -96h-65l111 141h100z" />
    <glyph glyph-name="atilde" unicode="&#xe3;" horiz-adv-x="417" 
d="M309 0h-71l6 57q-66 -66 -134 -66q-48 0 -73.5 31t-25.5 87q0 49 21.5 87.5t63 65.5t90.5 45t116 33q9 30 9 54q0 68 -66 68q-65 0 -112 -71l-59 30q63 107 180 107q127 0 127 -124q0 -29 -10 -77l-54 -243zM253 124l34 153q-59 -12 -99.5 -28.5t-69.5 -49.5t-29 -80
q0 -30 14 -45t37 -15q56 0 113 65zM371 691h49q-12 -102 -87 -102q-27 0 -66 20t-58 20q-28 0 -35 -44h-49q13 103 86 103q27 0 67 -20t58 -20q28 0 35 43z" />
    <glyph glyph-name="adieresis" unicode="&#xe4;" horiz-adv-x="417" 
d="M309 0h-71l6 57q-66 -66 -134 -66q-48 0 -73.5 31t-25.5 87q0 49 21.5 87.5t63 65.5t90.5 45t116 33q9 30 9 54q0 68 -66 68q-65 0 -112 -71l-59 30q63 107 180 107q127 0 127 -124q0 -29 -10 -77l-54 -243zM253 124l34 153q-59 -12 -99.5 -28.5t-69.5 -49.5t-29 -80
q0 -30 14 -45t37 -15q56 0 113 65zM240 590h-78l20 94h78zM376 590h-78l20 94h78z" />
    <glyph glyph-name="aring" unicode="&#xe5;" horiz-adv-x="417" 
d="M309 0h-71l6 57q-66 -66 -134 -66q-48 0 -73.5 31t-25.5 87q0 49 21.5 87.5t63 65.5t90.5 45t116 33q9 30 9 54q0 68 -66 68q-65 0 -112 -71l-59 30q63 107 180 107q127 0 127 -124q0 -29 -10 -77l-54 -243zM253 124l34 153q-59 -12 -99.5 -28.5t-69.5 -49.5t-29 -80
q0 -30 14 -45t37 -15q56 0 113 65zM326 667q0 23 -16 39t-41 16t-40.5 -16t-15.5 -39t15.5 -39.5t40.5 -16.5t41 16.5t16 39.5zM364 667q0 -41 -27 -68.5t-68 -27.5q-40 0 -67.5 27.5t-27.5 68.5q0 40 27 68t68 28t68 -28t27 -68z" />
    <glyph glyph-name="ae" unicode="&#xe6;" horiz-adv-x="633" 
d="M398 61q61 0 111 96l64 -26q-36 -74 -81 -107t-104 -33q-91 0 -115 89q-83 -89 -165 -89q-48 0 -72.5 31t-24.5 87q0 95 73 147.5t211 83.5q10 35 10 57q0 65 -64 65q-32 0 -57 -15.5t-50 -55.5l-59 30q63 107 174 107q87 0 108 -64q54 64 127 64q126 0 126 -161
q0 -59 -15 -122h-252q-6 -45 -6 -86q0 -49 13.5 -73.5t47.5 -24.5zM245 121l35 156q-90 -18 -140.5 -54t-50.5 -104q0 -30 13 -45t34 -15q52 0 109 62zM477 462q-44 0 -75 -43t-47 -111h177q8 40 8 66q0 88 -63 88z" />
    <glyph glyph-name="ccedilla" unicode="&#xe7;" horiz-adv-x="401" 
d="M69 -170l10 43q24 -6 46 -6q57 0 57 31q0 22 -33 22q-11 0 -28 -6l-6 22l20 57q-56 9 -85 55t-29 119q0 88 26 169t80.5 136.5t125.5 55.5q129 0 141 -163l-69 -9q-5 49 -22 75.5t-55 26.5q-46 0 -81.5 -48t-52 -113.5t-16.5 -131.5q0 -48 18 -75.5t54 -27.5q68 0 117 93
l65 -26q-62 -131 -179 -138l-14 -38q15 3 21 3q26 0 41.5 -13.5t15.5 -40.5q0 -41 -32.5 -59.5t-82.5 -18.5q-34 0 -53 6z" />
    <glyph glyph-name="egrave" unicode="&#xe8;" horiz-adv-x="406" 
d="M283 157l64 -26q-69 -140 -194 -140q-64 0 -98 43.5t-34 129.5q0 88 24 168.5t77.5 138t125.5 57.5q136 0 136 -165q0 -49 -15 -118h-266q-6 -43 -6 -83q0 -101 67 -101q69 0 119 96zM243 462q-87 0 -128 -154h190q7 34 7 63q0 91 -69 91zM287 577h-58l-76 141h88z" />
    <glyph glyph-name="eacute" unicode="&#xe9;" horiz-adv-x="406" 
d="M291 577h-64l105 141h94zM283 157l64 -26q-69 -140 -194 -140q-64 0 -98 43.5t-34 129.5q0 88 24 168.5t77.5 138t125.5 57.5q136 0 136 -165q0 -49 -15 -118h-266q-6 -43 -6 -83q0 -101 67 -101q69 0 119 96zM243 462q-87 0 -128 -154h190q7 34 7 63q0 91 -69 91z" />
    <glyph glyph-name="ecircumflex" unicode="&#xea;" horiz-adv-x="406" 
d="M393 577h-58l-48 96l-90 -96h-65l111 141h100zM283 157l64 -26q-69 -140 -194 -140q-64 0 -98 43.5t-34 129.5q0 88 24 168.5t77.5 138t125.5 57.5q136 0 136 -165q0 -49 -15 -118h-266q-6 -43 -6 -83q0 -101 67 -101q69 0 119 96zM243 462q-87 0 -128 -154h190
q7 34 7 63q0 91 -69 91z" />
    <glyph glyph-name="edieresis" unicode="&#xeb;" horiz-adv-x="406" 
d="M235 590h-78l20 94h78zM371 590h-78l20 94h78zM283 157l64 -26q-69 -140 -194 -140q-64 0 -98 43.5t-34 129.5q0 88 24 168.5t77.5 138t125.5 57.5q136 0 136 -165q0 -49 -15 -118h-266q-6 -43 -6 -83q0 -101 67 -101q69 0 119 96zM243 462q-87 0 -128 -154h190
q7 34 7 63q0 91 -69 91z" />
    <glyph glyph-name="igrave" unicode="&#xec;" horiz-adv-x="193" 
d="M75 0h-73l115 518h73zM192 577h-58l-76 141h88z" />
    <glyph glyph-name="iacute" unicode="&#xed;" horiz-adv-x="193" 
d="M197 577h-64l105 141h94zM75 0h-73l115 518h73z" />
    <glyph glyph-name="icircumflex" unicode="&#xee;" horiz-adv-x="193" 
d="M293 577h-58l-48 96l-90 -96h-65l111 141h100zM75 0h-73l115 518h73z" />
    <glyph glyph-name="idieresis" unicode="&#xef;" horiz-adv-x="193" 
d="M138 590h-78l20 94h78zM274 590h-78l20 94h78zM75 0h-73l115 518h73z" />
    <glyph glyph-name="eth" unicode="&#xf0;" horiz-adv-x="439" 
d="M235 508q57 0 99 -39l2 1q-13 63 -37 121l-102 -38l-18 53l96 36q-7 14 -27 49l63 39l35 -62l79 30l18 -54l-73 -27q48 -108 48 -217q0 -70 -14 -139t-42.5 -131t-79 -100.5t-115.5 -38.5q-67 0 -105.5 47t-38.5 132q0 80 21 154t71 129t120 55zM175 59q51 0 89.5 53
t56 124.5t19.5 146.5q-40 58 -98 58q-38 0 -67.5 -29t-44.5 -74t-22.5 -88.5t-7.5 -82.5q0 -108 75 -108z" />
    <glyph glyph-name="ntilde" unicode="&#xf1;" horiz-adv-x="434" 
d="M320 0h-73l78 352q6 30 6 43q0 58 -50 58q-56 0 -120 -68l-85 -385h-73l114 518h66l-13 -64q77 74 145 74q92 0 92 -105q0 -30 -8 -65zM384 691h49q-12 -102 -87 -102q-27 0 -66 20t-58 20q-28 0 -35 -44h-49q13 103 86 103q28 0 67 -20t58 -20q28 0 35 43z" />
    <glyph glyph-name="ograve" unicode="&#xf2;" horiz-adv-x="417" 
d="M395 360q0 -85 -24 -166.5t-79.5 -142t-131.5 -60.5q-68 0 -103.5 44t-35.5 123q0 62 14.5 125.5t42.5 119t74.5 90.5t103.5 35q69 0 104 -44t35 -124zM98 155q0 -96 69 -96q47 0 83 53t52.5 121t16.5 131q0 96 -70 96q-46 0 -82 -53t-52.5 -121.5t-16.5 -130.5zM294 577
h-58l-76 141h88z" />
    <glyph glyph-name="oacute" unicode="&#xf3;" horiz-adv-x="417" 
d="M297 577h-64l105 141h94zM395 360q0 -85 -24 -166.5t-79.5 -142t-131.5 -60.5q-68 0 -103.5 44t-35.5 123q0 62 14.5 125.5t42.5 119t74.5 90.5t103.5 35q69 0 104 -44t35 -124zM98 155q0 -96 69 -96q47 0 83 53t52.5 121t16.5 131q0 96 -70 96q-46 0 -82 -53
t-52.5 -121.5t-16.5 -130.5z" />
    <glyph glyph-name="ocircumflex" unicode="&#xf4;" horiz-adv-x="417" 
d="M399 577h-58l-48 96l-90 -96h-65l111 141h100zM395 360q0 -85 -24 -166.5t-79.5 -142t-131.5 -60.5q-68 0 -103.5 44t-35.5 123q0 62 14.5 125.5t42.5 119t74.5 90.5t103.5 35q69 0 104 -44t35 -124zM98 155q0 -96 69 -96q47 0 83 53t52.5 121t16.5 131q0 96 -70 96
q-46 0 -82 -53t-52.5 -121.5t-16.5 -130.5z" />
    <glyph glyph-name="otilde" unicode="&#xf5;" horiz-adv-x="417" 
d="M395 360q0 -85 -24 -166.5t-79.5 -142t-131.5 -60.5q-68 0 -103.5 44t-35.5 123q0 62 14.5 125.5t42.5 119t74.5 90.5t103.5 35q69 0 104 -44t35 -124zM98 155q0 -96 69 -96q47 0 83 53t52.5 121t16.5 131q0 96 -70 96q-46 0 -82 -53t-52.5 -121.5t-16.5 -130.5zM374 691
h49q-12 -102 -87 -102q-27 0 -66 20t-58 20q-28 0 -35 -44h-49q13 103 86 103q28 0 67 -20t58 -20q28 0 35 43z" />
    <glyph glyph-name="odieresis" unicode="&#xf6;" horiz-adv-x="417" 
d="M242 590h-78l20 94h78zM378 590h-78l20 94h78zM395 360q0 -85 -24 -166.5t-79.5 -142t-131.5 -60.5q-68 0 -103.5 44t-35.5 123q0 62 14.5 125.5t42.5 119t74.5 90.5t103.5 35q69 0 104 -44t35 -124zM98 155q0 -96 69 -96q47 0 83 53t52.5 121t16.5 131q0 96 -70 96
q-46 0 -82 -53t-52.5 -121.5t-16.5 -130.5z" />
    <glyph glyph-name="divide" unicode="&#xf7;" horiz-adv-x="476" 
d="M446 232h-404v50h404v-50zM281 74h-74v82h74v-82zM281 358h-74v82h74v-82z" />
    <glyph glyph-name="oslash" unicode="&#xf8;" horiz-adv-x="417" 
d="M72 -67h-62l50 98q-39 43 -39 127q0 62 14.5 125.5t42.5 119t74.5 90.5t103.5 35q28 0 52 -8l34 66h62l-49 -96q40 -43 40 -130q0 -85 -24 -166.5t-79.5 -142t-131.5 -60.5q-30 0 -54 9zM323 360q0 28 -8 52l-177 -348q13 -5 29 -5q48 0 85.5 52t54 119.5t16.5 129.5z
M94 158q0 -27 6 -48l176 346q-16 4 -26 4q-48 0 -85.5 -52.5t-54 -119.5t-16.5 -130z" />
    <glyph glyph-name="ugrave" unicode="&#xf9;" horiz-adv-x="430" 
d="M114 518h74l-79 -352q-6 -24 -6 -45q0 -56 48 -56q52 0 117 69l86 384h73l-115 -518h-66l14 65q-79 -74 -143 -74q-90 0 -90 102q0 30 8 67zM310 577h-58l-76 141h88z" />
    <glyph glyph-name="uacute" unicode="&#xfa;" horiz-adv-x="430" 
d="M311 577h-64l105 141h94zM114 518h74l-79 -352q-6 -24 -6 -45q0 -56 48 -56q52 0 117 69l86 384h73l-115 -518h-66l14 65q-79 -74 -143 -74q-90 0 -90 102q0 30 8 67z" />
    <glyph glyph-name="ucircumflex" unicode="&#xfb;" horiz-adv-x="430" 
d="M414 577h-58l-48 96l-90 -96h-65l111 141h100zM114 518h74l-79 -352q-6 -24 -6 -45q0 -56 48 -56q52 0 117 69l86 384h73l-115 -518h-66l14 65q-79 -74 -143 -74q-90 0 -90 102q0 30 8 67z" />
    <glyph glyph-name="udieresis" unicode="&#xfc;" horiz-adv-x="430" 
d="M254 590h-78l20 94h78zM390 590h-78l20 94h78zM114 518h74l-79 -352q-6 -24 -6 -45q0 -56 48 -56q52 0 117 69l86 384h73l-115 -518h-66l14 65q-79 -74 -143 -74q-90 0 -90 102q0 30 8 67z" />
    <glyph glyph-name="yacute" unicode="&#xfd;" horiz-adv-x="369" 
d="M408 518l-246 -524q-49 -105 -87.5 -140t-107.5 -35q-22 0 -44 5l15 69q13 -3 34 -3q39 0 62 22t52 83l8 18l-35 505h79l16 -380h2l172 380h80zM270 577h-64l105 141h94z" />
    <glyph glyph-name="thorn" unicode="&#xfe;" horiz-adv-x="434" 
d="M38 -172h-73l197 891h73l-57 -257q64 66 128 66q107 0 107 -153q0 -93 -25 -178t-77.5 -143.5t-121.5 -58.5q-65 0 -101 57zM336 361q0 92 -64 92q-54 0 -110 -67l-60 -267q29 -52 82 -52q66 0 109 92.5t43 201.5z" />
    <glyph glyph-name="ydieresis" unicode="&#xff;" horiz-adv-x="369" 
d="M408 518l-246 -524q-49 -105 -87.5 -140t-107.5 -35q-22 0 -44 5l15 69q13 -3 34 -3q39 0 62 22t52 83l8 18l-35 505h79l16 -380h2l172 380h80zM217 590h-78l20 94h78zM353 590h-78l20 94h78z" />
    <glyph glyph-name="Amacron" unicode="&#x100;" horiz-adv-x="493" 
d="M420 0h-83v204h-191l-88 -204h-88l320 718h119zM335 643l-155 -359h157v359h-2zM485 803h-244l13 57h244z" />
    <glyph glyph-name="amacron" unicode="&#x101;" horiz-adv-x="417" 
d="M309 0h-71l6 57q-66 -66 -134 -66q-48 0 -73.5 31t-25.5 87q0 49 21.5 87.5t63 65.5t90.5 45t116 33q9 30 9 54q0 68 -66 68q-65 0 -112 -71l-59 30q63 107 180 107q127 0 127 -124q0 -29 -10 -77l-54 -243zM253 124l34 153q-59 -12 -99.5 -28.5t-69.5 -49.5t-29 -80
q0 -30 14 -45t37 -15q56 0 113 65zM392 610h-244l13 57h244z" />
    <glyph glyph-name="Abreve" unicode="&#x102;" horiz-adv-x="493" 
d="M420 0h-83v204h-191l-88 -204h-88l320 718h119zM335 643l-155 -359h157v359h-2zM463 901h46q-33 -126 -148 -126q-112 0 -115 126h45q3 -36 21 -52t54 -16q73 0 97 68z" />
    <glyph glyph-name="abreve" unicode="&#x103;" horiz-adv-x="417" 
d="M309 0h-71l6 57q-66 -66 -134 -66q-48 0 -73.5 31t-25.5 87q0 49 21.5 87.5t63 65.5t90.5 45t116 33q9 30 9 54q0 68 -66 68q-65 0 -112 -71l-59 30q63 107 180 107q127 0 127 -124q0 -29 -10 -77l-54 -243zM253 124l34 153q-59 -12 -99.5 -28.5t-69.5 -49.5t-29 -80
q0 -30 14 -45t37 -15q56 0 113 65zM369 708h46q-33 -126 -148 -126q-112 0 -115 126h45q3 -36 21 -52t54 -16q73 0 97 68z" />
    <glyph glyph-name="Aogonek" unicode="&#x104;" horiz-adv-x="493" 
d="M364 -124l-11 -48q-17 -4 -40 -4q-73 0 -73 63q0 37 24 67t73 63v187h-191l-88 -204h-88l320 718h119l11 -718h-41q-82 -53 -82 -98q0 -30 34 -30q16 0 33 4zM335 643l-155 -359h157v359h-2z" />
    <glyph glyph-name="aogonek" unicode="&#x105;" horiz-adv-x="417" 
d="M271 -124l-11 -48q-17 -4 -40 -4q-73 0 -73 63q0 37 23 66t69 61l5 43q-66 -66 -134 -66q-48 0 -73.5 31t-25.5 87q0 49 21.5 87.5t63 65.5t90.5 45t116 33q9 30 9 54q0 68 -66 68q-65 0 -112 -71l-59 30q63 107 180 107q127 0 127 -124q0 -29 -10 -77l-54 -243l-8 -84
h-23q-82 -53 -82 -98q0 -30 34 -30q16 0 33 4zM253 124l34 153q-59 -12 -99.5 -28.5t-69.5 -49.5t-29 -80q0 -30 14 -45t37 -15q56 0 113 65z" />
    <glyph glyph-name="Cacute" unicode="&#x106;" horiz-adv-x="491" 
d="M447 191q-74 -200 -235 -200q-85 0 -125 60.5t-40 165.5q0 90 17.5 178t51 163.5t90 122t126.5 46.5q87 0 128.5 -56t46.5 -164l-78 -8q-7 76 -30.5 112t-72.5 36q-48 0 -86.5 -42.5t-60.5 -109t-33.5 -139t-11.5 -139.5q0 -146 86 -146q92 0 148 146zM374 770h-64
l105 141h94z" />
    <glyph glyph-name="cacute" unicode="&#x107;" horiz-adv-x="401" 
d="M292 577h-64l105 141h94zM287 155l65 -26q-64 -138 -190 -138q-69 0 -105 47.5t-36 128.5q0 88 26 169t80.5 136.5t125.5 55.5q129 0 141 -163l-69 -9q-5 49 -22 75.5t-55 26.5q-46 0 -81.5 -48t-52 -113.5t-16.5 -131.5q0 -48 18 -75.5t54 -27.5q68 0 117 93z" />
    <glyph glyph-name="Ccircumflex" unicode="&#x108;" horiz-adv-x="491" 
d="M447 191q-74 -200 -235 -200q-85 0 -125 60.5t-40 165.5q0 90 17.5 178t51 163.5t90 122t126.5 46.5q87 0 128.5 -56t46.5 -164l-78 -8q-7 76 -30.5 112t-72.5 36q-48 0 -86.5 -42.5t-60.5 -109t-33.5 -139t-11.5 -139.5q0 -146 86 -146q92 0 148 146zM478 770h-58
l-48 96l-90 -96h-65l111 141h100z" />
    <glyph glyph-name="ccircumflex" unicode="&#x109;" horiz-adv-x="401" 
d="M398 577h-58l-48 96l-90 -96h-65l111 141h100zM287 155l65 -26q-64 -138 -190 -138q-69 0 -105 47.5t-36 128.5q0 88 26 169t80.5 136.5t125.5 55.5q129 0 141 -163l-69 -9q-5 49 -22 75.5t-55 26.5q-46 0 -81.5 -48t-52 -113.5t-16.5 -131.5q0 -48 18 -75.5t54 -27.5
q68 0 117 93z" />
    <glyph glyph-name="Cdotaccent" unicode="&#x10a;" horiz-adv-x="491" 
d="M380 783h-78l20 94h78zM447 191q-74 -200 -235 -200q-85 0 -125 60.5t-40 165.5q0 90 17.5 178t51 163.5t90 122t126.5 46.5q87 0 128.5 -56t46.5 -164l-78 -8q-7 76 -30.5 112t-72.5 36q-48 0 -86.5 -42.5t-60.5 -109t-33.5 -139t-11.5 -139.5q0 -146 86 -146
q92 0 148 146z" />
    <glyph glyph-name="cdotaccent" unicode="&#x10b;" horiz-adv-x="401" 
d="M287 155l65 -26q-64 -138 -190 -138q-69 0 -105 47.5t-36 128.5q0 88 26 169t80.5 136.5t125.5 55.5q129 0 141 -163l-69 -9q-5 49 -22 75.5t-55 26.5q-46 0 -81.5 -48t-52 -113.5t-16.5 -131.5q0 -48 18 -75.5t54 -27.5q68 0 117 93zM301 590h-78l20 94h78z" />
    <glyph glyph-name="Ccaron" unicode="&#x10c;" horiz-adv-x="491" 
d="M447 191q-74 -200 -235 -200q-85 0 -125 60.5t-40 165.5q0 90 17.5 178t51 163.5t90 122t126.5 46.5q87 0 128.5 -56t46.5 -164l-78 -8q-7 76 -30.5 112t-72.5 36q-48 0 -86.5 -42.5t-60.5 -109t-33.5 -139t-11.5 -139.5q0 -146 86 -146q92 0 148 146zM245 911h58l47 -96
l90 96h66l-111 -141h-100z" />
    <glyph glyph-name="ccaron" unicode="&#x10d;" horiz-adv-x="401" 
d="M163 718h58l47 -96l90 96h66l-111 -141h-100zM287 155l65 -26q-64 -138 -190 -138q-69 0 -105 47.5t-36 128.5q0 88 26 169t80.5 136.5t125.5 55.5q129 0 141 -163l-69 -9q-5 49 -22 75.5t-55 26.5q-46 0 -81.5 -48t-52 -113.5t-16.5 -131.5q0 -48 18 -75.5t54 -27.5
q68 0 117 93z" />
    <glyph glyph-name="Dcaron" unicode="&#x10e;" horiz-adv-x="529" 
d="M225 911h58l47 -96l90 96h66l-111 -141h-100zM192 0h-180l158 718h91q142 0 202 -71.5t60 -199.5q0 -118 -40 -219.5t-117 -164.5t-174 -63zM113 82h68q114 0 185 107.5t71 261.5q0 85 -39.5 135t-124.5 50h-36z" />
    <glyph glyph-name="dcaron" unicode="&#x10f;" horiz-adv-x="433" 
d="M540 565h-52l69 153h84zM403 718h72l-159 -718h-58l6 64q-68 -73 -136 -73q-107 0 -107 153q0 92 25 177.5t77.5 144t120.5 58.5q65 0 102 -57zM272 132l60 267q-28 52 -82 52q-67 0 -110 -92t-43 -201q0 -93 64 -93q55 0 111 67z" />
    <glyph glyph-name="Dcroat" unicode="&#x110;" horiz-adv-x="529" 
d="M192 0h-180l75 342h-51l13 63h52l69 313h91q142 0 202 -71.5t60 -199.5q0 -118 -40 -219.5t-117 -164.5t-174 -63zM113 82h68q114 0 185 107.5t71 261.5q0 85 -39.5 135t-124.5 50h-36l-52 -231h114l-14 -63h-114z" />
    <glyph glyph-name="dcroat" unicode="&#x111;" horiz-adv-x="433" 
d="M496 590h-50l-130 -590h-58l6 64q-68 -73 -136 -73q-107 0 -107 153q0 92 25 177.5t77.5 144t120.5 58.5q65 0 102 -57l28 123h-136l12 57h137l16 71h72l-16 -71h49zM272 132l60 267q-28 52 -82 52q-67 0 -110 -92t-43 -201q0 -93 64 -93q55 0 111 67z" />
    <glyph glyph-name="Emacron" unicode="&#x112;" horiz-adv-x="438" 
d="M463 803h-244l13 57h244zM364 0h-352l158 718h318l-17 -80h-233l-52 -227h176l-17 -79h-175l-58 -252h269z" />
    <glyph glyph-name="emacron" unicode="&#x113;" horiz-adv-x="406" 
d="M283 157l64 -26q-69 -140 -194 -140q-64 0 -98 43.5t-34 129.5q0 88 24 168.5t77.5 138t125.5 57.5q136 0 136 -165q0 -49 -15 -118h-266q-6 -43 -6 -83q0 -101 67 -101q69 0 119 96zM243 462q-87 0 -128 -154h190q7 34 7 63q0 91 -69 91zM387 610h-244l13 57h244z" />
    <glyph glyph-name="Ebreve" unicode="&#x114;" horiz-adv-x="438" 
d="M434 901h46q-33 -126 -148 -126q-112 0 -115 126h45q3 -36 21 -52t54 -16q73 0 97 68zM364 0h-352l158 718h318l-17 -80h-233l-52 -227h176l-17 -79h-175l-58 -252h269z" />
    <glyph glyph-name="ebreve" unicode="&#x115;" horiz-adv-x="406" 
d="M283 157l64 -26q-69 -140 -194 -140q-64 0 -98 43.5t-34 129.5q0 88 24 168.5t77.5 138t125.5 57.5q136 0 136 -165q0 -49 -15 -118h-266q-6 -43 -6 -83q0 -101 67 -101q69 0 119 96zM243 462q-87 0 -128 -154h190q7 34 7 63q0 91 -69 91zM362 708h46q-33 -126 -148 -126
q-112 0 -115 126h45q3 -36 21 -52t54 -16q73 0 97 68z" />
    <glyph glyph-name="Edotaccent" unicode="&#x116;" horiz-adv-x="438" 
d="M369 783h-78l20 94h78zM364 0h-352l158 718h318l-17 -80h-233l-52 -227h176l-17 -79h-175l-58 -252h269z" />
    <glyph glyph-name="edotaccent" unicode="&#x117;" horiz-adv-x="406" 
d="M283 157l64 -26q-69 -140 -194 -140q-64 0 -98 43.5t-34 129.5q0 88 24 168.5t77.5 138t125.5 57.5q136 0 136 -165q0 -49 -15 -118h-266q-6 -43 -6 -83q0 -101 67 -101q69 0 119 96zM243 462q-87 0 -128 -154h190q7 34 7 63q0 91 -69 91zM299 590h-78l20 94h78z" />
    <glyph glyph-name="Eogonek" unicode="&#x118;" horiz-adv-x="438" 
d="M364 0h-11q-82 -53 -82 -98q0 -30 34 -30q16 0 33 4l-11 -48q-17 -4 -40 -4q-73 0 -73 63q0 58 73 113h-275l158 718h318l-17 -80h-233l-52 -227h176l-17 -79h-175l-58 -252h269z" />
    <glyph glyph-name="eogonek" unicode="&#x119;" horiz-adv-x="406" 
d="M347 131q-29 -60 -67 -93q-70 -82 -70 -128q0 -38 33 -38q15 0 32 4l-10 -48q-16 -4 -41 -4q-72 0 -72 71q0 47 44 98v2q-17 -4 -43 -4q-64 0 -98 43.5t-34 129.5q0 88 24 168.5t77.5 138t125.5 57.5q136 0 136 -165q0 -49 -15 -118h-266q-6 -43 -6 -83q0 -101 67 -101
q69 0 119 96zM243 462q-87 0 -128 -154h190q7 34 7 63q0 91 -69 91z" />
    <glyph glyph-name="Ecaron" unicode="&#x11a;" horiz-adv-x="438" 
d="M233 911h58l47 -96l90 96h66l-111 -141h-100zM364 0h-352l158 718h318l-17 -80h-233l-52 -227h176l-17 -79h-175l-58 -252h269z" />
    <glyph glyph-name="ecaron" unicode="&#x11b;" horiz-adv-x="406" 
d="M161 718h58l47 -96l90 96h66l-111 -141h-100zM283 157l64 -26q-69 -140 -194 -140q-64 0 -98 43.5t-34 129.5q0 88 24 168.5t77.5 138t125.5 57.5q136 0 136 -165q0 -49 -15 -118h-266q-6 -43 -6 -83q0 -101 67 -101q69 0 119 96zM243 462q-87 0 -128 -154h190q7 34 7 63
q0 91 -69 91z" />
    <glyph glyph-name="Gcircumflex" unicode="&#x11c;" horiz-adv-x="517" 
d="M411 0h-68l14 64h-2q-63 -73 -151 -73q-77 0 -117 61.5t-40 164.5q0 91 19 179.5t54 163.5t92.5 121t128.5 46q86 0 127 -56t48 -164l-80 -8q-6 75 -29.5 111.5t-71.5 36.5q-49 0 -89.5 -43t-63.5 -109.5t-35.5 -138.5t-12.5 -139t23.5 -107t71.5 -40q67 0 109.5 57.5
t52.5 143.5h-129l16 74h209zM480 770h-58l-48 96l-90 -96h-65l111 141h100z" />
    <glyph glyph-name="gcircumflex" unicode="&#x11d;" horiz-adv-x="410" 
d="M391 577h-58l-48 96l-90 -96h-65l111 141h100zM183 161q-33 0 -60 11q-40 -19 -40 -42q0 -17 25.5 -27t61.5 -17.5t72 -18.5t61.5 -38.5t25.5 -70.5q0 -69 -57 -104t-145 -35q-81 0 -128.5 30.5t-47.5 82.5q0 75 96 108v2q-38 16 -38 56q0 60 76 101q-32 35 -32 100
q0 88 51.5 158.5t140.5 70.5q67 0 100 -43q44 50 103 50l-16 -78q-37 0 -65 -18q7 -26 7 -51q0 -89 -51 -158t-140 -69zM190 223q51 0 80.5 53t29.5 114q0 73 -62 73q-50 0 -80 -54.5t-30 -113.5q0 -72 62 -72zM252 -51q0 17 -10.5 30t-33 21t-41 12.5t-49.5 9.5
q-93 -20 -93 -76q0 -32 28 -50t78 -18q52 0 86.5 18t34.5 53z" />
    <glyph glyph-name="Gbreve" unicode="&#x11e;" horiz-adv-x="517" 
d="M454 901h46q-33 -126 -148 -126q-112 0 -115 126h45q3 -36 21 -52t54 -16q73 0 97 68zM411 0h-68l14 64h-2q-63 -73 -151 -73q-77 0 -117 61.5t-40 164.5q0 91 19 179.5t54 163.5t92.5 121t128.5 46q86 0 127 -56t48 -164l-80 -8q-6 75 -29.5 111.5t-71.5 36.5
q-49 0 -89.5 -43t-63.5 -109.5t-35.5 -138.5t-12.5 -139t23.5 -107t71.5 -40q67 0 109.5 57.5t52.5 143.5h-129l16 74h209z" />
    <glyph glyph-name="gbreve" unicode="&#x11f;" horiz-adv-x="410" 
d="M183 161q-33 0 -60 11q-40 -19 -40 -42q0 -17 25.5 -27t61.5 -17.5t72 -18.5t61.5 -38.5t25.5 -70.5q0 -69 -57 -104t-145 -35q-81 0 -128.5 30.5t-47.5 82.5q0 75 96 108v2q-38 16 -38 56q0 60 76 101q-32 35 -32 100q0 88 51.5 158.5t140.5 70.5q67 0 100 -43
q44 50 103 50l-16 -78q-37 0 -65 -18q7 -26 7 -51q0 -89 -51 -158t-140 -69zM190 223q51 0 80.5 53t29.5 114q0 73 -62 73q-50 0 -80 -54.5t-30 -113.5q0 -72 62 -72zM252 -51q0 17 -10.5 30t-33 21t-41 12.5t-49.5 9.5q-93 -20 -93 -76q0 -32 28 -50t78 -18q52 0 86.5 18
t34.5 53zM364 708h46q-33 -126 -148 -126q-112 0 -115 126h45q3 -36 21 -52t54 -16q73 0 97 68z" />
    <glyph glyph-name="Gdotaccent" unicode="&#x120;" horiz-adv-x="517" 
d="M388 783h-78l20 94h78zM411 0h-68l14 64h-2q-63 -73 -151 -73q-77 0 -117 61.5t-40 164.5q0 91 19 179.5t54 163.5t92.5 121t128.5 46q86 0 127 -56t48 -164l-80 -8q-6 75 -29.5 111.5t-71.5 36.5q-49 0 -89.5 -43t-63.5 -109.5t-35.5 -138.5t-12.5 -139t23.5 -107
t71.5 -40q67 0 109.5 57.5t52.5 143.5h-129l16 74h209z" />
    <glyph glyph-name="gdotaccent" unicode="&#x121;" horiz-adv-x="410" 
d="M183 161q-33 0 -60 11q-40 -19 -40 -42q0 -17 25.5 -27t61.5 -17.5t72 -18.5t61.5 -38.5t25.5 -70.5q0 -69 -57 -104t-145 -35q-81 0 -128.5 30.5t-47.5 82.5q0 75 96 108v2q-38 16 -38 56q0 60 76 101q-32 35 -32 100q0 88 51.5 158.5t140.5 70.5q67 0 100 -43
q44 50 103 50l-16 -78q-37 0 -65 -18q7 -26 7 -51q0 -89 -51 -158t-140 -69zM190 223q51 0 80.5 53t29.5 114q0 73 -62 73q-50 0 -80 -54.5t-30 -113.5q0 -72 62 -72zM252 -51q0 17 -10.5 30t-33 21t-41 12.5t-49.5 9.5q-93 -20 -93 -76q0 -32 28 -50t78 -18q52 0 86.5 18
t34.5 53zM296 590h-78l20 94h78z" />
    <glyph glyph-name="Gcommaaccent" unicode="&#x122;" horiz-adv-x="517" 
d="M187 -195h-44l55 79h-30l17 74h78l-16 -72zM411 0h-68l14 64h-2q-63 -73 -151 -73q-77 0 -117 61.5t-40 164.5q0 91 19 179.5t54 163.5t92.5 121t128.5 46q86 0 127 -56t48 -164l-80 -8q-6 75 -29.5 111.5t-71.5 36.5q-49 0 -89.5 -43t-63.5 -109.5t-35.5 -138.5
t-12.5 -139t23.5 -107t71.5 -40q67 0 109.5 57.5t52.5 143.5h-129l16 74h209z" />
    <glyph glyph-name="gcommaaccent" unicode="&#x123;" horiz-adv-x="410" 
d="M288 708h44l-55 -78h30l-17 -75h-78l16 74zM183 161q-33 0 -60 11q-40 -19 -40 -42q0 -17 25.5 -27t61.5 -17.5t72 -18.5t61.5 -38.5t25.5 -70.5q0 -69 -57 -104t-145 -35q-81 0 -128.5 30.5t-47.5 82.5q0 75 96 108v2q-38 16 -38 56q0 60 76 101q-32 35 -32 100
q0 88 51.5 158.5t140.5 70.5q67 0 100 -43q44 50 103 50l-16 -78q-37 0 -65 -18q7 -26 7 -51q0 -89 -51 -158t-140 -69zM190 223q51 0 80.5 53t29.5 114q0 73 -62 73q-50 0 -80 -54.5t-30 -113.5q0 -72 62 -72zM252 -51q0 17 -10.5 30t-33 21t-41 12.5t-49.5 9.5
q-93 -20 -93 -76q0 -32 28 -50t78 -18q52 0 86.5 18t34.5 53z" />
    <glyph glyph-name="Hcircumflex" unicode="&#x124;" horiz-adv-x="543" 
d="M415 0h-83l75 334h-236l-75 -334h-83l158 718h84l-68 -304h236l68 304h83zM514 770h-58l-48 96l-90 -96h-65l111 141h100z" />
    <glyph glyph-name="hcircumflex" unicode="&#x125;" horiz-adv-x="436" 
d="M320 0h-73l78 352q6 30 6 43q0 58 -50 58q-56 0 -120 -68l-85 -385h-73l159 718h74l-59 -258q76 68 139 68q92 0 92 -106q0 -29 -8 -64zM332 744h-58l-48 96l-90 -96h-65l111 141h100z" />
    <glyph glyph-name="Hbar" unicode="&#x126;" horiz-adv-x="543" 
d="M415 0h-83l75 334h-236l-75 -334h-83l125 570h-51l14 63h51l19 85h84l-19 -85h236l19 85h83l-19 -85h52l-14 -63h-52zM187 414h236l35 156h-236z" />
    <glyph glyph-name="hbar" unicode="&#x127;" horiz-adv-x="436" 
d="M320 0h-73l78 352q6 30 6 43q0 58 -50 58q-56 0 -120 -68l-85 -385h-73l130 590h-47l12 57h48l16 71h74l-17 -71h130l-12 -57h-131l-29 -130q76 68 139 68q92 0 92 -106q0 -29 -8 -64z" />
    <glyph glyph-name="Itilde" unicode="&#x128;" horiz-adv-x="224" 
d="M96 0h-83l159 718h83zM326 884h49q-12 -102 -87 -102q-27 0 -66 20t-58 20q-28 0 -35 -44h-49q13 103 86 103q28 0 67 -20t58 -20q28 0 35 43z" />
    <glyph glyph-name="itilde" unicode="&#x129;" horiz-adv-x="193" 
d="M75 0h-73l115 518h73zM266 691h49q-12 -102 -87 -102q-27 0 -66 20t-58 20q-28 0 -35 -44h-49q13 103 86 103q28 0 67 -20t58 -20q28 0 35 43z" />
    <glyph glyph-name="Imacron" unicode="&#x12a;" horiz-adv-x="224" 
d="M96 0h-83l159 718h83zM348 803h-244l13 57h244z" />
    <glyph glyph-name="imacron" unicode="&#x12b;" horiz-adv-x="193" 
d="M75 0h-73l115 518h73zM288 610h-244l13 57h244z" />
    <glyph glyph-name="Ibreve" unicode="&#x12c;" horiz-adv-x="224" 
d="M96 0h-83l159 718h83zM331 901h46q-33 -126 -148 -126q-112 0 -115 126h45q3 -36 21 -52t54 -16q73 0 97 68z" />
    <glyph glyph-name="ibreve" unicode="&#x12d;" horiz-adv-x="193" 
d="M75 0h-73l115 518h73zM270 708h46q-33 -126 -148 -126q-112 0 -115 126h45q3 -36 21 -52t54 -16q73 0 97 68z" />
    <glyph glyph-name="Iogonek" unicode="&#x12e;" horiz-adv-x="224" 
d="M93 -124l-10 -48q-17 -4 -40 -4q-73 0 -73 64q0 53 59 112h-16l159 718h83l-159 -718h-9q-60 -53 -60 -98q0 -30 34 -30q15 0 32 4z" />
    <glyph glyph-name="iogonek" unicode="&#x12f;" horiz-adv-x="193" 
d="M77 -124l-11 -48q-17 -4 -40 -4q-73 0 -73 64q0 53 59 112h-10l115 518h73l-115 -518h-5q-59 -52 -59 -98q0 -30 34 -30q15 0 32 4zM216 620h-81l22 99h80z" />
    <glyph glyph-name="Idotaccent" unicode="&#x130;" horiz-adv-x="224" 
d="M96 0h-83l159 718h83zM264 783h-78l20 94h78z" />
    <glyph glyph-name="dotlessi" unicode="&#x131;" horiz-adv-x="193" 
d="M75 0h-73l115 518h73z" />
    <glyph glyph-name="Jcircumflex" unicode="&#x134;" horiz-adv-x="353" 
d="M382 718l-121 -547q-21 -96 -56.5 -138t-104.5 -42q-94 0 -136 101l73 40q24 -59 66 -59q34 0 48 24.5t29 88.5l120 532h82zM479 770h-58l-48 96l-90 -96h-65l111 141h100z" />
    <glyph glyph-name="jcircumflex" unicode="&#x135;" horiz-adv-x="201" 
d="M196 518l-125 -556q-18 -80 -48 -111.5t-88 -31.5q-25 0 -45 5l14 70q13 -4 32 -4q26 0 40 16.5t22 51.5l125 560h73zM298 577h-58l-48 96l-90 -96h-65l111 141h100z" />
    <glyph glyph-name="Kcommaaccent" unicode="&#x136;" horiz-adv-x="480" 
d="M173 -195h-44l55 79h-30l17 74h78l-16 -72zM431 0h-87l-77 370l-119 -133l-53 -237h-83l158 718h84l-77 -336h1l289 336h99l-228 -265z" />
    <glyph glyph-name="kcommaaccent" unicode="&#x137;" horiz-adv-x="392" 
d="M123 -195h-44l55 79h-30l17 74h78l-16 -72zM341 0h-77l-60 269l-88 -94l-40 -175h-73l159 718h72l-95 -425h2l200 225h86l-160 -177z" />
    <glyph glyph-name="kgreenlandic" unicode="&#x138;" horiz-adv-x="392" 
d="M341 0h-77l-60 269l-88 -94l-40 -175h-73l114 518h73l-51 -225h2l200 225h86l-160 -177z" />
    <glyph glyph-name="Lacute" unicode="&#x139;" horiz-adv-x="403" 
d="M253 770h-64l105 141h94zM337 0h-325l158 718h84l-143 -638h243z" />
    <glyph glyph-name="lacute" unicode="&#x13a;" horiz-adv-x="194" 
d="M235 744h-64l105 141h94zM76 0h-73l159 718h72z" />
    <glyph glyph-name="Lcommaaccent" unicode="&#x13b;" horiz-adv-x="403" 
d="M132 -195h-44l55 79h-30l17 74h78l-16 -72zM337 0h-325l158 718h84l-143 -638h243z" />
    <glyph glyph-name="lcommaaccent" unicode="&#x13c;" horiz-adv-x="194" 
d="M-6 -195h-44l55 79h-30l17 74h78l-16 -72zM76 0h-73l159 718h72z" />
    <glyph glyph-name="Lcaron" unicode="&#x13d;" horiz-adv-x="403" 
d="M323 565h-52l69 153h84zM337 0h-325l158 718h84l-143 -638h243z" />
    <glyph glyph-name="lcaron" unicode="&#x13e;" horiz-adv-x="194" 
d="M299 565h-52l69 153h84zM76 0h-73l159 718h72z" />
    <glyph glyph-name="Ldot" unicode="&#x13f;" horiz-adv-x="425" 
d="M337 0h-325l158 718h84l-143 -638h243zM396 338h-91l23 113h92z" />
    <glyph glyph-name="ldot" unicode="&#x140;" horiz-adv-x="328" 
d="M76 0h-73l159 718h72zM302 201h-91l23 113h92z" />
    <glyph glyph-name="Lslash" unicode="&#x141;" horiz-adv-x="403" 
d="M337 0h-325l64 294l-57 -26l16 77l58 26l77 347h84l-68 -305l185 84l-16 -77l-187 -85l-57 -255h243z" />
    <glyph glyph-name="lslash" unicode="&#x142;" horiz-adv-x="200" 
d="M79 0h-73l67 305l-59 -26l15 68l59 26l77 345h72l-68 -309l62 27l-15 -69l-62 -27z" />
    <glyph glyph-name="Nacute" unicode="&#x143;" horiz-adv-x="540" 
d="M404 770h-64l105 141h94zM413 0h-80l-106 595h-2l-134 -595h-78l158 718h113l91 -523h2l117 523h78z" />
    <glyph glyph-name="nacute" unicode="&#x144;" horiz-adv-x="434" 
d="M298 577h-64l105 141h94zM320 0h-73l78 352q6 30 6 43q0 58 -50 58q-56 0 -120 -68l-85 -385h-73l114 518h66l-13 -64q77 74 145 74q92 0 92 -105q0 -30 -8 -65z" />
    <glyph glyph-name="Ncommaaccent" unicode="&#x145;" horiz-adv-x="540" 
d="M179 -195h-44l55 79h-30l17 74h78l-16 -72zM413 0h-80l-106 595h-2l-134 -595h-78l158 718h113l91 -523h2l117 523h78z" />
    <glyph glyph-name="ncommaaccent" unicode="&#x146;" horiz-adv-x="434" 
d="M122 -195h-44l55 79h-30l17 74h78l-16 -72zM320 0h-73l78 352q6 30 6 43q0 58 -50 58q-56 0 -120 -68l-85 -385h-73l114 518h66l-13 -64q77 74 145 74q92 0 92 -105q0 -30 -8 -65z" />
    <glyph glyph-name="Ncaron" unicode="&#x147;" horiz-adv-x="540" 
d="M276 911h58l47 -96l90 96h66l-111 -141h-100zM413 0h-80l-106 595h-2l-134 -595h-78l158 718h113l91 -523h2l117 523h78z" />
    <glyph glyph-name="ncaron" unicode="&#x148;" horiz-adv-x="434" 
d="M167 718h58l47 -96l90 96h66l-111 -141h-100zM320 0h-73l78 352q6 30 6 43q0 58 -50 58q-56 0 -120 -68l-85 -385h-73l114 518h66l-13 -64q77 74 145 74q92 0 92 -105q0 -30 -8 -65z" />
    <glyph glyph-name="Eng" unicode="&#x14a;" horiz-adv-x="540" 
d="M403 -41q-16 -76 -47 -108t-92 -32q-25 0 -46 4l15 76q15 -3 33 -3q45 0 60 60l12 47l-111 592h-2l-134 -595h-78l158 718h113l93 -511h1l116 511h78z" />
    <glyph glyph-name="eng" unicode="&#x14b;" horiz-adv-x="434" 
d="M399 358l-89 -396q-18 -80 -48 -111.5t-88 -31.5q-26 0 -46 5l15 70q13 -4 32 -4q25 0 39 16.5t22 51.5l89 394q6 23 6 43q0 58 -50 58q-56 0 -120 -68l-85 -385h-73l114 518h66l-13 -64q77 74 145 74q92 0 92 -105q0 -30 -8 -65z" />
    <glyph glyph-name="Omacron" unicode="&#x14c;" horiz-adv-x="530" 
d="M491 803h-244l13 57h244zM523 517q0 -88 -19.5 -178t-56.5 -169t-98 -129t-135 -50q-84 0 -125.5 55.5t-41.5 154.5q0 88 20 178t57 169t98 129t135 50q84 0 125 -55.5t41 -154.5zM134 198q0 -129 89 -129q49 0 91.5 46.5t68 117t40 146.5t14.5 141q0 129 -89 129
q-49 0 -91.5 -46.5t-68 -117t-40 -146.5t-14.5 -141z" />
    <glyph glyph-name="omacron" unicode="&#x14d;" horiz-adv-x="417" 
d="M393 610h-244l13 57h244zM395 360q0 -85 -24 -166.5t-79.5 -142t-131.5 -60.5q-68 0 -103.5 44t-35.5 123q0 62 14.5 125.5t42.5 119t74.5 90.5t103.5 35q69 0 104 -44t35 -124zM98 155q0 -96 69 -96q47 0 83 53t52.5 121t16.5 131q0 96 -70 96q-46 0 -82 -53
t-52.5 -121.5t-16.5 -130.5z" />
    <glyph glyph-name="Obreve" unicode="&#x14e;" horiz-adv-x="530" 
d="M470 901h46q-33 -126 -148 -126q-112 0 -115 126h45q3 -36 21 -52t54 -16q73 0 97 68zM523 517q0 -88 -19.5 -178t-56.5 -169t-98 -129t-135 -50q-84 0 -125.5 55.5t-41.5 154.5q0 88 20 178t57 169t98 129t135 50q84 0 125 -55.5t41 -154.5zM134 198q0 -129 89 -129
q49 0 91.5 46.5t68 117t40 146.5t14.5 141q0 129 -89 129q-49 0 -91.5 -46.5t-68 -117t-40 -146.5t-14.5 -141z" />
    <glyph glyph-name="obreve" unicode="&#x14f;" horiz-adv-x="417" 
d="M395 360q0 -85 -24 -166.5t-79.5 -142t-131.5 -60.5q-68 0 -103.5 44t-35.5 123q0 62 14.5 125.5t42.5 119t74.5 90.5t103.5 35q69 0 104 -44t35 -124zM98 155q0 -96 69 -96q47 0 83 53t52.5 121t16.5 131q0 96 -70 96q-46 0 -82 -53t-52.5 -121.5t-16.5 -130.5zM372 708
h46q-33 -126 -148 -126q-112 0 -115 126h45q3 -36 21 -52t54 -16q73 0 97 68z" />
    <glyph glyph-name="Ohungarumlaut" unicode="&#x150;" horiz-adv-x="530" 
d="M523 517q0 -88 -19.5 -178t-56.5 -169t-98 -129t-135 -50q-84 0 -125.5 55.5t-41.5 154.5q0 88 20 178t57 169t98 129t135 50q84 0 125 -55.5t41 -154.5zM134 198q0 -129 89 -129q49 0 91.5 46.5t68 117t40 146.5t14.5 141q0 129 -89 129q-49 0 -91.5 -46.5t-68 -117
t-40 -146.5t-14.5 -141zM312 770h-64l104 141h95zM471 770h-64l105 141h94z" />
    <glyph glyph-name="ohungarumlaut" unicode="&#x151;" horiz-adv-x="417" 
d="M217 577h-64l104 141h95zM376 577h-64l105 141h94zM395 360q0 -85 -24 -166.5t-79.5 -142t-131.5 -60.5q-68 0 -103.5 44t-35.5 123q0 62 14.5 125.5t42.5 119t74.5 90.5t103.5 35q69 0 104 -44t35 -124zM98 155q0 -96 69 -96q47 0 83 53t52.5 121t16.5 131q0 96 -70 96
q-46 0 -82 -53t-52.5 -121.5t-16.5 -130.5z" />
    <glyph glyph-name="OE" unicode="&#x152;" horiz-adv-x="745" 
d="M671 0h-347q-47 -6 -87 -6q-95 0 -142.5 60t-47.5 172q0 87 20 172.5t58.5 159.5t104 120t147.5 46q52 0 108 -6h310l-17 -80h-230l-52 -227h172l-16 -79h-172l-57 -252h264zM356 162l92 400q19 84 -79 84q-54 0 -100 -40t-74.5 -103t-44.5 -136.5t-16 -143.5
q0 -74 30 -112.5t84 -38.5q50 0 74 21.5t34 68.5z" />
    <glyph glyph-name="oe" unicode="&#x153;" horiz-adv-x="659" 
d="M599 131q-67 -140 -185 -140q-88 0 -111 87h-2q-62 -87 -148 -87q-65 0 -98.5 43t-33.5 122q0 85 24 167.5t78 143.5t125 61q94 0 117 -89h2q59 89 143 89q126 0 126 -161q0 -59 -15 -122h-252q-6 -45 -6 -86q0 -98 61 -98q63 0 111 96zM98 154q0 -95 64 -95
q43 0 78.5 53t52.5 122t17 130q0 96 -68 96q-43 0 -77.5 -53.5t-50.5 -122t-16 -130.5zM503 462q-44 0 -75 -43t-47 -111h177q8 40 8 66q0 88 -63 88z" />
    <glyph glyph-name="Racute" unicode="&#x154;" horiz-adv-x="496" 
d="M407 0h-88l-53 317h-100l-71 -317h-83l158 718h116q110 0 165.5 -40t55.5 -131q0 -76 -42 -130.5t-116 -79.5zM182 394h78q77 0 119 40t42 107q0 99 -123 99h-60zM342 770h-64l105 141h94z" />
    <glyph glyph-name="racute" unicode="&#x155;" horiz-adv-x="286" 
d="M249 577h-64l105 141h94zM76 0h-73l114 518h69l-18 -84q36 50 69 72t74 22q10 0 18 -2l-18 -83q-9 2 -17 2q-74 0 -141 -101z" />
    <glyph glyph-name="Rcommaaccent" unicode="&#x156;" horiz-adv-x="496" 
d="M165 -195h-44l55 79h-30l17 74h78l-16 -72zM407 0h-88l-53 317h-100l-71 -317h-83l158 718h116q110 0 165.5 -40t55.5 -131q0 -76 -42 -130.5t-116 -79.5zM182 394h78q77 0 119 40t42 107q0 99 -123 99h-60z" />
    <glyph glyph-name="rcommaaccent" unicode="&#x157;" horiz-adv-x="286" 
d="M-6 -195h-44l55 79h-30l17 74h78l-16 -72zM76 0h-73l114 518h69l-18 -84q36 50 69 72t74 22q10 0 18 -2l-18 -83q-9 2 -17 2q-74 0 -141 -101z" />
    <glyph glyph-name="Rcaron" unicode="&#x158;" horiz-adv-x="496" 
d="M222 911h58l47 -96l90 96h66l-111 -141h-100zM407 0h-88l-53 317h-100l-71 -317h-83l158 718h116q110 0 165.5 -40t55.5 -131q0 -76 -42 -130.5t-116 -79.5zM182 394h78q77 0 119 40t42 107q0 99 -123 99h-60z" />
    <glyph glyph-name="rcaron" unicode="&#x159;" horiz-adv-x="286" 
d="M123 718h58l47 -96l90 96h66l-111 -141h-100zM76 0h-73l114 518h69l-18 -84q36 50 69 72t74 22q10 0 18 -2l-18 -83q-9 2 -17 2q-74 0 -141 -101z" />
    <glyph glyph-name="Sacute" unicode="&#x15a;" horiz-adv-x="441" 
d="M457 540l-77 -13q-24 123 -109 123q-40 0 -61.5 -24t-21.5 -70q0 -34 20.5 -68t49 -65.5t57.5 -65t49.5 -78.5t20.5 -95q0 -90 -51.5 -141.5t-138.5 -51.5q-160 0 -190 197l82 13q25 -132 113 -132q45 0 72.5 28.5t27.5 81.5q0 36 -20.5 72t-49 67.5t-57.5 65t-49.5 77
t-20.5 90.5q0 81 46 128.5t124 47.5q156 0 184 -187zM316 770h-64l105 141h94z" />
    <glyph glyph-name="sacute" unicode="&#x15b;" horiz-adv-x="361" 
d="M247 577h-64l105 141h94zM349 394l-63 -15q-22 82 -87 82q-28 0 -46 -16.5t-18 -45.5q0 -27 17.5 -51.5t42.5 -44.5t50 -41.5t42.5 -53t17.5 -69.5q0 -72 -42.5 -110t-110.5 -38q-63 0 -102.5 37.5t-53.5 105.5l68 15q23 -91 92 -91q34 0 55 19.5t21 54.5q0 26 -17.5 50
t-42 44t-49 42.5t-42 54.5t-17.5 70q0 62 38 98.5t101 36.5q58 0 95.5 -35t50.5 -99z" />
    <glyph glyph-name="Scircumflex" unicode="&#x15c;" horiz-adv-x="441" 
d="M457 540l-77 -13q-24 123 -109 123q-40 0 -61.5 -24t-21.5 -70q0 -34 20.5 -68t49 -65.5t57.5 -65t49.5 -78.5t20.5 -95q0 -90 -51.5 -141.5t-138.5 -51.5q-160 0 -190 197l82 13q25 -132 113 -132q45 0 72.5 28.5t27.5 81.5q0 36 -20.5 72t-49 67.5t-57.5 65t-49.5 77
t-20.5 90.5q0 81 46 128.5t124 47.5q156 0 184 -187zM434 770h-58l-48 96l-90 -96h-65l111 141h100z" />
    <glyph glyph-name="scircumflex" unicode="&#x15d;" horiz-adv-x="361" 
d="M357 577h-58l-48 96l-90 -96h-65l111 141h100zM349 394l-63 -15q-22 82 -87 82q-28 0 -46 -16.5t-18 -45.5q0 -27 17.5 -51.5t42.5 -44.5t50 -41.5t42.5 -53t17.5 -69.5q0 -72 -42.5 -110t-110.5 -38q-63 0 -102.5 37.5t-53.5 105.5l68 15q23 -91 92 -91q34 0 55 19.5
t21 54.5q0 26 -17.5 50t-42 44t-49 42.5t-42 54.5t-17.5 70q0 62 38 98.5t101 36.5q58 0 95.5 -35t50.5 -99z" />
    <glyph glyph-name="Scedilla" unicode="&#x15e;" horiz-adv-x="441" 
d="M96 -170l10 43q24 -6 46 -6q57 0 57 31q0 22 -33 22q-12 0 -28 -6l-6 22l20 57q-130 18 -157 195l82 13q25 -132 113 -132q45 0 72.5 28.5t27.5 81.5q0 36 -20.5 72t-49 67.5t-57.5 65t-49.5 77t-20.5 90.5q0 81 46 128.5t124 47.5q156 0 184 -187l-77 -13
q-24 123 -109 123q-40 0 -61.5 -24t-21.5 -70q0 -34 20.5 -68t49 -65.5t57.5 -65t49.5 -78.5t20.5 -95q0 -90 -50.5 -140.5t-135.5 -52.5l-13 -38q15 3 21 3q26 0 41.5 -13.5t15.5 -40.5q0 -41 -32.5 -59.5t-82.5 -18.5q-33 0 -53 6z" />
    <glyph glyph-name="scedilla" unicode="&#x15f;" horiz-adv-x="361" 
d="M52 -170l10 43q24 -6 46 -6q57 0 57 31q0 22 -33 22q-12 0 -28 -6l-6 22l20 58q-98 18 -122 140l68 15q23 -91 92 -91q34 0 55 19.5t21 54.5q0 26 -17.5 50t-42 44t-49 42.5t-42 54.5t-17.5 70q0 62 38 98.5t101 36.5q58 0 95.5 -35t50.5 -99l-63 -15q-22 82 -87 82
q-28 0 -46 -16.5t-18 -45.5q0 -27 17.5 -51.5t42.5 -44.5t50 -41.5t42.5 -53t17.5 -69.5q0 -71 -41 -108.5t-109 -39.5l-13 -38q15 3 21 3q26 0 41.5 -13.5t15.5 -40.5q0 -41 -32.5 -59.5t-82.5 -18.5q-33 0 -53 6z" />
    <glyph glyph-name="Scaron" unicode="&#x160;" horiz-adv-x="441" 
d="M457 540l-77 -13q-24 123 -109 123q-40 0 -61.5 -24t-21.5 -70q0 -34 20.5 -68t49 -65.5t57.5 -65t49.5 -78.5t20.5 -95q0 -90 -51.5 -141.5t-138.5 -51.5q-160 0 -190 197l82 13q25 -132 113 -132q45 0 72.5 28.5t27.5 81.5q0 36 -20.5 72t-49 67.5t-57.5 65t-49.5 77
t-20.5 90.5q0 81 46 128.5t124 47.5q156 0 184 -187zM193 911h58l47 -96l90 96h66l-111 -141h-100z" />
    <glyph glyph-name="scaron" unicode="&#x161;" horiz-adv-x="361" 
d="M124 718h58l47 -96l90 96h66l-111 -141h-100zM349 394l-63 -15q-22 82 -87 82q-28 0 -46 -16.5t-18 -45.5q0 -27 17.5 -51.5t42.5 -44.5t50 -41.5t42.5 -53t17.5 -69.5q0 -72 -42.5 -110t-110.5 -38q-63 0 -102.5 37.5t-53.5 105.5l68 15q23 -91 92 -91q34 0 55 19.5
t21 54.5q0 26 -17.5 50t-42 44t-49 42.5t-42 54.5t-17.5 70q0 62 38 98.5t101 36.5q58 0 95.5 -35t50.5 -99z" />
    <glyph glyph-name="Tcommaaccent" unicode="&#x162;" horiz-adv-x="423" 
d="M109 -195h-44l55 79h-30l17 74h78l-16 -72zM196 0h-84l142 638h-149l16 80h381l-17 -80h-147z" />
    <glyph glyph-name="tcommaaccent" unicode="&#x163;" horiz-adv-x="271" 
d="M70 -195h-44l55 79h-30l17 74h78l-16 -72zM209 75l-16 -73q-29 -7 -62 -7q-89 0 -89 83q0 23 8 58l72 315h-73l14 67h73l37 169h74l-37 -169h98l-14 -67h-99l-71 -319q-4 -20 -4 -26q0 -39 39 -39q21 0 50 8z" />
    <glyph glyph-name="Tcaron" unicode="&#x164;" horiz-adv-x="423" 
d="M218 911h58l47 -96l90 96h66l-111 -141h-100zM196 0h-84l142 638h-149l16 80h381l-17 -80h-147z" />
    <glyph glyph-name="tcaron" unicode="&#x165;" horiz-adv-x="271" 
d="M300 565h-52l69 153h84zM209 75l-16 -73q-29 -7 -62 -7q-89 0 -89 83q0 23 8 58l72 315h-73l14 67h73l37 169h74l-37 -169h98l-14 -67h-99l-71 -319q-4 -20 -4 -26q0 -39 39 -39q21 0 50 8z" />
    <glyph glyph-name="Tbar" unicode="&#x166;" horiz-adv-x="423" 
d="M196 0h-84l74 334h-87l13 63h88l54 241h-149l16 80h381l-17 -80h-147l-54 -241h91l-14 -63h-91z" />
    <glyph glyph-name="tbar" unicode="&#x167;" horiz-adv-x="271" 
d="M209 75l-16 -73q-29 -7 -62 -7q-89 0 -89 83q0 23 8 58l28 125h-70l11 57h72l31 133h-73l14 67h73l37 169h74l-37 -169h98l-14 -67h-99l-30 -133h97l-12 -57h-98l-28 -129q-4 -20 -4 -26q0 -39 39 -39q21 0 50 8z" />
    <glyph glyph-name="Utilde" unicode="&#x168;" horiz-adv-x="530" 
d="M484 884h49q-12 -102 -87 -102q-27 0 -66 20t-58 20q-28 0 -35 -44h-49q13 103 86 103q28 0 67 -20t58 -20q28 0 35 43zM370 218l111 500h83l-114 -513q-25 -114 -79.5 -164t-151.5 -50q-84 0 -126 44t-42 120q0 31 8 71l109 492h83l-112 -505q-6 -25 -6 -48
q0 -45 24 -69.5t69 -24.5q61 0 93.5 35t50.5 112z" />
    <glyph glyph-name="utilde" unicode="&#x169;" horiz-adv-x="430" 
d="M114 518h74l-79 -352q-6 -24 -6 -45q0 -56 48 -56q52 0 117 69l86 384h73l-115 -518h-66l14 65q-79 -74 -143 -74q-90 0 -90 102q0 30 8 67zM394 691h49q-12 -102 -87 -102q-27 0 -66 20t-58 20q-28 0 -35 -44h-49q13 103 86 103q28 0 67 -20t58 -20q28 0 35 43z" />
    <glyph glyph-name="Umacron" unicode="&#x16a;" horiz-adv-x="530" 
d="M504 803h-244l13 57h244zM370 218l111 500h83l-114 -513q-25 -114 -79.5 -164t-151.5 -50q-84 0 -126 44t-42 120q0 31 8 71l109 492h83l-112 -505q-6 -25 -6 -48q0 -45 24 -69.5t69 -24.5q61 0 93.5 35t50.5 112z" />
    <glyph glyph-name="umacron" unicode="&#x16b;" horiz-adv-x="430" 
d="M114 518h74l-79 -352q-6 -24 -6 -45q0 -56 48 -56q52 0 117 69l86 384h73l-115 -518h-66l14 65q-79 -74 -143 -74q-90 0 -90 102q0 30 8 67zM409 610h-244l13 57h244z" />
    <glyph glyph-name="Ubreve" unicode="&#x16c;" horiz-adv-x="530" 
d="M477 901h46q-33 -126 -148 -126q-112 0 -115 126h45q3 -36 21 -52t54 -16q73 0 97 68zM370 218l111 500h83l-114 -513q-25 -114 -79.5 -164t-151.5 -50q-84 0 -126 44t-42 120q0 31 8 71l109 492h83l-112 -505q-6 -25 -6 -48q0 -45 24 -69.5t69 -24.5q61 0 93.5 35
t50.5 112z" />
    <glyph glyph-name="ubreve" unicode="&#x16d;" horiz-adv-x="430" 
d="M114 518h74l-79 -352q-6 -24 -6 -45q0 -56 48 -56q52 0 117 69l86 384h73l-115 -518h-66l14 65q-79 -74 -143 -74q-90 0 -90 102q0 30 8 67zM386 708h46q-33 -126 -148 -126q-112 0 -115 126h45q3 -36 21 -52t54 -16q73 0 97 68z" />
    <glyph glyph-name="Uring" unicode="&#x16e;" horiz-adv-x="530" 
d="M370 218l111 500h83l-114 -513q-25 -114 -79.5 -164t-151.5 -50q-84 0 -126 44t-42 120q0 31 8 71l109 492h83l-112 -505q-6 -25 -6 -48q0 -45 24 -69.5t69 -24.5q61 0 93.5 35t50.5 112zM430 860q0 23 -16 39t-41 16t-40.5 -16t-15.5 -39t15.5 -39.5t40.5 -16.5t41 16.5
t16 39.5zM468 860q0 -41 -27 -68.5t-68 -27.5q-40 0 -67.5 27.5t-27.5 68.5q0 40 27 68t68 28t68 -28t27 -68z" />
    <glyph glyph-name="uring" unicode="&#x16f;" horiz-adv-x="430" 
d="M342 667q0 23 -16 39t-41 16t-40.5 -16t-15.5 -39t15.5 -39.5t40.5 -16.5t41 16.5t16 39.5zM380 667q0 -41 -27 -68.5t-68 -27.5q-40 0 -67.5 27.5t-27.5 68.5q0 40 27 68t68 28t68 -28t27 -68zM114 518h74l-79 -352q-6 -24 -6 -45q0 -56 48 -56q52 0 117 69l86 384h73
l-115 -518h-66l14 65q-79 -74 -143 -74q-90 0 -90 102q0 30 8 67z" />
    <glyph glyph-name="Uhungarumlaut" unicode="&#x170;" horiz-adv-x="530" 
d="M370 218l111 500h83l-114 -513q-25 -114 -79.5 -164t-151.5 -50q-84 0 -126 44t-42 120q0 31 8 71l109 492h83l-112 -505q-6 -25 -6 -48q0 -45 24 -69.5t69 -24.5q61 0 93.5 35t50.5 112zM321 770h-64l104 141h95zM480 770h-64l105 141h94z" />
    <glyph glyph-name="uhungarumlaut" unicode="&#x171;" horiz-adv-x="430" 
d="M114 518h74l-79 -352q-6 -24 -6 -45q0 -56 48 -56q52 0 117 69l86 384h73l-115 -518h-66l14 65q-79 -74 -143 -74q-90 0 -90 102q0 30 8 67zM233 577h-64l104 141h95zM392 577h-64l105 141h94z" />
    <glyph glyph-name="Uogonek" unicode="&#x172;" horiz-adv-x="530" 
d="M312 -124l-10 -48q-17 -4 -40 -4q-73 0 -73 67q0 49 50 99v2q-11 -1 -20 -1q-84 0 -126 44t-42 120q0 31 8 71l109 492h83l-112 -505q-6 -25 -6 -48q0 -45 24 -69.5t69 -24.5q61 0 94 35.5t50 111.5l111 500h83l-114 -513q-33 -148 -119 -191q-85 -60 -85 -109
q0 -33 34 -33q15 0 32 4z" />
    <glyph glyph-name="uogonek" unicode="&#x173;" horiz-adv-x="430" 
d="M114 518h74l-79 -352q-6 -24 -6 -45q0 -56 48 -56q52 0 117 69l86 384h73l-115 -518h-21q-82 -53 -82 -98q0 -30 34 -30q16 0 33 4l-11 -48q-17 -4 -40 -4q-73 0 -73 63q0 38 24 67.5t74 63.5l10 47q-79 -74 -143 -74q-90 0 -90 102q0 30 8 67z" />
    <glyph glyph-name="Wcircumflex" unicode="&#x174;" horiz-adv-x="653" 
d="M449 0h-89l31 542h-2l-205 -542h-89l20 718h85l-25 -543h2l204 543h88l-29 -542h2l205 542h89zM564 770h-58l-48 96l-90 -96h-65l111 141h100z" />
    <glyph glyph-name="wcircumflex" unicode="&#x175;" horiz-adv-x="555" 
d="M470 577h-58l-48 96l-90 -96h-65l111 141h100zM366 0h-72l7 377h-2l-158 -377h-72l-6 518h77l-5 -376h2l153 376h74l-8 -376h2l158 376h76z" />
    <glyph glyph-name="Ycircumflex" unicode="&#x176;" horiz-adv-x="435" 
d="M200 0h-83l66 297l-86 421h88l56 -318h2l194 318h95l-267 -422zM452 770h-58l-48 96l-90 -96h-65l111 141h100z" />
    <glyph glyph-name="ycircumflex" unicode="&#x177;" horiz-adv-x="369" 
d="M408 518l-246 -524q-49 -105 -87.5 -140t-107.5 -35q-22 0 -44 5l15 69q13 -3 34 -3q39 0 62 22t52 83l8 18l-35 505h79l16 -380h2l172 380h80zM376 577h-58l-48 96l-90 -96h-65l111 141h100z" />
    <glyph glyph-name="Ydieresis" unicode="&#x178;" horiz-adv-x="435" 
d="M200 0h-83l66 297l-86 421h88l56 -318h2l194 318h95l-267 -422zM291 783h-78l20 94h78zM427 783h-78l20 94h78z" />
    <glyph glyph-name="Zacute" unicode="&#x179;" horiz-adv-x="443" 
d="M359 0h-380l16 81l377 557h-260l16 80h358l-15 -77l-381 -561h286zM331 770h-64l105 141h94z" />
    <glyph glyph-name="zacute" unicode="&#x17a;" horiz-adv-x="356" 
d="M253 577h-64l105 141h94zM278 0h-303l13 62l274 389h-194l15 67h278l-12 -61l-277 -389h220z" />
    <glyph glyph-name="Zdotaccent" unicode="&#x17b;" horiz-adv-x="443" 
d="M340 783h-78l20 94h78zM359 0h-380l16 81l377 557h-260l16 80h358l-15 -77l-381 -561h286z" />
    <glyph glyph-name="zdotaccent" unicode="&#x17c;" horiz-adv-x="356" 
d="M278 0h-303l13 62l274 389h-194l15 67h278l-12 -61l-277 -389h220zM262 590h-78l20 94h78z" />
    <glyph glyph-name="Zcaron" unicode="&#x17d;" horiz-adv-x="443" 
d="M206 911h58l47 -96l90 96h66l-111 -141h-100zM359 0h-380l16 81l377 557h-260l16 80h358l-15 -77l-381 -561h286z" />
    <glyph glyph-name="zcaron" unicode="&#x17e;" horiz-adv-x="356" 
d="M125 718h58l47 -96l90 96h66l-111 -141h-100zM278 0h-303l13 62l274 389h-194l15 67h278l-12 -61l-277 -389h220z" />
    <glyph glyph-name="florin" unicode="&#x192;" horiz-adv-x="476" 
d="M107 37l108 334h-116l11 58h123l34 103q34 105 70 150t109 45q28 0 52 -7l-15 -71q-23 6 -38 6q-40 0 -61 -32t-47 -113l-26 -81h119l-12 -58h-126l-114 -356q-34 -105 -70.5 -150.5t-108.5 -45.5q-27 0 -52 7l15 71q23 -6 38 -6q39 0 59.5 32.5t47.5 113.5z" />
    <glyph glyph-name="Aringacute" unicode="&#x1fa;" horiz-adv-x="493" 
d="M444 799q0 -53 -43 -81h8l11 -718h-83v204h-191l-88 -204h-88l320 718h6q-42 27 -42 81q0 40 27 68t68 28t68 -28t27 -68zM335 643l-155 -359h157v359h-2zM384 905h-64l105 141h94zM406 799q0 23 -16 39t-41 16t-40.5 -16t-15.5 -39t15.5 -39.5t40.5 -16.5t41 16.5
t16 39.5z" />
    <glyph glyph-name="aringacute" unicode="&#x1fb;" horiz-adv-x="417" 
d="M309 0h-71l6 57q-66 -66 -134 -66q-48 0 -73.5 31t-25.5 87q0 49 21.5 87.5t63 65.5t90.5 45t116 33q9 30 9 54q0 68 -66 68q-65 0 -112 -71l-59 30q63 107 180 107q127 0 127 -124q0 -29 -10 -77l-54 -243zM253 124l34 153q-59 -12 -99.5 -28.5t-69.5 -49.5t-29 -80
q0 -30 14 -45t37 -15q56 0 113 65zM322 640q0 23 -16 39t-41 16t-40.5 -16t-15.5 -39t15.5 -39.5t40.5 -16.5t41 16.5t16 39.5zM360 640q0 -41 -27 -68.5t-68 -27.5q-40 0 -67.5 27.5t-27.5 68.5q0 40 27 68t68 28t68 -28t27 -68zM309 755h-64l105 141h94z" />
    <glyph glyph-name="AEacute" unicode="&#x1fc;" horiz-adv-x="716" 
d="M532 770h-64l105 141h94zM391 718h375l-17 -80h-228l-53 -227h171l-16 -79h-171l-57 -252h263l-17 -80h-345l45 204h-175l-122 -204h-90zM428 639l-214 -355h145l79 355h-10z" />
    <glyph glyph-name="aeacute" unicode="&#x1fd;" horiz-adv-x="633" 
d="M407 577h-64l105 141h94zM398 61q61 0 111 96l64 -26q-36 -74 -81 -107t-104 -33q-91 0 -115 89q-83 -89 -165 -89q-48 0 -72.5 31t-24.5 87q0 95 73 147.5t211 83.5q10 35 10 57q0 65 -64 65q-32 0 -57 -15.5t-50 -55.5l-59 30q63 107 174 107q87 0 108 -64
q54 64 127 64q126 0 126 -161q0 -59 -15 -122h-252q-6 -45 -6 -86q0 -49 13.5 -73.5t47.5 -24.5zM245 121l35 156q-90 -18 -140.5 -54t-50.5 -104q0 -30 13 -45t34 -15q52 0 109 62zM477 462q-44 0 -75 -43t-47 -111h177q8 40 8 66q0 88 -63 88z" />
    <glyph glyph-name="Oslashacute" unicode="&#x1fe;" horiz-adv-x="530" 
d="M70 -67h-69l76 131q-30 52 -30 137q0 88 20 178t57 169t98 129t135 50q53 0 91 -24l48 82h70l-75 -128q32 -51 32 -140q0 -88 -19.5 -178t-56.5 -169t-98 -129t-135 -50q-57 0 -95 26zM440 518q0 26 -4 45l-274 -471q23 -23 60 -23q51 0 94.5 46.5t69 116.5t40 145.5
t14.5 140.5zM131 200q0 -15 2 -39l272 468q-22 20 -56 20q-67 0 -119 -79.5t-75.5 -180t-23.5 -189.5zM399 770h-64l105 141h94z" />
    <glyph glyph-name="oslashacute" unicode="&#x1ff;" horiz-adv-x="417" 
d="M72 -67h-62l50 98q-39 43 -39 127q0 62 14.5 125.5t42.5 119t74.5 90.5t103.5 35q28 0 52 -8l34 66h62l-49 -96q40 -43 40 -130q0 -85 -24 -166.5t-79.5 -142t-131.5 -60.5q-30 0 -54 9zM323 360q0 28 -8 52l-177 -348q13 -5 29 -5q48 0 85.5 52t54 119.5t16.5 129.5z
M94 158q0 -27 6 -48l176 346q-16 4 -26 4q-48 0 -85.5 -52.5t-54 -119.5t-16.5 -130zM297 577h-64l105 141h94z" />
    <glyph glyph-name="Scommaaccent" unicode="&#x218;" horiz-adv-x="441" 
d="M151 -195h-44l55 79h-30l17 74h78l-16 -72zM457 540l-77 -13q-24 123 -109 123q-40 0 -61.5 -24t-21.5 -70q0 -34 20.5 -68t49 -65.5t57.5 -65t49.5 -78.5t20.5 -95q0 -90 -51.5 -141.5t-138.5 -51.5q-160 0 -190 197l82 13q25 -132 113 -132q45 0 72.5 28.5t27.5 81.5
q0 36 -20.5 72t-49 67.5t-57.5 65t-49.5 77t-20.5 90.5q0 81 46 128.5t124 47.5q156 0 184 -187z" />
    <glyph glyph-name="scommaaccent" unicode="&#x219;" horiz-adv-x="361" 
d="M108 -195h-44l55 79h-30l17 74h78l-16 -72zM349 394l-63 -15q-22 82 -87 82q-28 0 -46 -16.5t-18 -45.5q0 -27 17.5 -51.5t42.5 -44.5t50 -41.5t42.5 -53t17.5 -69.5q0 -72 -42.5 -110t-110.5 -38q-63 0 -102.5 37.5t-53.5 105.5l68 15q23 -91 92 -91q34 0 55 19.5
t21 54.5q0 26 -17.5 50t-42 44t-49 42.5t-42 54.5t-17.5 70q0 62 38 98.5t101 36.5q58 0 95.5 -35t50.5 -99z" />
    <glyph glyph-name="uni021A" unicode="&#x21a;" horiz-adv-x="423" 
d="M109 -195h-44l55 79h-30l17 74h78l-16 -72zM196 0h-84l142 638h-149l16 80h381l-17 -80h-147z" />
    <glyph glyph-name="uni021B" unicode="&#x21b;" horiz-adv-x="271" 
d="M70 -195h-44l55 79h-30l17 74h78l-16 -72zM209 75l-16 -73q-29 -7 -62 -7q-89 0 -89 83q0 23 8 58l72 315h-73l14 67h73l37 169h74l-37 -169h98l-14 -67h-99l-71 -319q-4 -20 -4 -26q0 -39 39 -39q21 0 50 8z" />
    <glyph glyph-name="dotlessj" unicode="&#x237;" horiz-adv-x="201" 
d="M196 518l-125 -556q-18 -80 -48 -111.5t-88 -31.5q-25 0 -45 5l14 70q13 -4 32 -4q26 0 40 16.5t22 51.5l125 560h73z" />
    <glyph glyph-name="circumflex" unicode="&#x2c6;" horiz-adv-x="347" 
d="M304 577h-58l-48 96l-90 -96h-65l111 141h100z" />
    <glyph glyph-name="caron" unicode="&#x2c7;" horiz-adv-x="347" 
d="M43 718h58l47 -96l90 96h66l-111 -141h-100z" />
    <glyph glyph-name="uni02C9" unicode="&#x2c9;" horiz-adv-x="347" 
d="M289 610h-244l13 57h244z" />
    <glyph glyph-name="breve" unicode="&#x2d8;" horiz-adv-x="347" 
d="M259 708h46q-33 -126 -148 -126q-112 0 -115 126h45q3 -36 21 -52t54 -16q73 0 97 68z" />
    <glyph glyph-name="dotaccent" unicode="&#x2d9;" horiz-adv-x="347" 
d="M202 590h-78l20 94h78z" />
    <glyph glyph-name="ring" unicode="&#x2da;" horiz-adv-x="347" 
d="M230 667q0 23 -16 39t-41 16t-40.5 -16t-15.5 -39t15.5 -39.5t40.5 -16.5t41 16.5t16 39.5zM268 667q0 -41 -27 -68.5t-68 -27.5q-40 0 -67.5 27.5t-27.5 68.5q0 40 27 68t68 28t68 -28t27 -68z" />
    <glyph glyph-name="ogonek" unicode="&#x2db;" horiz-adv-x="347" 
d="M225 -124l-11 -48q-17 -4 -40 -4q-73 0 -73 63q0 42 30 74t94 75l21 -32q-43 -28 -65.5 -51t-22.5 -51q0 -30 34 -30q16 0 33 4z" />
    <glyph glyph-name="tilde" unicode="&#x2dc;" horiz-adv-x="347" 
d="M272 691h49q-12 -102 -87 -102q-27 0 -66 20t-58 20q-28 0 -35 -44h-49q13 103 86 103q28 0 67 -20t58 -20q28 0 35 43z" />
    <glyph glyph-name="hungarumlaut" unicode="&#x2dd;" horiz-adv-x="347" 
d="M59 577h-64l104 141h95zM218 577h-64l105 141h94z" />
    <glyph glyph-name="uni0394" unicode="&#x394;" horiz-adv-x="496" 
d="M415 0h-444l18 88l301 630h118l25 -630zM349 88l-13 554h-2l-261 -554h276z" />
    <glyph glyph-name="uni03A9" unicode="&#x3a9;" horiz-adv-x="545" 
d="M467 0h-228l18 88q198 233 198 425q0 61 -28 98.5t-88 37.5q-50 0 -87.5 -32t-57 -83.5t-29 -105t-9.5 -106.5q0 -56 12 -123.5t31 -110.5l-18 -88h-207l18 88h130q-21 47 -35.5 116.5t-14.5 129.5q0 69 14 134t44 125.5t85.5 97t129.5 36.5q98 0 147 -59.5t49 -155.5
q0 -199 -199 -424h142z" />
    <glyph glyph-name="uni03BC" unicode="&#x3bc;" horiz-adv-x="448" 
d="M364 1q-24 -6 -45 -6q-57 0 -57 56q0 9 1 14q-74 -74 -136 -74q-31 0 -50 16l-40 -179h-72l153 690h74l-79 -352q-6 -25 -6 -46q0 -55 48 -55q51 0 116 69l86 384h73l-93 -415q-8 -35 20 -35q9 0 21 4z" />
    <glyph glyph-name="pi" unicode="&#x3c0;" horiz-adv-x="498" 
d="M432 75l-14 -74q-36 -6 -59 -6q-83 0 -83 88q0 27 8 65l65 289h-105l-147 -437h-68l148 436q-72 -5 -132 -56l19 92q62 46 143 46h322l-17 -81h-93l-68 -298q-4 -20 -4 -29q0 -42 40 -43q20 0 45 8z" />
    <glyph glyph-name="Wgrave" unicode="&#x1e80;" horiz-adv-x="653" 
d="M461 770h-58l-76 141h88zM449 0h-89l31 542h-2l-205 -542h-89l20 718h85l-25 -543h2l204 543h88l-29 -542h2l205 542h89z" />
    <glyph glyph-name="wgrave" unicode="&#x1e81;" horiz-adv-x="555" 
d="M366 0h-72l7 377h-2l-158 -377h-72l-6 518h77l-5 -376h2l153 376h74l-8 -376h2l158 376h76zM366 577h-58l-76 141h88z" />
    <glyph glyph-name="Wacute" unicode="&#x1e82;" horiz-adv-x="653" 
d="M466 770h-64l105 141h94zM449 0h-89l31 542h-2l-205 -542h-89l20 718h85l-25 -543h2l204 543h88l-29 -542h2l205 542h89z" />
    <glyph glyph-name="wacute" unicode="&#x1e83;" horiz-adv-x="555" 
d="M369 577h-64l105 141h94zM366 0h-72l7 377h-2l-158 -377h-72l-6 518h77l-5 -376h2l153 376h74l-8 -376h2l158 376h76z" />
    <glyph glyph-name="Wdieresis" unicode="&#x1e84;" horiz-adv-x="653" 
d="M409 783h-78l20 94h78zM545 783h-78l20 94h78zM449 0h-89l31 542h-2l-205 -542h-89l20 718h85l-25 -543h2l204 543h88l-29 -542h2l205 542h89z" />
    <glyph glyph-name="wdieresis" unicode="&#x1e85;" horiz-adv-x="555" 
d="M314 590h-78l20 94h78zM450 590h-78l20 94h78zM366 0h-72l7 377h-2l-158 -377h-72l-6 518h77l-5 -376h2l153 376h74l-8 -376h2l158 376h76z" />
    <glyph glyph-name="Ygrave" unicode="&#x1ef2;" horiz-adv-x="435" 
d="M200 0h-83l66 297l-86 421h88l56 -318h2l194 318h95l-267 -422zM344 770h-58l-76 141h88z" />
    <glyph glyph-name="ygrave" unicode="&#x1ef3;" horiz-adv-x="369" 
d="M408 518l-246 -524q-49 -105 -87.5 -140t-107.5 -35q-22 0 -44 5l15 69q13 -3 34 -3q39 0 62 22t52 83l8 18l-35 505h79l16 -380h2l172 380h80zM269 577h-58l-76 141h88z" />
    <glyph glyph-name="endash" unicode="&#x2013;" horiz-adv-x="513" 
d="M480 235h-452l10 47h451z" />
    <glyph glyph-name="emdash" unicode="&#x2014;" horiz-adv-x="764" 
d="M758 235h-761l9 47h762z" />
    <glyph glyph-name="quoteleft" unicode="&#x2018;" horiz-adv-x="232" 
d="M221 718h51l-84 -146h34l-23 -112h-92l24 110z" />
    <glyph glyph-name="quoteright" unicode="&#x2019;" horiz-adv-x="232" 
d="M146 460h-51l85 146h-34l24 112h90l-22 -110z" />
    <glyph glyph-name="quotesinglbase" unicode="&#x201a;" horiz-adv-x="232" 
d="M21 -146h-51l84 146h-33l23 112h92l-24 -109z" />
    <glyph glyph-name="quotedblleft" unicode="&#x201c;" horiz-adv-x="393" 
d="M382 718h51l-85 -146h35l-24 -112h-91l23 110zM221 718h51l-84 -146h34l-23 -112h-92l24 110z" />
    <glyph glyph-name="quotedblright" unicode="&#x201d;" horiz-adv-x="393" 
d="M146 460h-51l85 146h-34l24 112h90l-22 -110zM307 460h-51l85 146h-35l24 112h91l-23 -110z" />
    <glyph glyph-name="quotedblbase" unicode="&#x201e;" horiz-adv-x="391" 
d="M21 -146h-51l84 146h-33l23 112h92l-24 -109zM182 -146h-52l85 146h-34l24 112h90l-23 -109z" />
    <glyph glyph-name="dagger" unicode="&#x2020;" horiz-adv-x="378" 
d="M124 -83h-23l65 407l57 171l-137 -19l15 72l129 -18l28 197h68l-62 -197l140 18l-16 -72l-131 19l-17 -171z" />
    <glyph glyph-name="daggerdbl" unicode="&#x2021;" horiz-adv-x="378" 
d="M240 323l-58 -173l137 19l-15 -72l-130 18l-28 -198h-67l61 198l-138 -18l15 72l130 -19l19 173l57 172l-137 -19l15 72l129 -18l28 197h68l-62 -197l140 18l-16 -72l-131 19z" />
    <glyph glyph-name="bullet" unicode="&#x2022;" horiz-adv-x="452" 
d="M427 359q0 -74 -53 -126.5t-127 -52.5t-126.5 52.5t-52.5 126.5t52.5 127t126.5 53t127 -53t53 -127z" />
    <glyph glyph-name="ellipsis" unicode="&#x2026;" horiz-adv-x="844" 
d="M101 0h-91l24 112h91zM406 0h-90l23 112h92zM713 0h-91l23 112h92z" />
    <glyph glyph-name="perthousand" unicode="&#x2030;" horiz-adv-x="864" 
d="M73 -23h-62l523 762h62zM210 503q38 0 59.5 23.5t21.5 61.5q0 37 -21.5 61t-59.5 24t-59.5 -24t-21.5 -61q0 -38 21.5 -61.5t59.5 -23.5zM210 448q-61 0 -99 40t-38 100t38 99.5t99 39.5t99.5 -39.5t38.5 -99.5t-38.5 -100t-99.5 -40zM400 45q39 0 60 23.5t21 60.5
q0 38 -21 62t-60 24q-38 0 -59.5 -24t-21.5 -62q0 -37 21.5 -60.5t59.5 -23.5zM400 -9q-61 0 -99 39.5t-38 98.5q0 61 38 101t99 40t99.5 -40t38.5 -101q0 -59 -38.5 -98.5t-99.5 -39.5zM696 45q37 0 58.5 23.5t21.5 60.5q0 38 -21.5 62t-58.5 24q-39 0 -60 -24t-21 -62
q0 -37 21 -60.5t60 -23.5zM696 -9q-62 0 -100 39.5t-38 98.5q0 61 38 101t100 40q61 0 99 -40t38 -101q0 -59 -38 -98.5t-99 -39.5z" />
    <glyph glyph-name="guilsinglleft" unicode="&#x2039;" horiz-adv-x="257" 
d="M157 416h77l-125 -158l59 -158h-70l-60 159z" />
    <glyph glyph-name="guilsinglright" unicode="&#x203a;" horiz-adv-x="257" 
d="M93 100h-77l125 158l-58 158h70l59 -159z" />
    <glyph glyph-name="fraction" unicode="&#x2044;" horiz-adv-x="133" 
d="M-142 -23h-61l523 762h62z" />
    <glyph glyph-name="zero.superior" unicode="&#x2070;" 
d="M383 755q0 -78 -18.5 -155t-63 -136.5t-105.5 -59.5q-101 0 -101 129q0 56 11.5 115.5t33 113t59 87.5t84.5 34q100 0 100 -128zM162 529q0 -66 40 -66q25 0 47.5 33t36.5 80.5t22 97t8 86.5q0 64 -39 64q-33 0 -61 -55.5t-41 -122t-13 -117.5z" />
    <glyph glyph-name="four.superior" unicode="&#x2074;" 
d="M273 410h-61l23 109h-161l13 63l203 295h86l-66 -299h58l-13 -59h-58zM248 578l49 213h-2l-148 -213h101z" />
    <glyph glyph-name="five.superior" unicode="&#x2075;" 
d="M356 597q0 -80 -42 -136.5t-114 -56.5q-102 0 -122 115l63 13q14 -67 62 -67q40 0 63 38t23 92q0 72 -53 72q-36 0 -67 -40l-50 12l60 238h199l-12 -62h-147l-33 -118h2q33 26 72 26q96 0 96 -126z" />
    <glyph glyph-name="six.superior" unicode="&#x2076;" 
d="M288 825q-42 0 -71 -44.5t-42 -114.5h1q38 38 90 38q49 0 74 -33t25 -89q0 -79 -39 -128.5t-104 -49.5q-64 0 -93 45.5t-29 118.5q0 74 18 142.5t63 120.5t110 52q71 0 110 -51l-50 -41q-27 34 -63 34zM244 646q-35 0 -56.5 -23.5t-21.5 -62.5q0 -99 59 -99
q34 0 53.5 32.5t19.5 82.5q0 70 -54 70z" />
    <glyph glyph-name="seven.superior" unicode="&#x2077;" 
d="M166 410h-73l225 402h-178l14 65h250l-11 -52z" />
    <glyph glyph-name="eight.superior" unicode="&#x2078;" 
d="M355 538q0 -62 -39.5 -98t-106.5 -36q-57 0 -92 32.5t-35 84.5q0 90 112 142q-51 51 -51 100q0 54 36.5 87t95.5 33q54 0 85.5 -28.5t31.5 -76.5q0 -79 -98 -126q61 -59 61 -114zM290 534q0 24 -15.5 45t-45.5 47q-82 -39 -82 -101q0 -28 17.5 -46.5t48.5 -18.5
q35 0 56 20t21 54zM207 767q0 -34 51 -80q69 32 69 87q0 24 -14.5 39.5t-41.5 15.5q-28 0 -46 -16.5t-18 -45.5z" />
    <glyph glyph-name="nine.superior" unicode="&#x2079;" 
d="M188 462q42 0 71 44.5t42 114.5h-1q-38 -38 -90 -38q-49 0 -74 33t-25 89q0 79 39 128.5t104 49.5q64 0 93 -45.5t29 -118.5q0 -74 -18 -142.5t-63 -120.5t-110 -52q-71 0 -110 51l50 41q27 -34 63 -34zM232 641q35 0 56.5 23.5t21.5 62.5q0 99 -59 99q-34 0 -53.5 -32.5
t-19.5 -82.5q0 -70 54 -70z" />
    <glyph glyph-name="zero.inferior" unicode="&#x2080;" 
d="M260 169q0 -78 -18.5 -155t-63 -136.5t-105.5 -59.5q-101 0 -101 129q0 56 11.5 115.5t33 113t59 87.5t84.5 34q100 0 100 -128zM39 -57q0 -66 40 -66q25 0 47.5 33t36.5 80.5t22 97t8 86.5q0 64 -39 64q-33 0 -61 -55.5t-41 -122t-13 -117.5z" />
    <glyph glyph-name="one.inferior" unicode="&#x2081;" 
d="M170 -176h-197l12 59h64l76 338l-76 -13l10 51l98 32h48l-90 -408h67z" />
    <glyph glyph-name="two.inferior" unicode="&#x2082;" 
d="M200 -176h-255l8 35q9 39 36.5 76t60.5 66t64.5 57.5t52.5 60.5t21 64q0 26 -13 40.5t-37 14.5q-53 0 -76 -77l-60 12q36 124 141 124q54 0 82.5 -30t28.5 -83q0 -38 -20 -73.5t-50 -64.5t-60.5 -54.5t-56 -53.5t-33.5 -52h178z" />
    <glyph glyph-name="three.inferior" unicode="&#x2083;" 
d="M224 -34q0 -66 -41 -107t-107 -41q-109 0 -130 115l64 13q16 -69 67 -69q38 0 60 26.5t22 66.5q0 73 -85 73h-20l12 60h18q48 0 76.5 19.5t28.5 59.5q0 26 -14.5 41.5t-41.5 15.5q-49 0 -71 -53l-57 17q36 94 136 94q55 0 85 -29.5t30 -77.5q0 -44 -25.5 -75t-68.5 -44
v-2q62 -28 62 -103z" />
    <glyph glyph-name="four.inferior" unicode="&#x2084;" 
d="M150 -176h-61l23 109h-161l13 63l203 295h86l-66 -299h58l-13 -59h-58zM125 -8l49 213h-2l-148 -213h101z" />
    <glyph glyph-name="five.inferior" unicode="&#x2085;" 
d="M233 11q0 -80 -42 -136.5t-114 -56.5q-102 0 -122 115l63 13q14 -67 62 -67q40 0 63 38t23 92q0 72 -53 72q-36 0 -67 -40l-50 12l60 238h199l-12 -62h-147l-33 -118h2q33 26 72 26q96 0 96 -126z" />
    <glyph glyph-name="six.inferior" unicode="&#x2086;" 
d="M165 239q-42 0 -71 -44.5t-42 -114.5h1q38 38 90 38q49 0 74 -33t25 -89q0 -79 -39 -128.5t-104 -49.5q-64 0 -93 45.5t-29 118.5q0 74 18 142.5t63 120.5t110 52q71 0 110 -51l-50 -41q-27 34 -63 34zM121 60q-35 0 -56.5 -23.5t-21.5 -62.5q0 -99 59 -99
q34 0 53.5 32.5t19.5 82.5q0 70 -54 70z" />
    <glyph glyph-name="seven.inferior" unicode="&#x2087;" 
d="M45 -176h-73l225 402h-178l14 65h250l-11 -52z" />
    <glyph glyph-name="eight.inferior" unicode="&#x2088;" 
d="M232 -48q0 -62 -39.5 -98t-106.5 -36q-57 0 -92 32.5t-35 84.5q0 90 112 142q-51 51 -51 100q0 54 36.5 87t95.5 33q54 0 85.5 -28.5t31.5 -76.5q0 -79 -98 -126q61 -59 61 -114zM167 -52q0 24 -15.5 45t-45.5 47q-82 -39 -82 -101q0 -28 17.5 -46.5t48.5 -18.5
q35 0 56 20t21 54zM84 181q0 -34 51 -80q69 32 69 87q0 24 -14.5 39.5t-41.5 15.5q-28 0 -46 -16.5t-18 -45.5z" />
    <glyph glyph-name="nine.inferior" unicode="&#x2089;" 
d="M65 -124q42 0 71 44.5t42 114.5h-1q-38 -38 -90 -38q-49 0 -74 33t-25 89q0 79 39 128.5t104 49.5q64 0 93 -45.5t29 -118.5q0 -74 -18 -142.5t-63 -120.5t-110 -52q-71 0 -110 51l50 41q27 -34 63 -34zM109 55q35 0 56.5 23.5t21.5 62.5q0 99 -59 99q-34 0 -53.5 -32.5
t-19.5 -82.5q0 -70 54 -70z" />
    <glyph glyph-name="Euro" unicode="&#x20ac;" horiz-adv-x="476" 
d="M442 150q-69 -159 -208 -159q-147 0 -147 202q0 39 3 81h-62l11 57h57q4 37 12 77h-52l12 57h54q32 118 91 190t146 72q73 0 109.5 -40t51.5 -122l-78 -15q-9 49 -28 76t-58 27q-96 0 -150 -188h193l-12 -57h-195q-10 -52 -13 -77h190l-12 -57h-185q-3 -46 -3 -85
q0 -123 74 -123q75 0 126 111z" />
    <glyph glyph-name="afii61289" unicode="&#x2113;" horiz-adv-x="352" 
d="M256 73l-15 -72q-31 -6 -65 -6q-69 0 -95 42t-28 118q-27 -7 -56 -9l15 73q23 2 42 7q5 80 21.5 163t43.5 161t71 127.5t96 49.5q99 0 99 -115q0 -117 -71.5 -242t-182.5 -185v-9q0 -57 13 -84t52 -27q26 0 60 8zM278 655q-45 0 -85.5 -124.5t-55.5 -263.5
q75 56 123.5 155t48.5 187q0 46 -31 46z" />
    <glyph glyph-name="trademark" unicode="&#x2122;" horiz-adv-x="566" 
d="M195 359h-52v309h-76v50h204v-50h-76v-309zM586 359h-50v278h-2l-64 -278h-44l-65 278h-2v-278h-50v359h80l58 -249h2l59 249h78v-359z" />
    <glyph glyph-name="Omega" unicode="&#x2126;" horiz-adv-x="545" 
d="M467 0h-228l18 88q198 233 198 425q0 61 -28 98.5t-88 37.5q-50 0 -87.5 -32t-57 -83.5t-29 -105t-9.5 -106.5q0 -56 12 -123.5t31 -110.5l-18 -88h-207l18 88h130q-21 47 -35.5 116.5t-14.5 129.5q0 69 14 134t44 125.5t85.5 97t129.5 36.5q98 0 147 -59.5t49 -155.5
q0 -199 -199 -424h142z" />
    <glyph glyph-name="estimated" unicode="&#x212e;" horiz-adv-x="840" 
d="M701 139h69q-63 -71 -141.5 -111.5t-197.5 -40.5q-159 0 -272.5 100t-113.5 266q0 162 121 269.5t290 107.5q94 0 171 -32.5t123.5 -86t71.5 -118t25 -133.5v-5h-631l-8 -10v-237q93 -84 229 -84q161 0 264 115zM677 392l8 10v211q-86 80 -229 80q-153 0 -248 -90v-201
l8 -10h461z" />
    <glyph glyph-name="onethird" unicode="&#x2153;" horiz-adv-x="772" 
d="M721 142q0 -66 -41 -107t-107 -41q-109 0 -130 115l64 13q16 -69 67 -69q38 0 60 26.5t22 66.5q0 73 -85 73h-20l12 60h18q48 0 76.5 19.5t28.5 59.5q0 26 -14.5 41.5t-41.5 15.5q-49 0 -71 -53l-57 17q36 94 136 94q55 0 85 -29.5t30 -77.5q0 -44 -25.5 -75t-68.5 -44
v-2q62 -28 62 -103zM169 -23h-61l523 762h62zM257 251h-197l12 59h64l76 338l-76 -13l10 51l98 32h48l-90 -408h67z" />
    <glyph glyph-name="twothirds" unicode="&#x2154;" horiz-adv-x="802" 
d="M287 251h-255l8 35q9 39 36.5 76t60.5 66t64.5 57.5t52.5 60.5t21 64q0 26 -13 40.5t-37 14.5q-53 0 -76 -77l-60 12q36 124 141 124q54 0 82.5 -30t28.5 -83q0 -38 -20 -73.5t-50 -64.5t-60.5 -54.5t-56 -53.5t-33.5 -52h178zM199 -23h-61l523 762h62zM751 142
q0 -66 -41 -107t-107 -41q-109 0 -130 115l64 13q16 -69 67 -69q38 0 60 26.5t22 66.5q0 73 -85 73h-20l12 60h18q48 0 76.5 19.5t28.5 59.5q0 26 -14.5 41.5t-41.5 15.5q-49 0 -71 -53l-57 17q36 94 136 94q55 0 85 -29.5t30 -77.5q0 -44 -25.5 -75t-68.5 -44v-2
q62 -28 62 -103z" />
    <glyph glyph-name="onefifth" unicode="&#x2155;" horiz-adv-x="772" 
d="M730 187q0 -80 -42 -136.5t-114 -56.5q-102 0 -122 115l63 13q14 -67 62 -67q40 0 63 38t23 92q0 72 -53 72q-36 0 -67 -40l-50 12l60 238h199l-12 -62h-147l-33 -118h2q33 26 72 26q96 0 96 -126zM169 -23h-61l523 762h62zM257 251h-197l12 59h64l76 338l-76 -13l10 51
l98 32h48l-90 -408h67z" />
    <glyph glyph-name="twofifths" unicode="&#x2156;" horiz-adv-x="802" 
d="M287 251h-255l8 35q9 39 36.5 76t60.5 66t64.5 57.5t52.5 60.5t21 64q0 26 -13 40.5t-37 14.5q-53 0 -76 -77l-60 12q36 124 141 124q54 0 82.5 -30t28.5 -83q0 -38 -20 -73.5t-50 -64.5t-60.5 -54.5t-56 -53.5t-33.5 -52h178zM760 187q0 -80 -42 -136.5t-114 -56.5
q-102 0 -122 115l63 13q14 -67 62 -67q40 0 63 38t23 92q0 72 -53 72q-36 0 -67 -40l-50 12l60 238h199l-12 -62h-147l-33 -118h2q33 26 72 26q96 0 96 -126zM199 -23h-61l523 762h62z" />
    <glyph glyph-name="threefifths" unicode="&#x2157;" horiz-adv-x="772" 
d="M311 393q0 -66 -41 -107t-107 -41q-109 0 -130 115l64 13q16 -69 67 -69q38 0 60 26.5t22 66.5q0 73 -85 73h-20l12 60h18q48 0 76.5 19.5t28.5 59.5q0 26 -14.5 41.5t-41.5 15.5q-49 0 -71 -53l-57 17q36 94 136 94q55 0 85 -29.5t30 -77.5q0 -44 -25.5 -75t-68.5 -44
v-2q62 -28 62 -103zM730 187q0 -80 -42 -136.5t-114 -56.5q-102 0 -122 115l63 13q14 -67 62 -67q40 0 63 38t23 92q0 72 -53 72q-36 0 -67 -40l-50 12l60 238h199l-12 -62h-147l-33 -118h2q33 26 72 26q96 0 96 -126zM169 -23h-61l523 762h62z" />
    <glyph glyph-name="fourfifths" unicode="&#x2158;" horiz-adv-x="787" 
d="M745 187q0 -80 -42 -136.5t-114 -56.5q-102 0 -122 115l63 13q14 -67 62 -67q40 0 63 38t23 92q0 72 -53 72q-36 0 -67 -40l-50 12l60 238h199l-12 -62h-147l-33 -118h2q33 26 72 26q96 0 96 -126zM237 251h-61l23 109h-161l13 63l203 295h86l-66 -299h58l-13 -59h-58z
M212 419l49 213h-2l-148 -213h101zM184 -23h-61l523 762h62z" />
    <glyph glyph-name="onesixth" unicode="&#x2159;" horiz-adv-x="755" 
d="M645 415q-42 0 -71 -44.5t-42 -114.5h1q38 38 90 38q49 0 74 -33t25 -89q0 -79 -39 -128.5t-104 -49.5q-64 0 -93 45.5t-29 118.5q0 74 18 142.5t63 120.5t110 52q71 0 110 -51l-50 -41q-27 34 -63 34zM601 236q-35 0 -56.5 -23.5t-21.5 -62.5q0 -99 59 -99
q34 0 53.5 32.5t19.5 82.5q0 70 -54 70zM169 -23h-61l523 762h62zM257 251h-197l12 59h64l76 338l-76 -13l10 51l98 32h48l-90 -408h67z" />
    <glyph glyph-name="fivesixths" unicode="&#x215a;" horiz-adv-x="755" 
d="M320 438q0 -80 -42 -136.5t-114 -56.5q-102 0 -122 115l63 13q14 -67 62 -67q40 0 63 38t23 92q0 72 -53 72q-36 0 -67 -40l-50 12l60 238h199l-12 -62h-147l-33 -118h2q33 26 72 26q96 0 96 -126zM645 415q-42 0 -71 -44.5t-42 -114.5h1q38 38 90 38q49 0 74 -33t25 -89
q0 -79 -39 -128.5t-104 -49.5q-64 0 -93 45.5t-29 118.5q0 74 18 142.5t63 120.5t110 52q71 0 110 -51l-50 -41q-27 34 -63 34zM601 236q-35 0 -56.5 -23.5t-21.5 -62.5q0 -99 59 -99q34 0 53.5 32.5t19.5 82.5q0 70 -54 70zM169 -23h-61l523 762h62z" />
    <glyph glyph-name="oneeighth" unicode="&#x215b;" horiz-adv-x="755" 
d="M169 -23h-61l523 762h62zM712 128q0 -62 -39.5 -98t-106.5 -36q-57 0 -92 32.5t-35 84.5q0 90 112 142q-51 51 -51 100q0 54 36.5 87t95.5 33q54 0 85.5 -28.5t31.5 -76.5q0 -79 -98 -126q61 -59 61 -114zM647 124q0 24 -15.5 45t-45.5 47q-82 -39 -82 -101
q0 -28 17.5 -46.5t48.5 -18.5q35 0 56 20t21 54zM564 357q0 -34 51 -80q69 32 69 87q0 24 -14.5 39.5t-41.5 15.5q-28 0 -46 -16.5t-18 -45.5zM257 251h-197l12 59h64l76 338l-76 -13l10 51l98 32h48l-90 -408h67z" />
    <glyph glyph-name="threeeighths" unicode="&#x215c;" horiz-adv-x="755" 
d="M311 393q0 -66 -41 -107t-107 -41q-109 0 -130 115l64 13q16 -69 67 -69q38 0 60 26.5t22 66.5q0 73 -85 73h-20l12 60h18q48 0 76.5 19.5t28.5 59.5q0 26 -14.5 41.5t-41.5 15.5q-49 0 -71 -53l-57 17q36 94 136 94q55 0 85 -29.5t30 -77.5q0 -44 -25.5 -75t-68.5 -44
v-2q62 -28 62 -103zM169 -23h-61l523 762h62zM712 128q0 -62 -39.5 -98t-106.5 -36q-57 0 -92 32.5t-35 84.5q0 90 112 142q-51 51 -51 100q0 54 36.5 87t95.5 33q54 0 85.5 -28.5t31.5 -76.5q0 -79 -98 -126q61 -59 61 -114zM647 124q0 24 -15.5 45t-45.5 47
q-82 -39 -82 -101q0 -28 17.5 -46.5t48.5 -18.5q35 0 56 20t21 54zM564 357q0 -34 51 -80q69 32 69 87q0 24 -14.5 39.5t-41.5 15.5q-28 0 -46 -16.5t-18 -45.5z" />
    <glyph glyph-name="fiveeighths" unicode="&#x215d;" horiz-adv-x="755" 
d="M320 438q0 -80 -42 -136.5t-114 -56.5q-102 0 -122 115l63 13q14 -67 62 -67q40 0 63 38t23 92q0 72 -53 72q-36 0 -67 -40l-50 12l60 238h199l-12 -62h-147l-33 -118h2q33 26 72 26q96 0 96 -126zM169 -23h-61l523 762h62zM712 128q0 -62 -39.5 -98t-106.5 -36
q-57 0 -92 32.5t-35 84.5q0 90 112 142q-51 51 -51 100q0 54 36.5 87t95.5 33q54 0 85.5 -28.5t31.5 -76.5q0 -79 -98 -126q61 -59 61 -114zM647 124q0 24 -15.5 45t-45.5 47q-82 -39 -82 -101q0 -28 17.5 -46.5t48.5 -18.5q35 0 56 20t21 54zM564 357q0 -34 51 -80
q69 32 69 87q0 24 -14.5 39.5t-41.5 15.5q-28 0 -46 -16.5t-18 -45.5z" />
    <glyph glyph-name="seveneighths" unicode="&#x215e;" horiz-adv-x="698" 
d="M132 251h-73l225 402h-178l14 65h250l-11 -52zM113 -23h-61l523 762h62zM655 128q0 -62 -39.5 -98t-106.5 -36q-57 0 -92 32.5t-35 84.5q0 90 112 142q-51 51 -51 100q0 54 36.5 87t95.5 33q54 0 85.5 -28.5t31.5 -76.5q0 -79 -98 -126q61 -59 61 -114zM590 124
q0 24 -15.5 45t-45.5 47q-82 -39 -82 -101q0 -28 17.5 -46.5t48.5 -18.5q35 0 56 20t21 54zM507 357q0 -34 51 -80q69 32 69 87q0 24 -14.5 39.5t-41.5 15.5q-28 0 -46 -16.5t-18 -45.5z" />
    <glyph glyph-name="partialdiff" unicode="&#x2202;" horiz-adv-x="427" 
d="M233 508q56 0 98 -39l2 1q-20 109 -87 221l62 39q107 -175 107 -330q0 -70 -14 -139t-42.5 -131t-79 -100.5t-115.5 -38.5q-67 0 -105 46.5t-38 132.5q0 80 21 154t71 129t120 55zM172 59q51 0 90 53t56.5 124.5t19.5 146.5q-40 58 -98 58q-38 0 -67.5 -29t-45 -74
t-23 -88.5t-7.5 -82.5q0 -51 19 -79.5t56 -28.5z" />
    <glyph glyph-name="Delta" unicode="&#x2206;" horiz-adv-x="496" 
d="M415 0h-444l18 88l301 630h118l25 -630zM349 88l-13 554h-2l-261 -554h276z" />
    <glyph glyph-name="product" unicode="&#x220f;" horiz-adv-x="580" 
d="M529 -84h-86v722h-267v-722h-87v802h440v-802z" />
    <glyph glyph-name="summation" unicode="&#x2211;" horiz-adv-x="478" 
d="M477 -84h-437v88l239 337l-223 298v79h397v-80h-289l182 -242v-103l-206 -289h337v-88z" />
    <glyph glyph-name="minus" unicode="&#x2212;" horiz-adv-x="476" 
d="M446 232h-404v50h404v-50z" />
    <glyph glyph-name="uni2215" unicode="&#x2215;" horiz-adv-x="133" 
d="M-142 -23h-61l523 762h62z" />
    <glyph glyph-name="uni2219" unicode="&#x2219;" horiz-adv-x="232" 
d="M154 201h-91l23 113h92z" />
    <glyph glyph-name="radical" unicode="&#x221a;" horiz-adv-x="490" 
d="M339 -26h-83l-96 332h-110v52h158l86 -318h2l162 770h55z" />
    <glyph glyph-name="infinity" unicode="&#x221e;" horiz-adv-x="639" 
d="M628 258q0 -87 -43 -140.5t-118 -53.5q-100 0 -144 99q-54 -99 -145 -99q-73 0 -112.5 51.5t-39.5 140.5q0 86 43 140t117 54q101 0 145 -100q26 47 59.5 73.5t85.5 26.5q74 0 113 -51.5t39 -140.5zM555 258q0 58 -21.5 91.5t-62.5 33.5q-18 0 -33.5 -8t-25.5 -18
t-21.5 -31t-17 -35.5t-16.5 -41.5q33 -117 109 -117q41 0 65 34.5t24 91.5zM99 256q0 -58 21.5 -91t63.5 -33q29 0 51.5 21t33.5 44t28 68q-34 118 -109 118q-41 0 -65 -35t-24 -92z" />
    <glyph glyph-name="integral" unicode="&#x222b;" horiz-adv-x="257" 
d="M11 -177v71q13 -4 35 -4q56 0 56 57v642q0 71 27 104.5t91 33.5q25 0 45 -4v-71q-13 4 -32 4q-26 0 -38.5 -12.5t-12.5 -44.5v-642q0 -70 -30 -104t-94 -34q-28 0 -47 4z" />
    <glyph glyph-name="approxequal" unicode="&#x2248;" horiz-adv-x="476" 
d="M388 416h54q-7 -62 -35 -97t-76 -35q-37 0 -92 32t-81 32q-44 0 -53 -68h-54q15 132 111 132q37 0 92 -32t81 -32q43 0 53 68zM388 234h54q-15 -133 -111 -133q-37 0 -92 32t-81 32q-45 0 -53 -69h-54q15 133 111 133q37 0 92 -32t81 -32q43 0 53 69z" />
    <glyph glyph-name="notequal" unicode="&#x2260;" horiz-adv-x="476" 
d="M448 318h-137l-69 -122h206v-51h-235l-67 -120h-63l67 120h-107v51h136l69 122h-205v51h234l70 124h63l-70 -124h108v-51z" />
    <glyph glyph-name="lessequal" unicode="&#x2264;" horiz-adv-x="476" 
d="M420 108l-362 129v65l362 129v-58l-306 -104l306 -103v-58zM420 22h-362v51h362v-51z" />
    <glyph glyph-name="greaterequal" unicode="&#x2265;" horiz-adv-x="476" 
d="M429 237l-362 -129v58l306 103l-306 104v58l362 -129v-65zM429 22h-362v51h362v-51z" />
    <glyph glyph-name="lozenge" unicode="&#x25ca;" horiz-adv-x="398" 
d="M254 0h-70l-140 359l140 360h70l140 -360zM219 62l114 297l-114 297l-114 -297z" />
    <glyph glyph-name="grave.cap" unicode="&#xe000;" horiz-adv-x="347" 
d="M240 770h-58l-76 141h88z" />
    <glyph glyph-name="acute.cap" unicode="&#xe002;" horiz-adv-x="347" 
d="M138 770h-64l105 141h94z" />
    <glyph glyph-name="circumflex.cap" unicode="&#xe004;" horiz-adv-x="347" 
d="M304 770h-58l-48 96l-90 -96h-65l111 141h100z" />
    <glyph glyph-name="caron.cap" unicode="&#xe006;" horiz-adv-x="347" 
d="M43 911h58l47 -96l90 96h66l-111 -141h-100z" />
    <glyph glyph-name="caron.alt" unicode="&#xe008;" horiz-adv-x="347" 
d="M154 565h-52l69 153h84z" />
    <glyph glyph-name="tilde.cap" unicode="&#xe009;" horiz-adv-x="347" 
d="M272 884h49q-12 -102 -87 -102q-27 0 -66 20t-58 20q-28 0 -35 -44h-49q13 103 86 103q28 0 67 -20t58 -20q28 0 35 43z" />
    <glyph glyph-name="dieresis.cap" unicode="&#xe00b;" horiz-adv-x="347" 
d="M134 783h-78l20 94h78zM270 783h-78l20 94h78z" />
    <glyph glyph-name="macron.cap" unicode="&#xe00d;" horiz-adv-x="347" 
d="M289 803h-244l13 57h244z" />
    <glyph glyph-name="breve.cap" unicode="&#xe00f;" horiz-adv-x="347" 
d="M259 901h46q-33 -126 -148 -126q-112 0 -115 126h45q3 -36 21 -52t54 -16q73 0 97 68z" />
    <glyph glyph-name="ring.cap" unicode="&#xe011;" horiz-adv-x="347" 
d="M230 860q0 23 -16 39t-41 16t-40.5 -16t-15.5 -39t15.5 -39.5t40.5 -16.5t41 16.5t16 39.5zM268 860q0 -41 -27 -68.5t-68 -27.5q-40 0 -67.5 27.5t-27.5 68.5q0 40 27 68t68 28t68 -28t27 -68z" />
    <glyph glyph-name="hungarumlaut.cap" unicode="&#xe013;" horiz-adv-x="347" 
d="M59 770h-64l104 141h95zM218 770h-64l105 141h94z" />
    <glyph glyph-name="dotaccent.cap" unicode="&#xe015;" horiz-adv-x="347" 
d="M202 783h-78l20 94h78z" />
    <glyph glyph-name="commaaccent" unicode="&#xe017;" horiz-adv-x="347" 
d="M154 -195h-44l55 79h-30l17 74h78l-16 -72z" />
    <glyph glyph-name="commaaccent.alt" unicode="&#xe01a;" horiz-adv-x="347" 
d="M189 709h44l-55 -78h30l-17 -75h-78l16 74z" />
    <glyph glyph-name="zero.prop" unicode="&#xf054;" horiz-adv-x="466" 
d="M463 531q0 -83 -16.5 -173t-48.5 -174t-87.5 -138.5t-124.5 -54.5q-144 0 -144 196q0 83 17 173t49 174t87.5 138.5t124.5 54.5q143 0 143 -196zM124 184q0 -61 15 -90.5t54 -29.5q43 0 80.5 51.5t60 127.5t35 153.5t12.5 137.5q0 61 -15 90.5t-53 29.5q-43 0 -81 -51.5
t-60.5 -127.5t-35 -153.5t-12.5 -137.5z" />
    <glyph glyph-name="zero.nominator" unicode="&#xf059;" 
d="M347 596q0 -78 -18.5 -155t-63 -136.5t-105.5 -59.5q-101 0 -101 129q0 56 11.5 115.5t33 113t59 87.5t84.5 34q100 0 100 -128zM126 370q0 -66 40 -66q25 0 47.5 33t36.5 80.5t22 97t8 86.5q0 64 -39 64q-33 0 -61 -55.5t-41 -122t-13 -117.5z" />
    <glyph glyph-name="zero.denominator" unicode="&#xf05a;" 
d="M296 345q0 -78 -18.5 -155t-63 -136.5t-105.5 -59.5q-101 0 -101 129q0 56 11.5 115.5t33 113t59 87.5t84.5 34q100 0 100 -128zM75 119q0 -66 40 -66q25 0 47.5 33t36.5 80.5t22 97t8 86.5q0 64 -39 64q-33 0 -61 -55.5t-41 -122t-13 -117.5z" />
    <glyph glyph-name="one.prop" unicode="&#xf05e;" horiz-adv-x="367" 
d="M274 0h-280l15 73h99l125 555l-116 -21l13 64l142 47h59l-144 -645h102z" />
    <glyph glyph-name="one.superior" unicode="&#xf063;" 
d="M293 410h-197l12 59h64l76 338l-76 -13l10 51l98 32h48l-90 -408h67z" />
    <glyph glyph-name="one.nominator" unicode="&#xf064;" 
d="M257 251h-197l12 59h64l76 338l-76 -13l10 51l98 32h48l-90 -408h67z" />
    <glyph glyph-name="one.denominator" unicode="&#xf065;" 
d="M206 0h-197l12 59h64l76 338l-76 -13l10 51l98 32h48l-90 -408h67z" />
    <glyph glyph-name="two.prop" unicode="&#xf069;" horiz-adv-x="441" 
d="M358 0h-374l8 42q12 62 55 121.5t95 105t103 90.5t85 96.5t34 103.5q0 44 -23 69t-64 25q-89 0 -128 -128l-72 16q53 186 206 186q78 0 120 -45t42 -123q0 -59 -31.5 -115.5t-79.5 -102t-97 -87.5t-91.5 -88.5t-56.5 -88.5h284z" />
    <glyph glyph-name="two.superior" unicode="&#xf06e;" 
d="M323 410h-255l8 35q9 39 36.5 76t60.5 66t64.5 57.5t52.5 60.5t21 64q0 26 -13 40.5t-37 14.5q-53 0 -76 -77l-60 12q36 124 141 124q54 0 82.5 -30t28.5 -83q0 -38 -20 -73.5t-50 -64.5t-60.5 -54.5t-56 -53.5t-33.5 -52h178z" />
    <glyph glyph-name="two.nominator" unicode="&#xf06f;" 
d="M287 251h-255l8 35q9 39 36.5 76t60.5 66t64.5 57.5t52.5 60.5t21 64q0 26 -13 40.5t-37 14.5q-53 0 -76 -77l-60 12q36 124 141 124q54 0 82.5 -30t28.5 -83q0 -38 -20 -73.5t-50 -64.5t-60.5 -54.5t-56 -53.5t-33.5 -52h178z" />
    <glyph glyph-name="two.denominator" unicode="&#xf070;" 
d="M236 0h-255l8 35q9 39 36.5 76t60.5 66t64.5 57.5t52.5 60.5t21 64q0 26 -13 40.5t-37 14.5q-53 0 -76 -77l-60 12q36 124 141 124q54 0 82.5 -30t28.5 -83q0 -38 -20 -73.5t-50 -64.5t-60.5 -54.5t-56 -53.5t-33.5 -52h178z" />
    <glyph glyph-name="three.prop" unicode="&#xf074;" horiz-adv-x="454" 
d="M403 219q0 -101 -60.5 -164.5t-160.5 -63.5q-80 0 -126.5 41.5t-62.5 128.5l78 17q13 -57 40 -84.5t74 -27.5q65 0 101 45.5t36 111.5q0 60 -36 92t-102 32h-26l15 75h24q76 0 126.5 34t50.5 103q0 43 -24.5 68.5t-70.5 25.5q-84 0 -119 -88l-70 21q50 141 197 141
q84 0 125.5 -45.5t41.5 -116.5q0 -66 -39.5 -114.5t-104.5 -68.5l-1 -2q94 -46 94 -161z" />
    <glyph glyph-name="three.superior" unicode="&#xf079;" 
d="M347 552q0 -66 -41 -107t-107 -41q-109 0 -130 115l64 13q16 -69 67 -69q38 0 60 26.5t22 66.5q0 73 -85 73h-20l12 60h18q48 0 76.5 19.5t28.5 59.5q0 26 -14.5 41.5t-41.5 15.5q-49 0 -71 -53l-57 17q36 94 136 94q55 0 85 -29.5t30 -77.5q0 -44 -25.5 -75t-68.5 -44
v-2q62 -28 62 -103z" />
    <glyph glyph-name="three.nominator" unicode="&#xf07a;" 
d="M311 393q0 -66 -41 -107t-107 -41q-109 0 -130 115l64 13q16 -69 67 -69q38 0 60 26.5t22 66.5q0 73 -85 73h-20l12 60h18q48 0 76.5 19.5t28.5 59.5q0 26 -14.5 41.5t-41.5 15.5q-49 0 -71 -53l-57 17q36 94 136 94q55 0 85 -29.5t30 -77.5q0 -44 -25.5 -75t-68.5 -44
v-2q62 -28 62 -103z" />
    <glyph glyph-name="three.denominator" unicode="&#xf07b;" 
d="M260 142q0 -66 -41 -107t-107 -41q-109 0 -130 115l64 13q16 -69 67 -69q38 0 60 26.5t22 66.5q0 73 -85 73h-20l12 60h18q48 0 76.5 19.5t28.5 59.5q0 26 -14.5 41.5t-41.5 15.5q-49 0 -71 -53l-57 17q36 94 136 94q55 0 85 -29.5t30 -77.5q0 -44 -25.5 -75t-68.5 -44
v-2q62 -28 62 -103z" />
    <glyph glyph-name="four.prop" unicode="&#xf07f;" horiz-adv-x="471" 
d="M300 0h-76l38 170h-248l16 78l324 470h105l-106 -474h90l-15 -74h-90zM278 244l85 369h-2l-257 -369h174z" />
    <glyph glyph-name="four.nominator" unicode="&#xf084;" 
d="M237 251h-61l23 109h-161l13 63l203 295h86l-66 -299h58l-13 -59h-58zM212 419l49 213h-2l-148 -213h101z" />
    <glyph glyph-name="four.denominator" unicode="&#xf085;" 
d="M186 0h-61l23 109h-161l13 63l203 295h86l-66 -299h58l-13 -59h-58zM161 168l49 213h-2l-148 -213h101z" />
    <glyph glyph-name="five.prop" unicode="&#xf089;" horiz-adv-x="459" 
d="M419 286q0 -124 -60.5 -209.5t-170.5 -85.5q-150 0 -178 169l77 17q24 -111 106 -111q67 0 106 64.5t39 154.5q0 124 -89 124q-65 0 -113 -70l-63 17l95 362h289l-15 -77h-224l-55 -198h2q50 38 107 38q147 0 147 -195z" />
    <glyph glyph-name="five.nominator" unicode="&#xf08e;" 
d="M320 438q0 -80 -42 -136.5t-114 -56.5q-102 0 -122 115l63 13q14 -67 62 -67q40 0 63 38t23 92q0 72 -53 72q-36 0 -67 -40l-50 12l60 238h199l-12 -62h-147l-33 -118h2q33 26 72 26q96 0 96 -126z" />
    <glyph glyph-name="five.denominator" unicode="&#xf08f;" 
d="M269 187q0 -80 -42 -136.5t-114 -56.5q-102 0 -122 115l63 13q14 -67 62 -67q40 0 63 38t23 92q0 72 -53 72q-36 0 -67 -40l-50 12l60 238h199l-12 -62h-147l-33 -118h2q33 26 72 26q96 0 96 -126z" />
    <glyph glyph-name="six.prop" unicode="&#xf093;" horiz-adv-x="472" 
d="M333 653q-71 0 -118.5 -75.5t-70.5 -189.5h2q60 61 141 61q75 0 114 -50.5t39 -135.5q0 -117 -56.5 -194.5t-153.5 -77.5q-93 0 -136 69.5t-43 178.5q0 80 16.5 161t49 156.5t90.5 123t133 47.5q101 0 157 -75l-65 -51q-42 52 -99 52zM265 375q-61 0 -97 -41.5
t-36 -102.5q0 -71 23.5 -120t77.5 -49q59 0 92 55t33 139q0 51 -22.5 85t-70.5 34z" />
    <glyph glyph-name="six.nominator" unicode="&#xf098;" 
d="M252 666q-42 0 -71 -44.5t-42 -114.5h1q38 38 90 38q49 0 74 -33t25 -89q0 -79 -39 -128.5t-104 -49.5q-64 0 -93 45.5t-29 118.5q0 74 18 142.5t63 120.5t110 52q71 0 110 -51l-50 -41q-27 34 -63 34zM208 487q-35 0 -56.5 -23.5t-21.5 -62.5q0 -99 59 -99
q34 0 53.5 32.5t19.5 82.5q0 70 -54 70z" />
    <glyph glyph-name="six.denominator" unicode="&#xf099;" 
d="M201 415q-42 0 -71 -44.5t-42 -114.5h1q38 38 90 38q49 0 74 -33t25 -89q0 -79 -39 -128.5t-104 -49.5q-64 0 -93 45.5t-29 118.5q0 74 18 142.5t63 120.5t110 52q71 0 110 -51l-50 -41q-27 34 -63 34zM157 236q-35 0 -56.5 -23.5t-21.5 -62.5q0 -99 59 -99
q34 0 53.5 32.5t19.5 82.5q0 70 -54 70z" />
    <glyph glyph-name="seven.prop" unicode="&#xf09d;" horiz-adv-x="417" 
d="M98 0h-91l354 637h-273l16 81h366l-14 -65z" />
    <glyph glyph-name="seven.nominator" unicode="&#xf0a2;" 
d="M132 251h-73l225 402h-178l14 65h250l-11 -52z" />
    <glyph glyph-name="seven.denominator" unicode="&#xf0a3;" 
d="M82 0h-73l225 402h-178l14 65h250l-11 -52z" />
    <glyph glyph-name="eight.prop" unicode="&#xf0a7;" horiz-adv-x="476" 
d="M424 190q0 -92 -59 -145.5t-160 -53.5q-81 0 -131.5 47t-50.5 127q0 144 177 223q-81 81 -81 160q0 82 53 130.5t142 48.5q78 0 124 -43.5t46 -114.5q0 -128 -156 -198q45 -44 70.5 -86.5t25.5 -94.5zM344 185q0 42 -24.5 75.5t-72.5 76.5q-74 -32 -109 -72t-35 -97
q0 -47 29.5 -77.5t79.5 -30.5q59 0 95.5 34t36.5 91zM198 551q0 -35 20.5 -64.5t61.5 -67.5q124 54 124 146q0 41 -25.5 67.5t-70.5 26.5q-49 0 -79.5 -29t-30.5 -79z" />
    <glyph glyph-name="eight.nominator" unicode="&#xf0ac;" 
d="M319 379q0 -62 -39.5 -98t-106.5 -36q-57 0 -92 32.5t-35 84.5q0 90 112 142q-51 51 -51 100q0 54 36.5 87t95.5 33q54 0 85.5 -28.5t31.5 -76.5q0 -79 -98 -126q61 -59 61 -114zM254 375q0 24 -15.5 45t-45.5 47q-82 -39 -82 -101q0 -28 17.5 -46.5t48.5 -18.5
q35 0 56 20t21 54zM171 608q0 -34 51 -80q69 32 69 87q0 24 -14.5 39.5t-41.5 15.5q-28 0 -46 -16.5t-18 -45.5z" />
    <glyph glyph-name="eight.denominator" unicode="&#xf0ad;" 
d="M268 128q0 -62 -39.5 -98t-106.5 -36q-57 0 -92 32.5t-35 84.5q0 90 112 142q-51 51 -51 100q0 54 36.5 87t95.5 33q54 0 85.5 -28.5t31.5 -76.5q0 -79 -98 -126q61 -59 61 -114zM203 124q0 24 -15.5 45t-45.5 47q-82 -39 -82 -101q0 -28 17.5 -46.5t48.5 -18.5
q35 0 56 20t21 54zM120 357q0 -34 51 -80q69 32 69 87q0 24 -14.5 39.5t-41.5 15.5q-28 0 -46 -16.5t-18 -45.5z" />
    <glyph glyph-name="nine.prop" unicode="&#xf0b1;" horiz-adv-x="475" 
d="M176 65q71 0 118.5 75.5t70.5 189.5h-2q-60 -61 -141 -61q-75 0 -114 50.5t-39 135.5q0 117 56.5 194.5t153.5 77.5q93 0 136 -69.5t43 -178.5q0 -80 -16.5 -161t-49 -156.5t-90.5 -123t-133 -47.5q-101 0 -157 75l65 51q42 -52 99 -52zM244 343q61 0 97 41.5t36 102.5
q0 71 -23.5 120t-77.5 49q-59 0 -92 -55t-33 -139q0 -51 22.5 -85t70.5 -34z" />
    <glyph glyph-name="nine.nominator" unicode="&#xf0b6;" 
d="M152 303q42 0 71 44.5t42 114.5h-1q-38 -38 -90 -38q-49 0 -74 33t-25 89q0 79 39 128.5t104 49.5q64 0 93 -45.5t29 -118.5q0 -74 -18 -142.5t-63 -120.5t-110 -52q-71 0 -110 51l50 41q27 -34 63 -34zM196 482q35 0 56.5 23.5t21.5 62.5q0 99 -59 99q-34 0 -53.5 -32.5
t-19.5 -82.5q0 -70 54 -70z" />
    <glyph glyph-name="nine.denominator" unicode="&#xf0b7;" 
d="M101 52q42 0 71 44.5t42 114.5h-1q-38 -38 -90 -38q-49 0 -74 33t-25 89q0 79 39 128.5t104 49.5q64 0 93 -45.5t29 -118.5q0 -74 -18 -142.5t-63 -120.5t-110 -52q-71 0 -110 51l50 41q27 -34 63 -34zM145 231q35 0 56.5 23.5t21.5 62.5q0 99 -59 99q-34 0 -53.5 -32.5
t-19.5 -82.5q0 -70 54 -70z" />
    <glyph glyph-name="fivesevenths" unicode="&#xf0bc;" horiz-adv-x="795" 
d="M565 0h-73l225 402h-178l14 65h250l-11 -52zM320 438q0 -80 -42 -136.5t-114 -56.5q-102 0 -122 115l63 13q14 -67 62 -67q40 0 63 38t23 92q0 72 -53 72q-36 0 -67 -40l-50 12l60 238h199l-12 -62h-147l-33 -118h2q33 26 72 26q96 0 96 -126zM169 -23h-61l523 762h62z
" />
    <glyph glyph-name="foursevenths" unicode="&#xf0be;" horiz-adv-x="810" 
d="M580 0h-73l225 402h-178l14 65h250l-11 -52zM237 251h-61l23 109h-161l13 63l203 295h86l-66 -299h58l-13 -59h-58zM212 419l49 213h-2l-148 -213h101zM184 -23h-61l523 762h62z" />
    <glyph glyph-name="oneseventh" unicode="&#xf0c1;" horiz-adv-x="795" 
d="M565 0h-73l225 402h-178l14 65h250l-11 -52zM169 -23h-61l523 762h62zM257 251h-197l12 59h64l76 338l-76 -13l10 51l98 32h48l-90 -408h67z" />
    <glyph glyph-name="sixsevenths" unicode="&#xf0c3;" horiz-adv-x="809" 
d="M580 0h-73l225 402h-178l14 65h250l-11 -52zM252 666q-42 0 -71 -44.5t-42 -114.5h1q38 38 90 38q49 0 74 -33t25 -89q0 -79 -39 -128.5t-104 -49.5q-64 0 -93 45.5t-29 118.5q0 74 18 142.5t63 120.5t110 52q71 0 110 -51l-50 -41q-27 34 -63 34zM208 487
q-35 0 -56.5 -23.5t-21.5 -62.5q0 -99 59 -99q34 0 53.5 32.5t19.5 82.5q0 70 -54 70zM184 -23h-61l523 762h62z" />
    <glyph glyph-name="threesevenths" unicode="&#xf0c4;" horiz-adv-x="795" 
d="M565 0h-73l225 402h-178l14 65h250l-11 -52zM311 393q0 -66 -41 -107t-107 -41q-109 0 -130 115l64 13q16 -69 67 -69q38 0 60 26.5t22 66.5q0 73 -85 73h-20l12 60h18q48 0 76.5 19.5t28.5 59.5q0 26 -14.5 41.5t-41.5 15.5q-49 0 -71 -53l-57 17q36 94 136 94
q55 0 85 -29.5t30 -77.5q0 -44 -25.5 -75t-68.5 -44v-2q62 -28 62 -103zM169 -23h-61l523 762h62z" />
    <glyph glyph-name="twosevenths" unicode="&#xf0c6;" horiz-adv-x="825" 
d="M595 0h-73l225 402h-178l14 65h250l-11 -52zM287 251h-255l8 35q9 39 36.5 76t60.5 66t64.5 57.5t52.5 60.5t21 64q0 26 -13 40.5t-37 14.5q-53 0 -76 -77l-60 12q36 124 141 124q54 0 82.5 -30t28.5 -83q0 -38 -20 -73.5t-50 -64.5t-60.5 -54.5t-56 -53.5t-33.5 -52h178
zM199 -23h-61l523 762h62z" />
    <glyph glyph-name="dollar.prop" unicode="&#xf0fe;" horiz-adv-x="456" 
d="M175 -119h-51l28 130q-107 28 -135 184l76 15q19 -97 76 -125l58 261q-36 37 -54.5 59t-36.5 60.5t-18 77.5q0 78 45.5 124.5t122.5 46.5q4 0 11 -0.5t11 -0.5l16 73h51l-19 -84q85 -31 111 -148l-71 -20q-17 67 -57 93l-51 -233q35 -36 53.5 -59t37 -62t18.5 -79
q0 -88 -51.5 -139t-134.5 -51h-9zM322 187q0 53 -54 116l-51 -228q49 0 77 30.5t28 81.5zM193 549q0 -50 54 -111l45 205q-3 1 -11 1q-40 0 -64 -25.5t-24 -69.5z" />
    <glyph glyph-name="currency.prop" unicode="&#xf107;" horiz-adv-x="375" 
d="M199 173q39 0 60 23.5t21 60.5t-21.5 61t-59.5 24t-59.5 -24t-21.5 -61t21.5 -60.5t59.5 -23.5zM199 117q-45 0 -80 24l-48 -51l-37 37l50 50q-22 34 -22 80q0 44 22 80l-50 50l37 37l48 -50q36 23 80 23q43 0 79 -24l51 51l36 -37l-50 -51q22 -36 22 -79q0 -45 -23 -79
l51 -51l-36 -37l-51 51q-34 -24 -79 -24z" />
    <glyph glyph-name="Euro.prop" unicode="&#xf110;" horiz-adv-x="479" 
d="M441 150q-69 -159 -208 -159q-147 0 -147 202q0 39 3 81h-62l11 57h57q4 37 12 77h-52l12 57h54q32 118 91 190t146 72q73 0 109.5 -40t51.5 -122l-78 -15q-9 49 -28 76t-58 27q-96 0 -150 -188h193l-12 -57h-195q-10 -52 -13 -77h190l-12 -57h-185q-3 -46 -3 -85
q0 -123 74 -123q75 0 126 111z" />
    <glyph glyph-name="cent.prop" unicode="&#xf119;" horiz-adv-x="419" 
d="M295 155l66 -26q-63 -132 -180 -138l-26 -115h-52l27 120q-50 12 -75.5 57t-25.5 114q0 134 60 243t159 117l24 107h51l-24 -111q92 -19 104 -158l-69 -9q-11 102 -78 102q-46 0 -81.5 -48t-52 -113.5t-16.5 -131.5q0 -48 18 -75.5t54 -27.5q69 0 117 93z" />
    <glyph glyph-name="sterling.prop" unicode="&#xf122;" horiz-adv-x="467" 
d="M-26 -10l18 89q64 26 93 87t37 166h-74l12 58h65q2 66 2 106q0 104 43.5 167.5t137.5 63.5q152 0 181 -188l-73 -13q-26 126 -112 126q-97 0 -97 -149q0 -41 -2 -113h118l-12 -58h-110q-11 -133 -57 -210q55 -51 104 -51q40 0 66.5 31t48.5 95l72 -21q-59 -185 -185 -185
q-72 0 -149 75q-51 -50 -127 -76z" />
    <glyph glyph-name="florin.prop" unicode="&#xf12b;" horiz-adv-x="391" 
d="M65 37l108 334h-116l11 58h123l34 103q34 105 70 150t109 45q28 0 52 -7l-15 -71q-22 6 -38 6q-40 0 -61 -32t-47 -113l-26 -81h119l-12 -58h-126l-114 -356q-34 -105 -70.5 -150.5t-108.5 -45.5q-27 0 -52 7l15 71q23 -6 38 -6q39 0 59.5 32.5t47.5 113.5z" />
    <glyph glyph-name="yen.prop" unicode="&#xf134;" horiz-adv-x="461" 
d="M413 305h-134l-5 -9l-15 -67h137l-12 -58h-138l-38 -171h-80l38 171h-134l12 58h135l15 68l-2 8h-131l13 57h106l-72 356h85l57 -321h2l196 321h92l-225 -356h110z" />
    <glyph glyph-name="uniF8FF" unicode="&#xf8ff;" horiz-adv-x="527" 
d="M491 0h-420v718h420v-718zM439 51v616h-316v-616h316zM290 285h-44v28q0 40 34.5 91t34.5 81q0 40 -35 40q-31 0 -42 -44l-49 11q18 82 93 82q45 0 66.5 -24t21.5 -64q0 -41 -40 -98t-40 -84v-19zM299 152h-64v72h64v-72z" />
    <glyph glyph-name="pounds" horiz-adv-x="626" 
d="M76 0h-73l130 590h-48l12 57h49l16 71h72l-16 -71h121l16 71h74l-17 -71h147l-12 -57h-148l-30 -132q66 66 130 66q106 0 106 -153q0 -90 -24 -175t-75.5 -145t-118.5 -60q-71 0 -108 71l-26 -62h-56l130 590h-121zM529 358q0 92 -64 92q-55 0 -111 -67l-57 -256
q31 -63 84 -63q43 0 78 46t52.5 112.5t17.5 135.5z" />
    </font>
</defs>
</svg>
