<svg height="141.73" viewBox="0 0 283.46 141.73" width="283.46" xmlns="http://www.w3.org/2000/svg"><path d="m41.358 46.73v9.7h3.484c4.167 0 5.6-1.982 5.6-5.192 0-3.416-1.844-4.508-5.668-4.508zm10.588 37.57-4.986-13.32c-1.843-4.918-2.937-5.534-5.602-5.534v18.852h-12.226v-47.61h16.394c14.003 0 18.51 5.67 18.51 13.594 0 8.197-4.302 12.364-9.903 13.32 1.64.478 3.62 2.663 4.782 5.123 1.57 3.21 5.6 12.022 7.173 15.573h-14.142zm19.181 0v-47.61h26.776l.002 10.04h-14.55v7.992h11.885v9.7h-11.884v9.698h16.324v10.18m61.685-47.61h-13.047l-2.39 11.816c-.957 4.645-2.393 13.866-2.666 18.102h-.066c-.274-5.807-1.23-10.383-1.914-14.003l-3.072-15.915h-13.594l-2.458 13.182c-1.298 7.036-2.118 12.978-2.393 16.804h-.066c-.07-1.776-.48-6.42-2.734-17.146l-2.664-12.842h-12.91l11.543 47.61h13.32l2.528-13.798c1.162-6.216 2.186-12.567 2.322-14.958h.07c.204 3.006 1.296 9.22 2.32 14.958l2.46 13.798h13.047l12.363-47.61zm31.97 47.61v-10.18h-16.322v-9.7h11.883v-9.698h-11.883v-7.992h14.547v-10.04h-26.778v47.61m26.636 9.58c-.82-.87-1.972-1.314-3.353-1.314-1.494 0-2.612.344-3.96 1.462-1.478 1.233-2.66 3.71-2.66 6.325 0 2.368 1.415 3.94 4.076 3.94 1.348 0 2.694-.262 3.993-.95l1.18-5.52h-4.468v1.872h1.694l-.562 2.597c-.41.198-.837.28-1.347.28-1.313 0-2.053-.626-2.053-2.12 0-1.382.64-4.39 1.955-5.422.46-.378 1.116-.608 1.79-.608.87 0 1.61.247 2.233.854l1.483-1.396zm9.156 3.796h.708c.984 0 1.428-.115 1.808-.395.44-.36.738-1.066.738-1.576 0-.79-.51-1.116-1.462-1.116h-1.135l-.656 3.088zm2.99-4.928c1.726 0 2.73.968 2.73 2.495 0 2.252-1.546 3.696-3.287 3.99.196.135.378.397.49.575.543.955 1.712 4.355 1.712 4.355h-2.713l-.592-1.855c-.706-2.087-1.036-2.66-1.412-2.844-.1-.048-.198-.064-.278-.064l-1.02 4.764h-2.317l2.43-11.416zm12.386 2.628c-.905 1.182-1.512 3.694-1.512 5.222 0 1.464.622 1.99 1.773 1.99.66 0 1.333-.215 1.86-.854.983-1.218 1.576-3.928 1.576-5.505 0-1.117-.46-1.857-1.71-1.857-.772 0-1.526.393-1.985 1.003m6.276 1.33c0 2.876-1.462 5.996-3.78 7.1-.756.358-1.625.54-2.58.54-2.822 0-3.906-1.71-3.906-4.092 0-3.235 1.56-5.553 3.037-6.62.676-.494 1.61-1.036 3.353-1.036 2.51 0 3.876 1.56 3.876 4.11m9.97-3.959-1.593 7.506c-.148.66-.164 1.132-.1 1.365.15.506.642.785 1.397.785 1.052 0 1.757-.574 2.02-1.38.083-.23.116-.36.247-.97l1.56-7.308h2.334l-1.644 7.688c-.312 1.46-.576 2.232-1.462 2.908-.445.327-1.3 1.035-3.434 1.035-2.22 0-3.498-.986-3.498-2.467 0-.375.048-.82.13-1.213l1.69-7.95h2.352zm14.412 5.338h1.15c.888 0 1.38-.196 1.677-.558.344-.413.59-1.068.59-1.728 0-.754-.41-1.2-1.266-1.2h-1.41l-.74 3.486zm1.792-5.338c1.545 0 2.397.16 2.956.525.724.442 1.15 1.2 1.15 2.085 0 1.972-.937 3.417-2.645 4.206-.576.263-1.545.395-2.45.395h-1.213l-.888 4.204h-2.35l2.432-11.416h3.008z" fill="#777"/><path d="m202.726 64.448h19.84v19.84h-19.84z" fill="#cc071e"/><path d="m232.468 64.448h19.84v19.84h-19.84z" fill="#eccd23"/></svg>